{
.appVersion = "1286";
copyright = "Copyright \\(c\\) 2017 by Ricky Rinaldi | Aiyari. All rights reserved.";
customParameters = (
{
name = description;
value = "Copyright (c) 2017 by Ricky Rinaldi | Aiyari. All rights reserved.";
},
{
name = trademark;
value = "Winter is Coming Serif Expand is a trademark of Ricky Rinaldi | Aiyari.";
},
{
name = panose;
value = (
0,
0,
0,
0,
0,
0,
0,
0,
0,
0
);
},
{
name = unicodeRanges;
value = (
0,
1,
2,
5,
31,
33,
62
);
},
{
name = fsType;
value = (
2
);
},
{
name = glyphOrder;
value = (
.notdef,
A,
B,
C,
D,
E,
F,
G,
H,
I,
J,
K,
L,
M,
N,
O,
P,
Q,
R,
S,
T,
U,
V,
W,
X,
Y,
Z,
a,
b,
c,
d,
e,
f,
g,
h,
i,
j,
k,
l,
m,
n,
o,
p,
q,
r,
s,
t,
u,
v,
w,
x,
y,
z,
one,
two,
three,
four,
five,
six,
seven,
eight,
nine,
zero,
exclam,
at,
numbersign,
dollar,
percent,
ampersand,
quotesingle,
parenleft,
parenright,
asterisk,
plus,
equal,
hyphen,
comma,
period,
slash,
fraction,
colon,
semicolon,
less,
greater,
question,
bracketleft,
bracketright,
backslash,
asciicircum,
underscore,
grave,
braceleft,
braceright,
bar,
asciitilde,
Euro,
quotesinglbase,
quotedblbase,
ellipsis,
circumflex,
guilsinglleft,
quoteleft,
quoteright,
quotedblleft,
quotedblright,
bullet,
endash,
emdash,
tilde,
guilsinglright,
cent,
yen,
sterling,
dieresis,
acute,
mu,
cedilla,
ogonek,
caron,
hungarumlaut,
dotaccent,
breve,
quotedbl,
space,
thorn,
Thorn,
odieresis,
a_a,
b_b,
c_c,
d_d,
e_e,
f_f,
g_g,
h_h,
i_i,
j_j,
k_k,
l_l,
m_m,
n_n,
o_o,
p_p,
q_q,
r_r,
s_s,
t_t,
x_x,
y_y,
z_z,
Agrave,
Aacute,
Acircumflex,
Atilde,
Adieresis,
Ccedilla,
Egrave,
Eacute,
Ecircumflex,
Edieresis,
Igrave,
Iacute,
Icircumflex,
Idieresis,
Eth,
Ntilde,
Ograve,
Oacute,
Ocircumflex,
Otilde,
Odieresis,
Oslash,
Ugrave,
Uacute,
Ucircumflex,
Udieresis,
Yacute,
agrave,
aacute,
acircumflex,
atilde,
adieresis,
aring,
ccedilla,
egrave,
eacute,
ecircumflex,
edieresis,
ntilde,
ograve,
oacute,
ocircumflex,
otilde,
oslash,
ugrave,
uacute,
ucircumflex,
udieresis,
yacute,
ydieresis,
zcaron,
scaron,
AE,
ae,
Ydieresis,

glyphs = (
{
glyphname = A;
layers = (
{
hints = (
{
horizontal = 1;
place = "{-4, 21}";
target = up;
type = BottomGhost;
},
{
horizontal = 1;
place = "{152, 45}";
type = Stem;
},
{
horizontal = 1;
place = "{584, 32}";
type = Stem;
},
{
place = "{-9, 140}";
type = Stem;
},
{
place = "{204, 169}";
type = Stem;
},
{
place = "{106, 102}";
type = Stem;
},
{
horizontal = 1;
place = "{-4, 37}";
type = Stem;
}
);
layerId = "8AA200AC-43EB-4C51-877F-34011B5AD0E7";
paths = (
{
closed = 1;
nodes = (
"204 -79 LINE",
"210 -78 OFFCURVE",
"259 -69 OFFCURVE",
"288 -69 CURVE SMOOTH",
"318 -69 OFFCURVE",
"367 -78 OFFCURVE",
"373 -79 CURVE",
"373 -40 LINE",
"364 -38 OFFCURVE",
"325 -36 OFFCURVE",
"321 -28 CURVE",
"208 604 LINE",
"208 624 LINE",
"202 623 OFFCURVE",
"172 616 OFFCURVE",
"157 616 CURVE SMOOTH",
"142 616 OFFCURVE",
"112 623 OFFCURVE",
"106 624 CURVE",
"106 584 LINE",
"135 584 LINE",
"39 45 LINE",
"39 39 OFFCURVE",
"-2 34 OFFCURVE",
"-9 33 CURVE",
"-9 -6 LINE",
"-3 -5 OFFCURVE",
"38 4 OFFCURVE",
"61 4 CURVE SMOOTH",
"84 4 OFFCURVE",
"125 -3 OFFCURVE",
"131 -4 CURVE",
"131 33 LINE",
"112 34 OFFCURVE",
"92 37 OFFCURVE",
"80 45 CURVE",
"99 152 LINE",
"220 152 LINE",
"252 -27 LINE",
"252 -34 OFFCURVE",
"210 -39 OFFCURVE",
"204 -40 CURVE"
);
},
{
closed = 1;
nodes = (
"107 197 LINE",
"159 491 LINE",
"212 197 LINE"
);
}
);
width = 336;
}
);
leftKerningGroup = Agrave;
note = A;
rightKerningGroup = Agrave;
unicode = 0041;
},
{
glyphname = B;
layers = (
{
layerId = "8AA200AC-43EB-4C51-877F-34011B5AD0E7";
paths = (
{
closed = 1;
nodes = (
"10 -6 LINE",
"16 -4 OFFCURVE",
"61 3 OFFCURVE",
"88 3 CURVE SMOOTH",
"95 3 OFFCURVE",
"114 3 OFFCURVE",
"132 2 CURVE SMOOTH",
"150 2 OFFCURVE",
"169 1 OFFCURVE",
"176 1 CURVE SMOOTH",
"212 1 OFFCURVE",
"250 4 OFFCURVE",
"279 21 CURVE SMOOTH",
"311 39 OFFCURVE",
"326 71 OFFCURVE",
"326 118 CURVE SMOOTH",
"326 150 OFFCURVE",
"316 175 OFFCURVE",
"297 192 CURVE SMOOTH",
"284 204 OFFCURVE",
"267 212 OFFCURVE",
"245 217 CURVE",
"263 230 OFFCURVE",
"276 248 OFFCURVE",
"285 271 CURVE SMOOTH",
"296 298 OFFCURVE",
"301 332 OFFCURVE",
"301 373 CURVE SMOOTH",
"301 446 OFFCURVE",
"299 505 OFFCURVE",
"276 547 CURVE SMOOTH",
"250 594 OFFCURVE",
"201 615 OFFCURVE",
"120 615 CURVE SMOOTH",
"73 615 OFFCURVE",
"22 621 OFFCURVE",
"16 622 CURVE",
"16 585 LINE",
"39 583 OFFCURVE",
"60 578 OFFCURVE",
"63 573 CURVE",
"63 46 LINE",
"53 36 OFFCURVE",
"26 35 OFFCURVE",
"10 34 CURVE"
);
},
{
closed = 1;
nodes = (
"131 185 LINE",
"139 185 LINE SMOOTH",
"193 184 OFFCURVE",
"226 177 OFFCURVE",
"243 165 CURVE SMOOTH",
"254 157 OFFCURVE",
"260 147 OFFCURVE",
"260 118 CURVE SMOOTH",
"260 65 OFFCURVE",
"225 38 OFFCURVE",
"154 38 CURVE SMOOTH",
"145 38 OFFCURVE",
"137 38 OFFCURVE",
"131 39 CURVE"
);
},
{
closed = 1;
nodes = (
"131 580 LINE",
"155 580 OFFCURVE",
"173 575 OFFCURVE",
"187 567 CURVE SMOOTH",
"201 559 OFFCURVE",
"212 546 OFFCURVE",
"219 529 CURVE SMOOTH",
"234 493 OFFCURVE",
"235 440 OFFCURVE",
"235 373 CURVE SMOOTH",
"235 321 OFFCURVE",
"229 288 OFFCURVE",
"214 265 CURVE SMOOTH",
"198 240 OFFCURVE",
"172 227 OFFCURVE",
"131 226 CURVE"
);
}
);
width = 336;
}
);
note = B;
unicode = 0042;
},
{
glyphname = C;
layers = (
{
hints = (
{
horizontal = 1;
place = "{-5, 21}";
target = up;
type = BottomGhost;
},
{
horizontal = 1;
place = "{579, 42}";
type = Stem;
},
{
place = "{0, 71}";
type = Stem;
},
{
place = "{223, 33}";
type = Stem;
},
{
horizontal = 1;
place = "{-46, 38}";
type = Stem;
}
);
layerId = "8AA200AC-43EB-4C51-877F-34011B5AD0E7";
paths = (
{
closed = 1;
nodes = (
"169 -46 OFFCURVE",
"202 -21 OFFCURVE",
"223 28 CURVE",
"223 -5 LINE",
"262 -5 LINE",
"259 29 OFFCURVE",
"256 63 OFFCURVE",
"256 105 CURVE SMOOTH",
"256 152 OFFCURVE",
"262 221 OFFCURVE",
"262 229 CURVE",
"250 226 OFFCURVE",
"239 223 OFFCURVE",
"235 223 CURVE SMOOTH",
"234 223 OFFCURVE",
"222 224 OFFCURVE",
"210 225 CURVE",
"210 218 OFFCURVE",
"214 63 OFFCURVE",
"163 10 CURVE SMOOTH",
"152 -2 OFFCURVE",
"140 -8 OFFCURVE",
"125 -8 CURVE SMOOTH",
"111 -8 OFFCURVE",
"99 12 OFFCURVE",
"90 48 CURVE SMOOTH",
"77 99 OFFCURVE",
"71 184 OFFCURVE",
"71 300 CURVE SMOOTH",
"71 394 OFFCURVE",
"76 465 OFFCURVE",
"87 512 CURVE SMOOTH",
"97 557 OFFCURVE",
"112 579 OFFCURVE",
"131 579 CURVE SMOOTH",
"143 579 OFFCURVE",
"154 575 OFFCURVE",
"164 565 CURVE SMOOTH",
"212 515 OFFCURVE",
"207 362 OFFCURVE",
"206 355 CURVE",
"219 357 OFFCURVE",
"231 358 OFFCURVE",
"234 358 CURVE SMOOTH",
"236 358 OFFCURVE",
"249 357 OFFCURVE",
"262 355 CURVE",
"262 362 OFFCURVE",
"256 429 OFFCURVE",
"256 474 CURVE SMOOTH",
"256 520 OFFCURVE",
"260 608 OFFCURVE",
"261 612 CURVE",
"262 625 LINE",
"223 625 LINE",
"223 554 LINE",
"203 599 OFFCURVE",
"172 621 OFFCURVE",
"129 621 CURVE SMOOTH",
"108 621 OFFCURVE",
"89 614 OFFCURVE",
"73 599 CURVE SMOOTH",
"57 585 OFFCURVE",
"43 563 OFFCURVE",
"32 536 CURVE SMOOTH",
"11 480 OFFCURVE",
"0 401 OFFCURVE",
"0 300 CURVE SMOOTH",
"0 209 OFFCURVE",
"9 126 OFFCURVE",
"27 67 CURVE SMOOTH",
"37 32 OFFCURVE",
"50 5 OFFCURVE",
"65 -14 CURVE SMOOTH",
"82 -35 OFFCURVE",
"102 -46 OFFCURVE",
"125 -46 CURVE SMOOTH"
);
}
);
width = 272;
}
);
leftKerningGroup = C;
note = C;
rightKerningGroup = C;
unicode = 0043;
},
{
glyphname = D;
layers = (
{
hints = (
{
horizontal = 1;
place = "{-6, 40}";
type = Stem;
},
{
horizontal = 1;
place = "{585, 31}";
type = Stem;
},
{
place = "{63, 69}";
type = Stem;
},
{
place = "{236, 66}";
type = Stem;
},
{
horizontal = 1;
place = "{4, 30}";
type = Stem;
}
);
layerId = "8AA200AC-43EB-4C51-877F-34011B5AD0E7";
paths = (
{
closed = 1;
nodes = (
"10 -6 LINE",
"16 -5 LINE",
"16 -5 OFFCURVE",
"61 4 OFFCURVE",
"88 4 CURVE SMOOTH",
"95 4 OFFCURVE",
"102 3 OFFCURVE",
"112 3 CURVE",
"114 2 OFFCURVE",
"117 2 OFFCURVE",
"120 2 CURVE",
"120 2 LINE",
"120 2 LINE",
"149 2 OFFCURVE",
"175 8 OFFCURVE",
"198 21 CURVE SMOOTH",
"221 34 OFFCURVE",
"240 53 OFFCURVE",
"255 77 CURVE SMOOTH",
"286 126 OFFCURVE",
"302 198 OFFCURVE",
"302 290 CURVE SMOOTH",
"302 377 OFFCURVE",
"302 460 OFFCURVE",
"275 520 CURVE SMOOTH",
"246 585 OFFCURVE",
"188 616 OFFCURVE",
"92 616 CURVE SMOOTH",
"67 616 OFFCURVE",
"22 623 OFFCURVE",
"22 623 CURVE",
"16 624 LINE",
"16 585 LINE",
"21 585 LINE",
"21 585 OFFCURVE",
"31 584 OFFCURVE",
"42 582 CURVE SMOOTH",
"59 579 OFFCURVE",
"62 575 OFFCURVE",
"63 574 CURVE",
"63 46 LINE",
"62 45 OFFCURVE",
"58 41 OFFCURVE",
"39 37 CURVE SMOOTH",
"27 35 OFFCURVE",
"15 34 OFFCURVE",
"15 34 CURVE",
"10 34 LINE"
);
},
{
closed = 1;
nodes = (
"132 585 LINE",
"154 583 OFFCURVE",
"171 576 OFFCURVE",
"185 564 CURVE SMOOTH",
"199 551 OFFCURVE",
"210 532 OFFCURVE",
"218 506 CURVE SMOOTH",
"229 470 OFFCURVE",
"236 420 OFFCURVE",
"236 290 CURVE SMOOTH",
"236 212 OFFCURVE",
"226 147 OFFCURVE",
"206 103 CURVE SMOOTH",
"188 63 OFFCURVE",
"163 40 OFFCURVE",
"132 35 CURVE"
);
}
);
width = 312;
}
);
leftKerningGroup = D;
note = D;
rightKerningGroup = D;
unicode = 0044;
},
{
glyphname = E;
layers = (
{
hints = (
{
horizontal = 1;
place = "{-39, 38}";
type = Stem;
},
{
horizontal = 1;
place = "{206, 45}";
type = Stem;
},
{
horizontal = 1;
place = "{577, 37}";
type = Stem;
},
{
place = "{63, 68}";
type = Stem;
},
{
place = "{256, 34}";
type = Stem;
},
{
horizontal = 1;
place = "{146, 31}";
type = Stem;
},
{
place = "{256, 43}";
type = Stem;
},
{
place = "{205, 35}";
type = Stem;
}
);
layerId = "8AA200AC-43EB-4C51-877F-34011B5AD0E7";
paths = (
{
closed = 1;
nodes = (
"305 -64 LINE",
"304 -59 LINE SMOOTH",
"304 -58 OFFCURVE",
"299 10 OFFCURVE",
"299 56 CURVE SMOOTH",
"299 102 OFFCURVE",
"304 171 OFFCURVE",
"305 177 CURVE",
"256 177 LINE",
"256 -1 LINE",
"131 -1 LINE",
"131 206 LINE",
"196 206 LINE",
"197 205 OFFCURVE",
"201 200 OFFCURVE",
"205 177 CURVE SMOOTH",
"208 164 OFFCURVE",
"209 151 OFFCURVE",
"210 146 CURVE",
"249 146 LINE",
"248 152 OFFCURVE",
"240 201 OFFCURVE",
"240 231 CURVE SMOOTH",
"240 260 OFFCURVE",
"248 309 OFFCURVE",
"248 309 CURVE",
"249 315 LINE",
"210 315 LINE",
"209 310 OFFCURVE",
"208 296 OFFCURVE",
"205 282 CURVE SMOOTH",
"201 258 OFFCURVE",
"198 252 OFFCURVE",
"197 251 CURVE",
"131 251 LINE",
"131 577 LINE",
"256 577 LINE",
"256 392 LINE",
"297 392 LINE",
"296 397 LINE SMOOTH",
"296 398 OFFCURVE",
"290 467 OFFCURVE",
"290 513 CURVE SMOOTH",
"290 559 OFFCURVE",
"296 662 OFFCURVE",
"296 663 CURVE SMOOTH",
"297 668 LINE",
"256 668 LINE",
"256 620 LINE",
"253 619 OFFCURVE",
"250 619 OFFCURVE",
"246 619 CURVE SMOOTH",
"226 617 OFFCURVE",
"193 614 OFFCURVE",
"160 614 CURVE SMOOTH",
"109 614 OFFCURVE",
"22 621 OFFCURVE",
"22 621 CURVE",
"16 621 LINE",
"16 583 LINE",
"21 583 LINE SMOOTH",
"39 582 OFFCURVE",
"60 577 OFFCURVE",
"63 572 CURVE",
"63 4 LINE",
"62 3 OFFCURVE",
"58 -1 OFFCURVE",
"39 -5 CURVE SMOOTH",
"27 -7 OFFCURVE",
"15 -8 OFFCURVE",
"15 -8 CURVE",
"10 -8 LINE",
"10 -47 LINE",
"16 -46 LINE",
"16 -46 OFFCURVE",
"94 -39 OFFCURVE",
"149 -39 CURVE SMOOTH",
"190 -39 OFFCURVE",
"235 -43 OFFCURVE",
"256 -45 CURVE",
"256 -64 LINE"
);
}
);
width = 314;
}
);
leftKerningGroup = E;
note = E;
rightKerningGroup = E;
unicode = 0045;
},
{
glyphname = F;
layers = (
{
hints = (
{
horizontal = 1;
place = "{-5, 39}";
type = Stem;
},
{
horizontal = 1;
place = "{207, 44}";
type = Stem;
},
{
horizontal = 1;
place = "{577, 37}";
type = Stem;
},
{
place = "{63, 68}";
type = Stem;
},
{
place = "{266, 33}";
type = Stem;
},
{
place = "{226, 31}";
type = Stem;
}
);
layerId = "8AA200AC-43EB-4C51-877F-34011B5AD0E7";
paths = (
{
closed = 1;
nodes = (
"10 -6 LINE",
"15 -5 LINE SMOOTH",
"16 -5 OFFCURVE",
"65 4 OFFCURVE",
"97 4 CURVE SMOOTH",
"128 4 OFFCURVE",
"177 -5 OFFCURVE",
"178 -5 CURVE SMOOTH",
"184 -6 LINE",
"184 34 LINE",
"179 34 LINE",
"179 34 OFFCURVE",
"167 35 OFFCURVE",
"154 37 CURVE SMOOTH",
"135 41 OFFCURVE",
"131 46 OFFCURVE",
"131 47 CURVE SMOOTH",
"131 207 LINE",
"212 207 LINE",
"213 206 OFFCURVE",
"217 201 OFFCURVE",
"222 178 CURVE SMOOTH",
"224 164 OFFCURVE",
"226 151 OFFCURVE",
"226 150 CURVE SMOOTH",
"226 146 LINE",
"265 147 LINE",
"264 153 LINE",
"264 153 OFFCURVE",
"257 201 OFFCURVE",
"257 231 CURVE SMOOTH",
"257 261 OFFCURVE",
"264 309 OFFCURVE",
"264 309 CURVE",
"265 315 LINE",
"226 315 LINE",
"226 310 LINE",
"226 310 OFFCURVE",
"224 296 OFFCURVE",
"222 282 CURVE SMOOTH",
"218 258 OFFCURVE",
"214 252 OFFCURVE",
"213 251 CURVE",
"131 251 LINE",
"131 577 LINE",
"266 577 LINE",
"266 392 LINE",
"304 392 LINE",
"304 397 LINE",
"303 398 OFFCURVE",
"299 467 OFFCURVE",
"299 513 CURVE SMOOTH",
"299 559 OFFCURVE",
"303 662 OFFCURVE",
"304 663 CURVE",
"304 668 LINE",
"266 668 LINE",
"266 620 LINE",
"247 618 OFFCURVE",
"200 614 OFFCURVE",
"160 614 CURVE SMOOTH",
"108 614 OFFCURVE",
"22 621 OFFCURVE",
"21 621 CURVE SMOOTH",
"16 621 LINE",
"16 584 LINE",
"20 584 LINE SMOOTH",
"38 583 OFFCURVE",
"60 578 OFFCURVE",
"63 572 CURVE",
"63 46 LINE",
"62 45 OFFCURVE",
"58 41 OFFCURVE",
"39 37 CURVE SMOOTH",
"26 35 OFFCURVE",
"14 34 OFFCURVE",
"14 34 CURVE",
"10 34 LINE"
);
}
);
width = 314;
}
);
note = F;
unicode = 0046;
},
{
glyphname = G;
layers = (
{
hints = (
{
horizontal = 1;
place = "{-20, 38}";
type = Stem;
},
{
horizontal = 1;
place = "{227, 35}";
type = Stem;
},
{
horizontal = 1;
place = "{579, 42}";
type = Stem;
},
{
place = "{0, 71}";
type = Stem;
},
{
place = "{224, 33}";
type = Stem;
},
{
place = "{209, 42}";
type = Stem;
}
);
layerId = "8AA200AC-43EB-4C51-877F-34011B5AD0E7";
paths = (
{
closed = 1;
nodes = (
"167 -20 OFFCURVE",
"199 2 OFFCURVE",
"220 45 CURVE SMOOTH",
"240 86 OFFCURVE",
"251 147 OFFCURVE",
"251 227 CURVE",
"275 227 LINE",
"273 265 LINE",
"268 265 LINE",
"268 265 OFFCURVE",
"231 262 OFFCURVE",
"197 262 CURVE SMOOTH",
"163 262 OFFCURVE",
"110 265 OFFCURVE",
"110 265 CURVE",
"104 265 LINE",
"104 227 LINE",
"209 227 LINE",
"206 155 OFFCURVE",
"197 103 OFFCURVE",
"183 68 CURVE SMOOTH",
"169 34 OFFCURVE",
"151 18 OFFCURVE",
"126 18 CURVE SMOOTH",
"100 18 OFFCURVE",
"87 68 OFFCURVE",
"81 109 CURVE SMOOTH",
"72 168 OFFCURVE",
"71 244 OFFCURVE",
"71 296 CURVE SMOOTH",
"71 391 OFFCURVE",
"77 463 OFFCURVE",
"88 510 CURVE SMOOTH",
"98 556 OFFCURVE",
"113 579 OFFCURVE",
"131 579 CURVE SMOOTH",
"146 579 OFFCURVE",
"159 573 OFFCURVE",
"170 562 CURVE SMOOTH",
"218 509 OFFCURVE",
"208 359 OFFCURVE",
"207 351 CURVE",
"213 352 LINE SMOOTH",
"220 353 OFFCURVE",
"232 355 OFFCURVE",
"234 355 CURVE SMOOTH",
"237 355 OFFCURVE",
"249 353 OFFCURVE",
"257 352 CURVE SMOOTH",
"263 351 LINE",
"262 358 OFFCURVE",
"257 426 OFFCURVE",
"257 473 CURVE SMOOTH",
"257 518 OFFCURVE",
"261 595 OFFCURVE",
"262 607 CURVE",
"262 607 LINE",
"262 621 LINE",
"224 621 LINE",
"224 553 LINE",
"216 571 OFFCURVE",
"206 586 OFFCURVE",
"195 597 CURVE SMOOTH",
"177 613 OFFCURVE",
"156 621 OFFCURVE",
"130 621 CURVE SMOOTH",
"110 621 OFFCURVE",
"91 613 OFFCURVE",
"74 598 CURVE SMOOTH",
"58 584 OFFCURVE",
"45 562 OFFCURVE",
"34 534 CURVE SMOOTH",
"12 478 OFFCURVE",
"0 398 OFFCURVE",
"0 296 CURVE SMOOTH",
"0 195 OFFCURVE",
"11 117 OFFCURVE",
"32 63 CURVE SMOOTH",
"43 36 OFFCURVE",
"56 15 OFFCURVE",
"71 2 CURVE SMOOTH",
"87 -13 OFFCURVE",
"106 -20 OFFCURVE",
"126 -20 CURVE SMOOTH"
);
}
);
width = 274;
}
);
note = G;
unicode = 0047;
},
{
glyphname = H;
layers = (
{
hints = (
{
horizontal = 1;
place = "{-79, 30}";
type = Stem;
},
{
horizontal = 1;
place = "{-4, 38}";
type = Stem;
},
{
horizontal = 1;
place = "{258, 45}";
type = Stem;
},
{
horizontal = 1;
place = "{556, 31}";
type = Stem;
},
{
horizontal = 1;
place = "{630, 31}";
type = Stem;
},
{
place = "{63, 68}";
type = Stem;
},
{
place = "{262, 69}";
type = Stem;
},
{
place = "{331, 53}";
type = Stem;
}
);
layerId = "8AA200AC-43EB-4C51-877F-34011B5AD0E7";
paths = (
{
closed = 1;
nodes = (
"210 -88 LINE",
"216 -87 LINE",
"216 -87 OFFCURVE",
"266 -79 OFFCURVE",
"297 -79 CURVE SMOOTH",
"328 -79 OFFCURVE",
"378 -87 OFFCURVE",
"378 -87 CURVE",
"384 -88 LINE",
"384 -49 LINE",
"379 -49 LINE",
"379 -49 OFFCURVE",
"367 -48 OFFCURVE",
"355 -45 CURVE SMOOTH",
"335 -41 OFFCURVE",
"331 -37 OFFCURVE",
"331 -37 CURVE",
"331 545 LINE",
"333 550 OFFCURVE",
"353 555 OFFCURVE",
"373 556 CURVE SMOOTH",
"378 556 LINE",
"378 597 LINE",
"372 595 LINE",
"372 595 OFFCURVE",
"328 587 OFFCURVE",
"301 587 CURVE SMOOTH",
"273 587 OFFCURVE",
"222 594 OFFCURVE",
"222 594 CURVE",
"216 595 LINE",
"216 556 LINE",
"221 556 LINE SMOOTH",
"241 555 OFFCURVE",
"260 550 OFFCURVE",
"262 545 CURVE",
"262 303 LINE",
"131 303 LINE",
"131 618 LINE",
"132 620 OFFCURVE",
"137 623 OFFCURVE",
"152 626 CURVE SMOOTH",
"162 629 OFFCURVE",
"173 630 OFFCURVE",
"173 630 CURVE",
"178 630 LINE",
"178 670 LINE",
"172 668 LINE",
"172 668 OFFCURVE",
"129 661 OFFCURVE",
"101 661 CURVE SMOOTH",
"74 661 OFFCURVE",
"22 666 OFFCURVE",
"22 666 CURVE",
"16 667 LINE",
"16 630 LINE",
"21 630 LINE SMOOTH",
"39 628 OFFCURVE",
"60 623 OFFCURVE",
"63 618 CURVE",
"63 46 LINE",
"62 45 OFFCURVE",
"58 42 OFFCURVE",
"39 38 CURVE SMOOTH",
"27 35 OFFCURVE",
"15 34 OFFCURVE",
"15 34 CURVE",
"10 34 LINE",
"10 -5 LINE",
"16 -4 LINE",
"16 -4 OFFCURVE",
"66 5 OFFCURVE",
"97 5 CURVE SMOOTH",
"128 5 OFFCURVE",
"178 -4 OFFCURVE",
"178 -4 CURVE",
"184 -5 LINE",
"184 34 LINE",
"179 34 LINE",
"179 34 OFFCURVE",
"167 36 OFFCURVE",
"154 38 CURVE SMOOTH",
"135 42 OFFCURVE",
"132 46 OFFCURVE",
"131 47 CURVE",
"131 258 LINE",
"262 258 LINE",
"262 -37 LINE",
"261 -38 OFFCURVE",
"257 -41 OFFCURVE",
"239 -45 CURVE SMOOTH",
"227 -48 OFFCURVE",
"215 -49 OFFCURVE",
"215 -49 CURVE",
"210 -49 LINE"
);
}
);
width = 355;
}
);
note = H;
unicode = 0048;
},
{
glyphname = I;
layers = (
{
hints = (
{
horizontal = 1;
place = "{-5, 39}";
type = Stem;
},
{
horizontal = 1;
place = "{584, 30}";
type = Stem;
},
{
place = "{53, 68}";
type = Stem;
}
);
layerId = "8AA200AC-43EB-4C51-877F-34011B5AD0E7";
paths = (
{
closed = 1;
nodes = (
"0 -6 LINE",
"6 -5 LINE SMOOTH",
"7 -5 OFFCURVE",
"56 4 OFFCURVE",
"87 4 CURVE SMOOTH",
"119 4 OFFCURVE",
"168 -5 OFFCURVE",
"169 -5 CURVE SMOOTH",
"174 -6 LINE",
"174 34 LINE",
"170 34 LINE",
"170 34 OFFCURVE",
"157 35 OFFCURVE",
"145 37 CURVE SMOOTH",
"127 41 OFFCURVE",
"122 45 OFFCURVE",
"121 47 CURVE",
"121 572 LINE",
"122 574 OFFCURVE",
"128 578 OFFCURVE",
"142 581 CURVE SMOOTH",
"153 583 OFFCURVE",
"164 584 OFFCURVE",
"164 584 CURVE",
"168 584 LINE",
"168 624 LINE",
"162 623 LINE",
"162 623 OFFCURVE",
"120 614 OFFCURVE",
"91 614 CURVE SMOOTH",
"64 614 OFFCURVE",
"13 621 OFFCURVE",
"12 621 CURVE SMOOTH",
"6 622 LINE",
"6 584 LINE",
"11 584 LINE SMOOTH",
"30 583 OFFCURVE",
"51 578 OFFCURVE",
"53 572 CURVE",
"53 46 LINE SMOOTH",
"53 45 OFFCURVE",
"49 41 OFFCURVE",
"30 37 CURVE SMOOTH",
"17 35 OFFCURVE",
"5 34 OFFCURVE",
"5 34 CURVE",
"0 34 LINE"
);
}
);
width = 174;
}
);
note = I;
rightKerningGroup = I;
unicode = 0049;
},
{
glyphname = J;
layers = (
{
hints = (
{
horizontal = 1;
place = "{-204, 35}";
type = Stem;
},
{
horizontal = 1;
place = "{584, 30}";
type = Stem;
},
{
place = "{-99, 33}";
type = Stem;
},
{
place = "{39, 69}";
type = Stem;
}
);
layerId = "8AA200AC-43EB-4C51-877F-34011B5AD0E7";
paths = (
{
closed = 1;
nodes = (
"-66 -250 LINE",
"-66 -200 LINE",
"-59 -203 OFFCURVE",
"-51 -204 OFFCURVE",
"-44 -204 CURVE SMOOTH",
"-18 -204 OFFCURVE",
"5 -198 OFFCURVE",
"24 -187 CURVE SMOOTH",
"43 -176 OFFCURVE",
"59 -159 OFFCURVE",
"71 -137 CURVE SMOOTH",
"96 -93 OFFCURVE",
"108 -27 OFFCURVE",
"108 65 CURVE SMOOTH",
"108 573 LINE",
"111 577 OFFCURVE",
"130 583 OFFCURVE",
"155 584 CURVE",
"155 624 LINE",
"149 623 OFFCURVE",
"106 614 OFFCURVE",
"78 614 CURVE SMOOTH",
"50 614 OFFCURVE",
"-1 621 OFFCURVE",
"-7 622 CURVE",
"-7 584 LINE",
"-2 584 OFFCURVE",
"8 583 OFFCURVE",
"19 581 CURVE SMOOTH",
"33 578 OFFCURVE",
"38 574 OFFCURVE",
"39 572 CURVE",
"39 68 LINE SMOOTH",
"38 -16 OFFCURVE",
"30 -75 OFFCURVE",
"15 -114 CURVE SMOOTH",
"1 -151 OFFCURVE",
"-19 -169 OFFCURVE",
"-48 -169 CURVE SMOOTH",
"-55 -169 OFFCURVE",
"-61 -168 OFFCURVE",
"-66 -166 CURVE",
"-66 -83 LINE",
"-106 -83 LINE",
"-105 -89 LINE",
"-105 -89 OFFCURVE",
"-99 -122 OFFCURVE",
"-99 -156 CURVE SMOOTH",
"-99 -191 OFFCURVE",
"-105 -244 OFFCURVE",
"-105 -244 CURVE",
"-106 -250 LINE"
);
}
);
width = 165;
}
);
note = J;
unicode = 004A;
},
{
glyphname = K;
layers = (
{
hints = (
{
horizontal = 1;
place = "{-72, 31}";
type = Stem;
},
{
horizontal = 1;
place = "{-5, 39}";
type = Stem;
},
{
horizontal = 1;
place = "{629, 31}";
type = Stem;
},
{
place = "{53, 68}";
type = Stem;
},
{
place = "{194, 168}";
type = Stem;
},
{
horizontal = 1;
place = "{583, 31}";
type = Stem;
},
{
place = "{218, 144}";
type = Stem;
}
);
layerId = "8AA200AC-43EB-4C51-877F-34011B5AD0E7";
paths = (
{
closed = 1;
nodes = (
"194 -81 LINE",
"200 -80 LINE",
"200 -80 OFFCURVE",
"248 -72 OFFCURVE",
"278 -72 CURVE SMOOTH",
"308 -72 OFFCURVE",
"356 -80 OFFCURVE",
"356 -80 CURVE",
"362 -81 LINE",
"362 -41 LINE",
"357 -41 LINE",
"357 -41 OFFCURVE",
"343 -40 OFFCURVE",
"329 -38 CURVE SMOOTH",
"304 -35 OFFCURVE",
"298 -31 OFFCURVE",
"297 -30 CURVE",
"163 260 LINE",
"308 569 LINE",
"309 569 LINE",
"311 576 OFFCURVE",
"336 582 OFFCURVE",
"357 583 CURVE SMOOTH",
"362 583 LINE",
"362 624 LINE",
"356 623 LINE SMOOTH",
"355 623 OFFCURVE",
"315 614 OFFCURVE",
"290 614 CURVE SMOOTH",
"266 614 OFFCURVE",
"224 621 OFFCURVE",
"224 621 CURVE",
"218 622 LINE",
"218 583 LINE",
"223 583 LINE SMOOTH",
"243 581 OFFCURVE",
"263 578 OFFCURVE",
"269 574 CURVE",
"121 260 LINE",
"121 617 LINE",
"124 623 OFFCURVE",
"145 628 OFFCURVE",
"163 629 CURVE SMOOTH",
"168 629 LINE",
"168 669 LINE",
"162 668 LINE",
"162 668 OFFCURVE",
"119 660 OFFCURVE",
"92 660 CURVE SMOOTH",
"64 660 OFFCURVE",
"12 666 OFFCURVE",
"12 666 CURVE",
"6 667 LINE",
"6 629 LINE",
"11 629 LINE SMOOTH",
"29 628 OFFCURVE",
"50 623 OFFCURVE",
"53 617 CURVE",
"53 46 LINE",
"52 45 OFFCURVE",
"48 41 OFFCURVE",
"29 37 CURVE SMOOTH",
"17 35 OFFCURVE",
"5 34 OFFCURVE",
"5 34 CURVE",
"0 34 LINE",
"0 -6 LINE",
"6 -5 LINE",
"6 -5 OFFCURVE",
"56 4 OFFCURVE",
"87 4 CURVE SMOOTH",
"118 4 OFFCURVE",
"168 -5 OFFCURVE",
"168 -5 CURVE",
"174 -6 LINE",
"174 34 LINE",
"169 34 LINE",
"169 34 OFFCURVE",
"157 35 OFFCURVE",
"144 38 CURVE SMOOTH",
"125 41 OFFCURVE",
"122 46 OFFCURVE",
"121 47 CURVE",
"121 170 LINE",
"130 187 LINE",
"230 -36 LINE",
"221 -40 OFFCURVE",
"205 -41 OFFCURVE",
"199 -41 CURVE SMOOTH",
"194 -41 LINE"
);
}
);
width = 292;
}
);
note = K;
unicode = 004B;
},
{
glyphname = L;
layers = (
{
hints = (
{
horizontal = 1;
place = "{-5, 45}";
type = Stem;
},
{
horizontal = 1;
place = "{629, 31}";
type = Stem;
},
{
place = "{47, 68}";
type = Stem;
},
{
place = "{213, 32}";
type = Stem;
},
{
horizontal = 1;
place = "{-5, 38}";
type = Stem;
},
{
horizontal = 1;
place = "{2, 38}";
type = Stem;
}
);
layerId = "8AA200AC-43EB-4C51-877F-34011B5AD0E7";
paths = (
{
closed = 1;
nodes = (
"250 -23 LINE",
"250 -17 LINE",
"250 -17 OFFCURVE",
"245 51 OFFCURVE",
"245 97 CURVE SMOOTH",
"245 144 OFFCURVE",
"250 212 OFFCURVE",
"250 213 CURVE SMOOTH",
"250 218 LINE",
"213 218 LINE",
"213 40 LINE",
"115 40 LINE",
"115 618 LINE",
"118 623 OFFCURVE",
"139 628 OFFCURVE",
"157 629 CURVE SMOOTH",
"162 630 LINE",
"162 669 LINE",
"156 668 LINE",
"156 668 OFFCURVE",
"113 660 OFFCURVE",
"86 660 CURVE SMOOTH",
"58 660 OFFCURVE",
"6 666 OFFCURVE",
"6 666 CURVE",
"0 667 LINE",
"0 629 LINE",
"12 629 LINE SMOOTH",
"24 629 OFFCURVE",
"44 626 OFFCURVE",
"47 618 CURVE",
"47 45 LINE",
"46 44 OFFCURVE",
"42 40 OFFCURVE",
"23 37 CURVE SMOOTH",
"11 34 OFFCURVE",
"-1 33 OFFCURVE",
"-1 33 CURVE",
"-6 33 LINE",
"-6 -5 LINE",
"-1 -5 LINE",
"0 -4 OFFCURVE",
"69 2 OFFCURVE",
"116 2 CURVE SMOOTH",
"151 2 OFFCURVE",
"194 -1 OFFCURVE",
"213 -3 CURVE",
"213 -23 LINE"
);
}
);
width = 260;
}
);
note = L;
unicode = 004C;
},
{
glyphname = M;
layers = (
{
hints = (
{
horizontal = 1;
place = "{-80, 31}";
type = Stem;
},
{
horizontal = 1;
place = "{-4, 39}";
type = Stem;
},
{
horizontal = 1;
place = "{582, 31}";
type = Stem;
},
{
place = "{32, 46}";
type = Stem;
},
{
place = "{114, 17}";
type = Stem;
},
{
place = "{275, 69}";
type = Stem;
},
{
horizontal = 1;
place = "{628, 40}";
type = Stem;
},
{
horizontal = 1;
place = "{65, 31}";
type = Stem;
}
);
layerId = "8AA200AC-43EB-4C51-877F-34011B5AD0E7";
paths = (
{
closed = 1;
nodes = (
"222 -89 LINE",
"228 -88 LINE SMOOTH",
"229 -88 OFFCURVE",
"278 -80 OFFCURVE",
"310 -80 CURVE SMOOTH",
"342 -80 OFFCURVE",
"391 -88 OFFCURVE",
"392 -88 CURVE SMOOTH",
"397 -89 LINE",
"397 -50 LINE",
"393 -49 LINE",
"393 -49 OFFCURVE",
"381 -48 OFFCURVE",
"369 -46 CURVE SMOOTH",
"348 -42 OFFCURVE",
"345 -38 OFFCURVE",
"344 -38 CURVE",
"344 570 LINE",
"345 572 OFFCURVE",
"351 576 OFFCURVE",
"365 579 CURVE SMOOTH",
"376 581 OFFCURVE",
"387 582 OFFCURVE",
"387 582 CURVE",
"391 582 LINE",
"391 623 LINE",
"385 622 LINE",
"385 621 OFFCURVE",
"354 613 OFFCURVE",
"335 613 CURVE SMOOTH",
"318 613 OFFCURVE",
"282 621 OFFCURVE",
"282 622 CURVE",
"277 623 LINE",
"190 173 LINE",
"91 668 LINE",
"86 667 LINE",
"86 666 OFFCURVE",
"54 659 OFFCURVE",
"37 659 CURVE SMOOTH",
"19 659 OFFCURVE",
"-14 667 OFFCURVE",
"-14 668 CURVE",
"-21 669 LINE",
"-21 628 LINE",
"-16 628 LINE",
"-16 628 OFFCURVE",
"-4 627 OFFCURVE",
"8 625 CURVE SMOOTH",
"27 621 OFFCURVE",
"32 618 OFFCURVE",
"32 617 CURVE SMOOTH",
"32 46 LINE SMOOTH",
"32 45 OFFCURVE",
"27 41 OFFCURVE",
"8 38 CURVE SMOOTH",
"-4 36 OFFCURVE",
"-16 35 OFFCURVE",
"-16 35 CURVE",
"-21 34 LINE",
"-21 -5 LINE",
"-15 -4 LINE SMOOTH",
"-14 -4 OFFCURVE",
"29 4 OFFCURVE",
"55 4 CURVE SMOOTH",
"78 4 OFFCURVE",
"105 -1 OFFCURVE",
"115 -3 CURVE SMOOTH",
"117 -3 OFFCURVE",
"118 -3 OFFCURVE",
"118 -3 CURVE",
"131 -5 LINE",
"131 34 LINE",
"127 35 LINE",
"127 35 OFFCURVE",
"115 36 OFFCURVE",
"102 38 CURVE SMOOTH",
"83 42 OFFCURVE",
"79 46 OFFCURVE",
"78 47 CURVE",
"78 445 LINE",
"147 105 LINE",
"141 100 OFFCURVE",
"127 96 OFFCURVE",
"118 95 CURVE SMOOTH",
"113 94 LINE",
"115 57 LINE",
"120 58 LINE SMOOTH",
"121 58 OFFCURVE",
"160 65 OFFCURVE",
"184 65 CURVE SMOOTH",
"208 65 OFFCURVE",
"247 56 OFFCURVE",
"247 56 CURVE",
"253 54 LINE",
"253 96 LINE",
"249 96 LINE SMOOTH",
"239 96 OFFCURVE",
"221 98 OFFCURVE",
"213 101 CURVE",
"275 408 LINE",
"275 -37 LINE SMOOTH",
"275 -38 OFFCURVE",
"271 -42 OFFCURVE",
"252 -46 CURVE SMOOTH",
"239 -48 OFFCURVE",
"227 -49 OFFCURVE",
"227 -49 CURVE",
"222 -50 LINE"
);
}
);
width = 383;
}
);
note = M;
unicode = 004D;
},
{
glyphname = N;
layers = (
{
hints = (
{
horizontal = 1;
place = "{-80, 30}";
type = Stem;
},
{
horizontal = 1;
place = "{-5, 39}";
type = Stem;
},
{
horizontal = 1;
place = "{555, 30}";
type = Stem;
},
{
horizontal = 1;
place = "{628, 40}";
type = Stem;
},
{
place = "{32, 46}";
type = Stem;
},
{
place = "{222, 46}";
type = Stem;
}
);
layerId = "8AA200AC-43EB-4C51-877F-34011B5AD0E7";
paths = (
{
closed = 1;
nodes = (
"310 -90 LINE",
"310 -50 LINE",
"305 -50 LINE SMOOTH",
"295 -49 OFFCURVE",
"276 -47 OFFCURVE",
"268 -44 CURVE",
"268 543 LINE",
"269 544 OFFCURVE",
"273 548 OFFCURVE",
"292 552 CURVE SMOOTH",
"304 554 OFFCURVE",
"316 555 OFFCURVE",
"316 555 CURVE",
"321 555 LINE",
"321 593 LINE",
"315 592 LINE",
"315 592 OFFCURVE",
"270 585 OFFCURVE",
"245 585 CURVE SMOOTH",
"220 585 OFFCURVE",
"175 592 OFFCURVE",
"175 592 CURVE",
"169 593 LINE",
"170 555 LINE",
"175 555 LINE",
"175 555 OFFCURVE",
"187 554 OFFCURVE",
"199 552 CURVE SMOOTH",
"217 548 OFFCURVE",
"221 544 OFFCURVE",
"222 543 CURVE",
"222 131 LINE",
"91 668 LINE",
"86 667 LINE SMOOTH",
"85 667 OFFCURVE",
"53 659 OFFCURVE",
"37 659 CURVE SMOOTH",
"19 659 OFFCURVE",
"-14 668 OFFCURVE",
"-15 668 CURVE SMOOTH",
"-21 669 LINE",
"-21 628 LINE",
"-16 628 LINE",
"-16 628 OFFCURVE",
"-5 627 OFFCURVE",
"7 625 CURVE SMOOTH",
"27 621 OFFCURVE",
"31 618 OFFCURVE",
"32 617 CURVE",
"32 45 LINE",
"31 44 OFFCURVE",
"27 40 OFFCURVE",
"7 37 CURVE SMOOTH",
"-5 35 OFFCURVE",
"-16 34 OFFCURVE",
"-16 34 CURVE",
"-21 34 LINE",
"-21 -6 LINE",
"-15 -5 LINE",
"-15 -5 OFFCURVE",
"28 3 OFFCURVE",
"55 3 CURVE SMOOTH",
"81 3 OFFCURVE",
"125 -5 OFFCURVE",
"125 -5 CURVE",
"131 -6 LINE",
"131 34 LINE",
"126 34 LINE",
"126 34 OFFCURVE",
"114 35 OFFCURVE",
"102 37 CURVE SMOOTH",
"83 41 OFFCURVE",
"79 45 OFFCURVE",
"78 46 CURVE",
"78 495 LINE",
"200 -43 LINE",
"194 -46 OFFCURVE",
"181 -49 OFFCURVE",
"174 -50 CURVE SMOOTH",
"170 -51 LINE",
"169 -88 LINE",
"175 -87 LINE",
"175 -87 OFFCURVE",
"217 -80 OFFCURVE",
"240 -80 CURVE SMOOTH",
"263 -80 OFFCURVE",
"303 -89 OFFCURVE",
"304 -89 CURVE SMOOTH"
);
}
);
width = 305;
}
);
leftKerningGroup = N;
note = N;
rightKerningGroup = N;
unicode = 004E;
},
{
glyphname = O;
layers = (
{
hints = (
{
horizontal = 1;
place = "{-3, 37}";
type = Stem;
},
{
horizontal = 1;
place = "{555, 42}";
type = Stem;
},
{
place = "{0, 68}";
type = Stem;
},
{
place = "{248, 68}";
type = Stem;
}
);
layerId = "8AA200AC-43EB-4C51-877F-34011B5AD0E7";
paths = (
{
closed = 1;
nodes = (
"207 -3 OFFCURVE",
"249 29 OFFCURVE",
"278 91 CURVE SMOOTH",
"303 143 OFFCURVE",
"316 213 OFFCURVE",
"316 287 CURVE SMOOTH",
"316 373 OFFCURVE",
"300 452 OFFCURVE",
"272 508 CURVE SMOOTH",
"243 565 OFFCURVE",
"201 597 OFFCURVE",
"156 597 CURVE SMOOTH",
"133 597 OFFCURVE",
"111 589 OFFCURVE",
"92 573 CURVE SMOOTH",
"73 558 OFFCURVE",
"56 537 OFFCURVE",
"43 509 CURVE SMOOTH",
"15 453 OFFCURVE",
"0 374 OFFCURVE",
"0 287 CURVE SMOOTH",
"0 87 OFFCURVE",
"78 -3 OFFCURVE",
"156 -3 CURVE SMOOTH"
);
},
{
closed = 1;
nodes = (
"178 555 OFFCURVE",
"201 531 OFFCURVE",
"217 488 CURVE SMOOTH",
"243 425 OFFCURVE",
"248 344 OFFCURVE",
"248 287 CURVE SMOOTH",
"248 183 OFFCURVE",
"230 122 OFFCURVE",
"214 90 CURVE SMOOTH",
"195 49 OFFCURVE",
"171 34 OFFCURVE",
"156 34 CURVE SMOOTH",
"134 34 OFFCURVE",
"113 57 OFFCURVE",
"97 96 CURVE SMOOTH",
"84 129 OFFCURVE",
"68 189 OFFCURVE",
"68 287 CURVE SMOOTH",
"68 392 OFFCURVE",
"84 455 OFFCURVE",
"97 489 CURVE SMOOTH",
"113 531 OFFCURVE",
"134 555 OFFCURVE",
"156 555 CURVE SMOOTH"
);
}
);
width = 316;
}
);
leftKerningGroup = O;
note = O;
rightKerningGroup = O;
unicode = 004F;
},
{
glyphname = P;
layers = (
{
hints = (
{
horizontal = 1;
place = "{-5, 39}";
type = Stem;
},
{
horizontal = 1;
place = "{214, 39}";
type = Stem;
},
{
horizontal = 1;
place = "{630, 33}";
type = Stem;
},
{
place = "{38, 69}";
type = Stem;
},
{
place = "{211, 66}";
type = Stem;
}
);
layerId = "8AA200AC-43EB-4C51-877F-34011B5AD0E7";
paths = (
{
closed = 1;
nodes = (
"-15 -6 LINE",
"-9 -5 LINE SMOOTH",
"-8 -5 OFFCURVE",
"41 4 OFFCURVE",
"72 4 CURVE SMOOTH",
"105 4 OFFCURVE",
"154 -5 OFFCURVE",
"155 -5 CURVE SMOOTH",
"160 -6 LINE",
"160 34 LINE",
"156 34 LINE",
"156 34 OFFCURVE",
"144 35 OFFCURVE",
"132 37 CURVE SMOOTH",
"111 41 OFFCURVE",
"108 45 OFFCURVE",
"107 46 CURVE",
"107 214 LINE",
"154 216 OFFCURVE",
"195 236 OFFCURVE",
"225 272 CURVE SMOOTH",
"259 313 OFFCURVE",
"277 374 OFFCURVE",
"277 448 CURVE SMOOTH",
"277 595 OFFCURVE",
"252 661 OFFCURVE",
"103 663 CURVE SMOOTH",
"102 663 LINE",
"102 663 LINE",
"102 663 OFFCURVE",
"75 661 OFFCURVE",
"67 661 CURVE SMOOTH",
"42 661 OFFCURVE",
"-2 668 OFFCURVE",
"-3 668 CURVE SMOOTH",
"-9 669 LINE",
"-9 630 LINE",
"-4 630 LINE",
"-4 630 OFFCURVE",
"7 629 OFFCURVE",
"18 627 CURVE SMOOTH",
"34 624 OFFCURVE",
"38 620 OFFCURVE",
"38 619 CURVE SMOOTH",
"38 46 LINE SMOOTH",
"38 45 OFFCURVE",
"34 41 OFFCURVE",
"15 37 CURVE SMOOTH",
"2 35 OFFCURVE",
"-10 34 OFFCURVE",
"-10 34 CURVE",
"-15 34 LINE"
);
},
{
closed = 1;
nodes = (
"107 630 LINE",
"155 629 OFFCURVE",
"179 618 OFFCURVE",
"193 593 CURVE SMOOTH",
"205 573 OFFCURVE",
"211 542 OFFCURVE",
"211 448 CURVE SMOOTH",
"211 393 OFFCURVE",
"204 348 OFFCURVE",
"190 316 CURVE SMOOTH",
"182 297 OFFCURVE",
"170 282 OFFCURVE",
"157 271 CURVE SMOOTH",
"143 261 OFFCURVE",
"127 255 OFFCURVE",
"107 253 CURVE"
);
}
);
width = 287;
}
);
note = P;
unicode = 0050;
},
{
glyphname = Q;
layers = (
{
hints = (
{
horizontal = 1;
place = "{-3, 37}";
type = Stem;
},
{
horizontal = 1;
place = "{583, 41}";
type = Stem;
},
{
place = "{0, 68}";
type = Stem;
},
{
place = "{248, 68}";
type = Stem;
},
{
horizontal = 1;
place = "{-70, 38}";
type = Stem;
}
);
layerId = "8AA200AC-43EB-4C51-877F-34011B5AD0E7";
paths = (
{
closed = 1;
nodes = (
"346 -70 LINE",
"346 -32 LINE",
"319 -32 LINE SMOOTH",
"272 -32 OFFCURVE",
"237 -15 OFFCURVE",
"203 2 CURVE SMOOTH",
"201 3 LINE",
"196 5 LINE",
"229 18 OFFCURVE",
"256 46 OFFCURVE",
"277 87 CURVE SMOOTH",
"303 138 OFFCURVE",
"316 206 OFFCURVE",
"316 287 CURVE SMOOTH",
"316 378 OFFCURVE",
"300 462 OFFCURVE",
"271 525 CURVE SMOOTH",
"241 589 OFFCURVE",
"200 624 OFFCURVE",
"156 624 CURVE SMOOTH",
"113 624 OFFCURVE",
"73 589 OFFCURVE",
"44 525 CURVE SMOOTH",
"16 462 OFFCURVE",
"0 378 OFFCURVE",
"0 287 CURVE SMOOTH",
"0 174 OFFCURVE",
"27 83 OFFCURVE",
"74 34 CURVE",
"16 34 LINE",
"16 -3 LINE",
"21 -3 LINE SMOOTH",
"64 -3 OFFCURVE",
"118 -20 OFFCURVE",
"169 -37 CURVE SMOOTH",
"221 -54 OFFCURVE",
"269 -70 OFFCURVE",
"310 -70 CURVE SMOOTH"
);
},
{
closed = 1;
nodes = (
"177 583 OFFCURVE",
"200 553 OFFCURVE",
"217 503 CURVE SMOOTH",
"237 447 OFFCURVE",
"248 370 OFFCURVE",
"248 287 CURVE SMOOTH",
"248 183 OFFCURVE",
"230 122 OFFCURVE",
"214 90 CURVE SMOOTH",
"201 63 OFFCURVE",
"179 34 OFFCURVE",
"156 34 CURVE SMOOTH",
"134 34 OFFCURVE",
"113 57 OFFCURVE",
"97 97 CURVE SMOOTH",
"84 129 OFFCURVE",
"68 189 OFFCURVE",
"68 287 CURVE SMOOTH",
"68 370 OFFCURVE",
"78 447 OFFCURVE",
"97 504 CURVE SMOOTH",
"114 553 OFFCURVE",
"136 583 OFFCURVE",
"156 583 CURVE SMOOTH"
);
}
);
width = 311;
}
);
leftKerningGroup = O;
note = Q;
rightKerningGroup = O;
unicode = 0051;
},
{
glyphname = R;
layers = (
{
hints = (
{
horizontal = 1;
place = "{-75, 31}";
type = Stem;
},
{
horizontal = 1;
place = "{-5, 39}";
type = Stem;
},
{
horizontal = 1;
place = "{584, 33}";
type = Stem;
},
{
place = "{36, 68}";
type = Stem;
},
{
place = "{208, 66}";
type = Stem;
},
{
place = "{179, 168}";
type = Stem;
},
{
horizontal = 1;
place = "{170, 42}";
type = Stem;
}
);
layerId = "8AA200AC-43EB-4C51-877F-34011B5AD0E7";
paths = (
{
closed = 1;
nodes = (
"179 -84 LINE",
"185 -83 LINE",
"185 -83 OFFCURVE",
"233 -75 OFFCURVE",
"263 -75 CURVE SMOOTH",
"293 -75 OFFCURVE",
"341 -83 OFFCURVE",
"341 -83 CURVE",
"347 -84 LINE",
"347 -44 LINE",
"342 -44 LINE",
"342 -44 OFFCURVE",
"328 -43 OFFCURVE",
"314 -41 CURVE SMOOTH",
"290 -37 OFFCURVE",
"284 -34 OFFCURVE",
"282 -33 CURVE",
"181 188 LINE",
"209 202 OFFCURVE",
"233 231 OFFCURVE",
"250 272 CURVE SMOOTH",
"266 312 OFFCURVE",
"274 360 OFFCURVE",
"274 412 CURVE SMOOTH",
"274 483 OFFCURVE",
"269 536 OFFCURVE",
"243 570 CURVE SMOOTH",
"218 602 OFFCURVE",
"175 616 OFFCURVE",
"99 617 CURVE",
"99 617 LINE",
"99 617 LINE",
"98 617 OFFCURVE",
"73 615 OFFCURVE",
"65 615 CURVE SMOOTH",
"39 615 OFFCURVE",
"-5 622 OFFCURVE",
"-5 622 CURVE",
"-11 623 LINE",
"-11 585 LINE",
"-6 585 LINE SMOOTH",
"12 584 OFFCURVE",
"33 579 OFFCURVE",
"36 573 CURVE",
"36 46 LINE",
"35 45 OFFCURVE",
"31 41 OFFCURVE",
"12 37 CURVE SMOOTH",
"0 35 OFFCURVE",
"-12 34 OFFCURVE",
"-12 34 CURVE",
"-17 34 LINE",
"-17 -6 LINE",
"-11 -5 LINE",
"-11 -5 OFFCURVE",
"39 4 OFFCURVE",
"70 4 CURVE SMOOTH",
"101 4 OFFCURVE",
"151 -5 OFFCURVE",
"151 -5 CURVE",
"157 -6 LINE",
"157 34 LINE",
"152 34 LINE",
"152 34 OFFCURVE",
"140 35 OFFCURVE",
"128 37 CURVE SMOOTH",
"109 41 OFFCURVE",
"105 45 OFFCURVE",
"104 46 CURVE",
"104 170 LINE",
"109 170 OFFCURVE",
"115 171 OFFCURVE",
"120 172 CURVE",
"215 -40 LINE",
"205 -43 OFFCURVE",
"190 -44 OFFCURVE",
"184 -44 CURVE SMOOTH",
"179 -44 LINE"
);
},
{
closed = 1;
nodes = (
"104 584 LINE",
"154 583 OFFCURVE",
"177 574 OFFCURVE",
"191 551 CURVE SMOOTH",
"205 527 OFFCURVE",
"208 485 OFFCURVE",
"208 412 CURVE SMOOTH",
"208 359 OFFCURVE",
"200 313 OFFCURVE",
"185 277 CURVE SMOOTH",
"169 240 OFFCURVE",
"147 218 OFFCURVE",
"119 212 CURVE",
"115 212 OFFCURVE",
"108 211 OFFCURVE",
"104 210 CURVE"
);
}
);
width = 277;
}
);
note = R;
unicode = 0052;
},
{
glyphname = S;
layers = (
{
hints = (
{
horizontal = 1;
place = "{-3, 37}";
type = Stem;
},
{
horizontal = 1;
place = "{585, 38}";
type = Stem;
},
{
place = "{16, 32}";
type = Stem;
},
{
place = "{178, 33}";
type = Stem;
},
{
place = "{30, 54}";
type = Stem;
},
{
place = "{172, 72}";
type = Stem;
}
);
layerId = "8AA200AC-43EB-4C51-877F-34011B5AD0E7";
paths = (
{
closed = 1;
nodes = (
"145 -3 OFFCURVE",
"178 11 OFFCURVE",
"202 35 CURVE SMOOTH",
"229 62 OFFCURVE",
"244 100 OFFCURVE",
"244 141 CURVE SMOOTH",
"244 233 OFFCURVE",
"196 290 OFFCURVE",
"153 341 CURVE SMOOTH",
"150 344 LINE SMOOTH",
"115 385 OFFCURVE",
"87 447 OFFCURVE",
"84 489 CURVE SMOOTH",
"81 529 OFFCURVE",
"87 560 OFFCURVE",
"101 576 CURVE SMOOTH",
"107 582 OFFCURVE",
"115 585 OFFCURVE",
"124 585 CURVE SMOOTH",
"135 585 OFFCURVE",
"144 581 OFFCURVE",
"152 572 CURVE SMOOTH",
"187 535 OFFCURVE",
"178 429 OFFCURVE",
"178 428 CURVE SMOOTH",
"177 422 LINE",
"216 422 LINE",
"216 427 LINE SMOOTH",
"216 428 OFFCURVE",
"211 496 OFFCURVE",
"211 542 CURVE SMOOTH",
"211 588 OFFCURVE",
"216 648 OFFCURVE",
"216 649 CURVE SMOOTH",
"216 654 LINE",
"178 654 LINE",
"178 603 LINE",
"164 617 OFFCURVE",
"146 623 OFFCURVE",
"124 623 CURVE SMOOTH",
"107 623 OFFCURVE",
"83 619 OFFCURVE",
"63 599 CURVE SMOOTH",
"41 577 OFFCURVE",
"30 540 OFFCURVE",
"30 489 CURVE SMOOTH",
"30 417 OFFCURVE",
"70 335 OFFCURVE",
"105 287 CURVE SMOOTH",
"138 242 OFFCURVE",
"172 195 OFFCURVE",
"172 137 CURVE SMOOTH",
"172 66 OFFCURVE",
"154 34 OFFCURVE",
"113 34 CURVE SMOOTH",
"73 34 OFFCURVE",
"48 80 OFFCURVE",
"48 153 CURVE SMOOTH",
"48 238 LINE",
"9 238 LINE",
"10 233 LINE SMOOTH",
"10 232 OFFCURVE",
"16 163 OFFCURVE",
"16 117 CURVE SMOOTH",
"16 71 OFFCURVE",
"10 3 OFFCURVE",
"10 3 CURVE",
"9 -3 LINE",
"48 -3 LINE",
"48 22 LINE",
"63 5 OFFCURVE",
"85 -3 OFFCURVE",
"112 -3 CURVE SMOOTH"
);
}
);
width = 240;
}
);
leftKerningGroup = S;
note = S;
rightKerningGroup = S;
unicode = 0053;
},
{
glyphname = T;
layers = (
{
hints = (
{
horizontal = 1;
place = "{1, 31}";
type = Stem;
},
{
horizontal = 1;
place = "{515, 43}";
type = Stem;
},
{
place = "{2, 32}";
type = Stem;
},
{
place = "{117, 68}";
type = Stem;
},
{
place = "{267, 33}";
type = Stem;
},
{
horizontal = 1;
place = "{-6, 21}";
target = up;
type = BottomGhost;
}
);
layerId = "8AA200AC-43EB-4C51-877F-34011B5AD0E7";
paths = (
{
closed = 1;
nodes = (
"64 -7 LINE",
"70 -6 LINE SMOOTH",
"71 -6 OFFCURVE",
"121 1 OFFCURVE",
"151 1 CURVE SMOOTH",
"182 1 OFFCURVE",
"232 -6 OFFCURVE",
"233 -6 CURVE SMOOTH",
"238 -7 LINE",
"238 32 LINE",
"234 32 LINE",
"234 32 OFFCURVE",
"222 33 OFFCURVE",
"210 35 CURVE SMOOTH",
"189 39 OFFCURVE",
"186 43 OFFCURVE",
"185 44 CURVE",
"185 515 LINE",
"257 515 LINE",
"265 513 OFFCURVE",
"267 499 OFFCURVE",
"267 461 CURVE SMOOTH",
"267 456 LINE",
"308 456 LINE",
"306 462 LINE",
"306 462 OFFCURVE",
"300 492 OFFCURVE",
"300 518 CURVE SMOOTH",
"300 544 OFFCURVE",
"306 586 OFFCURVE",
"306 586 CURVE",
"307 592 LINE",
"267 592 LINE",
"267 587 LINE SMOOTH",
"267 580 OFFCURVE",
"265 561 OFFCURVE",
"257 558 CURVE",
"46 558 LINE",
"37 561 OFFCURVE",
"35 581 OFFCURVE",
"34 587 CURVE SMOOTH",
"34 592 LINE",
"-4 592 LINE",
"-4 586 LINE",
"-3 586 OFFCURVE",
"2 544 OFFCURVE",
"2 518 CURVE SMOOTH",
"2 492 OFFCURVE",
"-3 462 OFFCURVE",
"-3 462 CURVE",
"-5 456 LINE",
"34 456 LINE",
"34 461 LINE SMOOTH",
"34 503 OFFCURVE",
"39 513 OFFCURVE",
"46 515 CURVE",
"117 515 LINE",
"117 43 LINE SMOOTH",
"117 42 OFFCURVE",
"112 39 OFFCURVE",
"93 35 CURVE SMOOTH",
"81 33 OFFCURVE",
"69 32 OFFCURVE",
"69 32 CURVE",
"64 32 LINE"
);
}
);
width = 301;
}
);
note = T;
unicode = 0054;
},
{
glyphname = U;
layers = (
{
hints = (
{
horizontal = 1;
place = "{-4, 38}";
type = Stem;
},
{
horizontal = 1;
place = "{557, 31}";
type = Stem;
},
{
horizontal = 1;
place = "{627, 31}";
type = Stem;
},
{
place = "{37, 68}";
type = Stem;
},
{
place = "{212, 45}";
type = Stem;
}
);
layerId = "8AA200AC-43EB-4C51-877F-34011B5AD0E7";
paths = (
{
closed = 1;
nodes = (
"194 -4 OFFCURVE",
"223 13 OFFCURVE",
"240 48 CURVE SMOOTH",
"248 65 OFFCURVE",
"257 93 OFFCURVE",
"257 159 CURVE SMOOTH",
"257 614 LINE",
"258 616 OFFCURVE",
"262 619 OFFCURVE",
"281 623 CURVE SMOOTH",
"294 626 OFFCURVE",
"306 627 OFFCURVE",
"306 627 CURVE",
"311 627 LINE",
"311 666 LINE",
"305 665 LINE SMOOTH",
"304 665 OFFCURVE",
"261 658 OFFCURVE",
"235 658 CURVE SMOOTH",
"208 658 OFFCURVE",
"165 665 OFFCURVE",
"164 665 CURVE SMOOTH",
"158 666 LINE",
"158 626 LINE",
"163 626 LINE",
"163 626 OFFCURVE",
"175 625 OFFCURVE",
"188 623 CURVE SMOOTH",
"207 619 OFFCURVE",
"211 615 OFFCURVE",
"212 614 CURVE",
"212 159 LINE SMOOTH",
"212 115 OFFCURVE",
"206 84 OFFCURVE",
"196 63 CURVE SMOOTH",
"186 43 OFFCURVE",
"172 34 OFFCURVE",
"152 34 CURVE SMOOTH",
"111 34 OFFCURVE",
"105 112 OFFCURVE",
"105 159 CURVE SMOOTH",
"105 545 LINE",
"106 547 OFFCURVE",
"112 550 OFFCURVE",
"126 553 CURVE SMOOTH",
"137 556 OFFCURVE",
"148 557 OFFCURVE",
"148 557 CURVE",
"152 557 LINE",
"152 597 LINE",
"147 595 LINE",
"146 595 OFFCURVE",
"104 588 OFFCURVE",
"76 588 CURVE SMOOTH",
"48 588 OFFCURVE",
"-3 594 OFFCURVE",
"-4 594 CURVE SMOOTH",
"-10 595 LINE",
"-10 557 LINE",
"-5 557 LINE",
"-5 557 OFFCURVE",
"5 556 OFFCURVE",
"16 554 CURVE SMOOTH",
"31 551 OFFCURVE",
"35 547 OFFCURVE",
"37 546 CURVE",
"37 159 LINE SMOOTH",
"37 94 OFFCURVE",
"45 67 OFFCURVE",
"54 50 CURVE SMOOTH",
"63 33 OFFCURVE",
"74 20 OFFCURVE",
"89 11 CURVE SMOOTH",
"106 1 OFFCURVE",
"127 -4 OFFCURVE",
"152 -4 CURVE SMOOTH"
);
}
);
width = 281;
}
);
leftKerningGroup = U;
note = U;
rightKerningGroup = U;
unicode = 0055;
},
{
glyphname = V;
layers = (
{
hints = (
{
horizontal = 1;
place = "{-39, 31}";
type = Stem;
},
{
horizontal = 1;
place = "{555, 32}";
type = Stem;
},
{
horizontal = 1;
place = "{629, 30}";
type = Stem;
},
{
place = "{-57, 168}";
type = Stem;
},
{
place = "{199, 140}";
type = Stem;
},
{
place = "{46, 175}";
type = Stem;
}
);
layerId = "8AA200AC-43EB-4C51-877F-34011B5AD0E7";
paths = (
{
closed = 1;
nodes = (
"46 -48 LINE",
"52 -47 LINE",
"52 -47 OFFCURVE",
"102 -39 OFFCURVE",
"134 -39 CURVE SMOOTH",
"165 -39 OFFCURVE",
"215 -47 OFFCURVE",
"215 -47 CURVE",
"221 -48 LINE",
"221 -8 LINE",
"216 -8 LINE SMOOTH",
"196 -6 OFFCURVE",
"178 -2 OFFCURVE",
"174 3 CURVE",
"286 595 LINE",
"287 595 LINE",
"291 616 LINE",
"291 616 LINE",
"291 616 OFFCURVE",
"292 621 OFFCURVE",
"312 626 CURVE SMOOTH",
"323 628 OFFCURVE",
"334 629 OFFCURVE",
"334 629 CURVE",
"339 630 LINE",
"339 669 LINE",
"333 668 LINE SMOOTH",
"332 668 OFFCURVE",
"293 659 OFFCURVE",
"270 659 CURVE SMOOTH",
"246 659 OFFCURVE",
"205 666 OFFCURVE",
"205 666 CURVE",
"199 667 LINE",
"199 629 LINE",
"211 629 LINE SMOOTH",
"224 629 OFFCURVE",
"246 625 OFFCURVE",
"251 618 CURVE",
"150 84 LINE",
"63 544 LINE",
"65 546 OFFCURVE",
"69 549 OFFCURVE",
"84 552 CURVE SMOOTH",
"95 554 OFFCURVE",
"106 555 OFFCURVE",
"106 555 CURVE",
"111 556 LINE",
"111 596 LINE",
"105 595 LINE",
"105 595 OFFCURVE",
"57 587 OFFCURVE",
"27 587 CURVE SMOOTH",
"-3 587 OFFCURVE",
"-51 595 OFFCURVE",
"-51 595 CURVE",
"-57 596 LINE",
"-57 557 LINE",
"-52 556 LINE",
"-52 556 OFFCURVE",
"-41 555 OFFCURVE",
"-29 553 CURVE SMOOTH",
"-8 549 OFFCURVE",
"-6 544 OFFCURVE",
"-6 544 CURVE",
"96 3 LINE",
"94 2 OFFCURVE",
"90 -2 OFFCURVE",
"73 -5 CURVE SMOOTH",
"62 -7 OFFCURVE",
"51 -8 OFFCURVE",
"51 -8 CURVE",
"46 -8 LINE"
);
}
);
width = 265;
}
);
note = V;
unicode = 0056;
},
{
glyphname = W;
layers = (
{
hints = (
{
horizontal = 1;
place = "{-76, 31}";
type = Stem;
},
{
horizontal = 1;
place = "{-5, 39}";
type = Stem;
},
{
horizontal = 1;
place = "{510, 31}";
type = Stem;
},
{
horizontal = 1;
place = "{629, 30}";
type = Stem;
},
{
place = "{-5, 168}";
type = Stem;
},
{
place = "{357, 7}";
type = Stem;
},
{
place = "{464, 140}";
type = Stem;
},
{
place = "{313, 175}";
type = Stem;
},
{
horizontal = 1;
place = "{554, 31}";
type = Stem;
},
{
place = "{102, 175}";
type = Stem;
}
);
layerId = "8AA200AC-43EB-4C51-877F-34011B5AD0E7";
paths = (
{
closed = 1;
nodes = (
"313 -85 LINE",
"319 -84 LINE SMOOTH",
"320 -84 OFFCURVE",
"369 -76 OFFCURVE",
"400 -76 CURVE SMOOTH",
"433 -76 OFFCURVE",
"482 -84 OFFCURVE",
"483 -84 CURVE SMOOTH",
"488 -85 LINE",
"488 -45 LINE",
"484 -45 LINE SMOOTH",
"466 -44 OFFCURVE",
"445 -40 OFFCURVE",
"442 -34 CURVE",
"555 616 LINE",
"556 618 OFFCURVE",
"560 622 OFFCURVE",
"577 626 CURVE SMOOTH",
"588 628 OFFCURVE",
"600 629 OFFCURVE",
"600 629 CURVE",
"604 629 LINE",
"604 669 LINE",
"598 668 LINE",
"598 668 OFFCURVE",
"558 659 OFFCURVE",
"535 659 CURVE SMOOTH",
"511 659 OFFCURVE",
"471 666 OFFCURVE",
"470 666 CURVE SMOOTH",
"464 667 LINE",
"464 630 LINE",
"469 629 LINE SMOOTH",
"486 627 OFFCURVE",
"505 623 OFFCURVE",
"509 618 CURVE",
"412 54 LINE",
"338 509 LINE",
"347 510 OFFCURVE",
"358 510 OFFCURVE",
"359 510 CURVE SMOOTH",
"364 510 LINE",
"364 551 LINE",
"357 550 LINE",
"357 550 OFFCURVE",
"318 541 OFFCURVE",
"294 541 CURVE SMOOTH",
"270 541 OFFCURVE",
"230 548 OFFCURVE",
"229 548 CURVE SMOOTH",
"223 549 LINE",
"223 510 LINE",
"228 510 LINE",
"228 510 OFFCURVE",
"240 509 OFFCURVE",
"252 507 CURVE SMOOTH",
"269 504 OFFCURVE",
"274 500 OFFCURVE",
"275 499 CURVE",
"205 126 LINE",
"116 543 LINE",
"119 548 OFFCURVE",
"138 553 OFFCURVE",
"158 555 CURVE SMOOTH",
"163 556 LINE",
"163 595 LINE",
"158 594 LINE SMOOTH",
"157 594 OFFCURVE",
"109 585 OFFCURVE",
"78 585 CURVE SMOOTH",
"48 585 OFFCURVE",
"1 594 OFFCURVE",
"0 594 CURVE SMOOTH",
"-5 595 LINE",
"-5 554 LINE",
"-1 554 LINE",
"-1 554 OFFCURVE",
"11 553 OFFCURVE",
"24 551 CURVE SMOOTH",
"42 548 OFFCURVE",
"46 544 OFFCURVE",
"47 542 CURVE",
"47 542 LINE",
"153 45 LINE",
"152 44 OFFCURVE",
"147 40 OFFCURVE",
"130 37 CURVE SMOOTH",
"119 35 OFFCURVE",
"107 34 OFFCURVE",
"107 34 CURVE",
"102 34 LINE",
"102 -6 LINE",
"108 -5 LINE SMOOTH",
"109 -5 OFFCURVE",
"158 4 OFFCURVE",
"190 4 CURVE SMOOTH",
"222 4 OFFCURVE",
"271 -5 OFFCURVE",
"272 -5 CURVE SMOOTH",
"277 -6 LINE",
"277 34 LINE",
"273 34 LINE",
"273 34 OFFCURVE",
"262 35 OFFCURVE",
"252 37 CURVE SMOOTH",
"238 40 OFFCURVE",
"233 44 OFFCURVE",
"232 46 CURVE",
"293 377 LINE",
"364 -33 LINE",
"363 -35 OFFCURVE",
"359 -38 OFFCURVE",
"342 -41 CURVE SMOOTH",
"330 -44 OFFCURVE",
"318 -45 OFFCURVE",
"318 -45 CURVE",
"313 -45 LINE"
);
}
);
width = 530;
}
);
note = W;
unicode = 0057;
},
{
glyphname = X;
layers = (
{
hints = (
{
horizontal = 1;
place = "{-4, 21}";
target = up;
type = BottomGhost;
},
{
horizontal = 1;
place = "{555, 40}";
type = Stem;
},
{
horizontal = 1;
place = "{629, 30}";
type = Stem;
},
{
place = "{-2, 140}";
type = Stem;
},
{
place = "{201, 140}";
type = Stem;
},
{
horizontal = 1;
place = "{-62, 30}";
type = Stem;
},
{
place = "{184, 174}";
type = Stem;
},
{
place = "{-13, 162}";
type = Stem;
},
{
horizontal = 1;
place = "{556, 30}";
type = Stem;
},
{
horizontal = 1;
place = "{-3, 37}";
type = Stem;
}
);
layerId = "8AA200AC-43EB-4C51-877F-34011B5AD0E7";
paths = (
{
closed = 1;
nodes = (
"184 -72 LINE",
"190 -71 LINE",
"190 -71 OFFCURVE",
"239 -62 OFFCURVE",
"271 -62 CURVE SMOOTH",
"302 -62 OFFCURVE",
"352 -71 OFFCURVE",
"352 -71 CURVE",
"358 -72 LINE",
"358 -33 LINE",
"353 -32 LINE",
"353 -32 OFFCURVE",
"339 -31 OFFCURVE",
"325 -28 CURVE SMOOTH",
"299 -23 OFFCURVE",
"295 -19 OFFCURVE",
"295 -18 CURVE",
"188 316 LINE",
"288 618 LINE",
"292 622 OFFCURVE",
"314 627 OFFCURVE",
"336 629 CURVE SMOOTH",
"341 629 LINE",
"341 669 LINE",
"335 668 LINE",
"335 668 OFFCURVE",
"295 659 OFFCURVE",
"272 659 CURVE SMOOTH",
"248 659 OFFCURVE",
"207 666 OFFCURVE",
"207 666 CURVE",
"201 667 LINE",
"201 629 LINE",
"206 629 LINE",
"206 629 OFFCURVE",
"216 628 OFFCURVE",
"227 626 CURVE SMOOTH",
"241 623 OFFCURVE",
"246 620 OFFCURVE",
"248 618 CURVE",
"167 378 LINE",
"112 546 LINE",
"117 553 OFFCURVE",
"135 555 OFFCURVE",
"144 555 CURVE SMOOTH",
"149 555 LINE",
"149 596 LINE",
"143 595 LINE SMOOTH",
"142 595 OFFCURVE",
"100 586 OFFCURVE",
"72 586 CURVE SMOOTH",
"45 586 OFFCURVE",
"-7 593 OFFCURVE",
"-7 593 CURVE",
"-13 594 LINE",
"-13 557 LINE",
"-9 556 LINE",
"-9 556 OFFCURVE",
"4 555 OFFCURVE",
"17 552 CURVE SMOOTH",
"41 547 OFFCURVE",
"44 543 OFFCURVE",
"44 542 CURVE",
"132 274 LINE",
"51 45 LINE",
"48 41 OFFCURVE",
"26 36 OFFCURVE",
"3 34 CURVE SMOOTH",
"-2 34 LINE",
"-2 -6 LINE",
"4 -5 LINE",
"4 -5 OFFCURVE",
"45 3 OFFCURVE",
"68 3 CURVE SMOOTH",
"91 3 OFFCURVE",
"132 -3 OFFCURVE",
"132 -3 CURVE",
"138 -4 LINE",
"138 34 LINE",
"133 34 LINE",
"133 34 OFFCURVE",
"123 35 OFFCURVE",
"113 37 CURVE SMOOTH",
"100 39 OFFCURVE",
"94 42 OFFCURVE",
"93 45 CURVE",
"152 212 LINE",
"227 -22 LINE",
"222 -27 OFFCURVE",
"204 -31 OFFCURVE",
"189 -32 CURVE SMOOTH",
"184 -32 LINE"
);
}
);
width = 351;
}
);
note = X;
unicode = 0058;
},
{
glyphname = Y;
layers = (
{
hints = (
{
horizontal = 1;
place = "{-6, 39}";
type = Stem;
},
{
horizontal = 1;
place = "{555, 40}";
type = Stem;
},
{
horizontal = 1;
place = "{629, 30}";
type = Stem;
},
{
place = "{52, 69}";
type = Stem;
},
{
place = "{-80, 162}";
type = Stem;
},
{
place = "{138, 140}";
type = Stem;
},
{
horizontal = 1;
place = "{556, 30}";
type = Stem;
}
);
layerId = "8AA200AC-43EB-4C51-877F-34011B5AD0E7";
paths = (
{
closed = 1;
nodes = (
"-1 -7 LINE",
"5 -6 LINE",
"5 -6 OFFCURVE",
"55 2 OFFCURVE",
"86 2 CURVE SMOOTH",
"118 2 OFFCURVE",
"168 -6 OFFCURVE",
"168 -6 CURVE",
"174 -7 LINE",
"174 33 LINE",
"169 33 LINE",
"169 33 OFFCURVE",
"157 34 OFFCURVE",
"145 36 CURVE SMOOTH",
"125 40 OFFCURVE",
"121 44 OFFCURVE",
"121 45 CURVE SMOOTH",
"121 315 LINE",
"225 618 LINE",
"226 619 OFFCURVE",
"230 622 OFFCURVE",
"250 626 CURVE SMOOTH",
"262 628 OFFCURVE",
"273 629 OFFCURVE",
"273 629 CURVE",
"278 630 LINE",
"278 669 LINE",
"272 668 LINE SMOOTH",
"271 668 OFFCURVE",
"231 659 OFFCURVE",
"208 659 CURVE SMOOTH",
"185 659 OFFCURVE",
"144 666 OFFCURVE",
"144 666 CURVE",
"138 667 LINE",
"138 629 LINE",
"142 629 LINE SMOOTH",
"143 629 OFFCURVE",
"153 628 OFFCURVE",
"163 626 CURVE SMOOTH",
"176 624 OFFCURVE",
"182 621 OFFCURVE",
"183 619 CURVE",
"101 378 LINE",
"45 546 LINE",
"50 553 OFFCURVE",
"68 555 OFFCURVE",
"77 555 CURVE SMOOTH",
"82 555 LINE",
"82 596 LINE",
"76 595 LINE SMOOTH",
"75 595 OFFCURVE",
"33 586 OFFCURVE",
"6 586 CURVE SMOOTH",
"-22 586 OFFCURVE",
"-74 593 OFFCURVE",
"-74 593 CURVE",
"-80 594 LINE",
"-80 557 LINE",
"-76 556 LINE SMOOTH",
"-75 556 OFFCURVE",
"-63 555 OFFCURVE",
"-50 552 CURVE SMOOTH",
"-26 547 OFFCURVE",
"-23 543 OFFCURVE",
"-23 542 CURVE",
"52 314 LINE",
"52 45 LINE",
"51 44 OFFCURVE",
"47 40 OFFCURVE",
"28 36 CURVE SMOOTH",
"16 34 OFFCURVE",
"4 33 OFFCURVE",
"3 33 CURVE SMOOTH",
"-1 33 LINE"
);
}
);
width = 203;
}
);
leftKerningGroup = Y;
note = Y;
rightKerningGroup = Y;
unicode = 0059;
},
{
glyphname = Z;
layers = (
{
hints = (
{
horizontal = 1;
place = "{-4, 45}";
type = Stem;
},
{
horizontal = 1;
place = "{553, 37}";
type = Stem;
},
{
place = "{38, 36}";
type = Stem;
},
{
place = "{266, 32}";
type = Stem;
},
{
horizontal = 1;
place = "{3, 38}";
type = Stem;
}
);
layerId = "8AA200AC-43EB-4C51-877F-34011B5AD0E7";
paths = (
{
closed = 1;
nodes = (
"304 -22 LINE",
"303 -17 LINE SMOOTH",
"303 -16 OFFCURVE",
"298 51 OFFCURVE",
"298 97 CURVE SMOOTH",
"298 144 OFFCURVE",
"302 202 OFFCURVE",
"302 205 CURVE SMOOTH",
"304 218 LINE",
"266 218 LINE",
"266 41 LINE",
"129 41 LINE",
"298 553 LINE",
"301 558 OFFCURVE",
"313 559 OFFCURVE",
"319 559 CURVE SMOOTH",
"324 559 LINE",
"324 598 LINE",
"318 598 LINE",
"317 597 OFFCURVE",
"232 590 OFFCURVE",
"180 590 CURVE SMOOTH",
"147 590 OFFCURVE",
"111 593 OFFCURVE",
"87 595 CURVE SMOOTH",
"82 596 OFFCURVE",
"78 596 OFFCURVE",
"74 596 CURVE",
"74 622 LINE",
"31 622 LINE",
"32 617 LINE SMOOTH",
"32 616 OFFCURVE",
"38 536 OFFCURVE",
"38 490 CURVE SMOOTH",
"38 442 OFFCURVE",
"32 375 OFFCURVE",
"32 374 CURVE SMOOTH",
"31 369 LINE",
"74 369 LINE",
"74 553 LINE",
"229 553 LINE",
"61 47 LINE",
"60 46 LINE",
"60 46 OFFCURVE",
"59 42 OFFCURVE",
"38 37 CURVE SMOOTH",
"26 34 OFFCURVE",
"14 33 OFFCURVE",
"14 33 CURVE",
"10 33 LINE",
"10 -5 LINE",
"15 -4 LINE SMOOTH",
"16 -4 OFFCURVE",
"93 3 OFFCURVE",
"149 3 CURVE SMOOTH",
"192 3 OFFCURVE",
"245 -1 OFFCURVE",
"266 -3 CURVE",
"266 -22 LINE"
);
}
);
width = 334;
}
);
leftKerningGroup = Z;
note = Z;
rightKerningGroup = Z;
unicode = 005A;
},
{
glyphname = a;
layers = (
{
hints = (
{
horizontal = 1;
place = "{-5, 40}";
type = Stem;
},
{
horizontal = 1;
place = "{235, 40}";
type = Stem;
},
{
horizontal = 1;
place = "{377, 41}";
type = Stem;
},
{
place = "{0, 61}";
type = Stem;
},
{
place = "{158, 72}";
type = Stem;
},
{
horizontal = 1;
place = "{-38, 31}";
type = Stem;
},
{
place = "{244, 7}";
type = Stem;
},
{
place = "{41, 32}";
type = Stem;
},
{
horizontal = 1;
place = "{300, 123}";
type = Stem;
}
);
layerId = "8AA200AC-43EB-4C51-877F-34011B5AD0E7";
paths = (
{
closed = 1;
nodes = (
"251 -47 LINE",
"251 -12 LINE",
"251 -7 LINE",
"246 -7 LINE SMOOTH",
"245 -7 OFFCURVE",
"233 -7 OFFCURVE",
"230 4 CURVE",
"230 228 LINE SMOOTH",
"230 286 OFFCURVE",
"229 333 OFFCURVE",
"217 366 CURVE SMOOTH",
"203 401 OFFCURVE",
"176 418 OFFCURVE",
"131 418 CURVE SMOOTH",
"108 418 OFFCURVE",
"89 410 OFFCURVE",
"73 395 CURVE",
"73 423 LINE",
"33 423 LINE",
"35 417 LINE",
"35 417 OFFCURVE",
"41 382 OFFCURVE",
"41 362 CURVE SMOOTH",
"41 342 OFFCURVE",
"35 306 OFFCURVE",
"35 306 CURVE",
"33 300 LINE",
"84 300 LINE",
"84 305 LINE SMOOTH",
"84 306 OFFCURVE",
"82 345 OFFCURVE",
"102 365 CURVE SMOOTH",
"109 373 OFFCURVE",
"119 377 OFFCURVE",
"131 377 CURVE SMOOTH",
"138 377 OFFCURVE",
"144 375 OFFCURVE",
"148 369 CURVE",
"168 347 OFFCURVE",
"165 286 OFFCURVE",
"163 266 CURVE",
"149 272 OFFCURVE",
"133 275 OFFCURVE",
"115 275 CURVE SMOOTH",
"77 275 OFFCURVE",
"48 262 OFFCURVE",
"29 236 CURVE SMOOTH",
"10 210 OFFCURVE",
"0 171 OFFCURVE",
"0 121 CURVE SMOOTH",
"0 88 OFFCURVE",
"9 57 OFFCURVE",
"25 36 CURVE SMOOTH",
"45 9 OFFCURVE",
"75 -5 OFFCURVE",
"112 -5 CURVE SMOOTH",
"130 -5 OFFCURVE",
"148 -2 OFFCURVE",
"162 4 CURVE",
"162 -45 LINE",
"169 -44 LINE",
"169 -44 OFFCURVE",
"190 -38 OFFCURVE",
"206 -38 CURVE SMOOTH",
"223 -38 OFFCURVE",
"244 -45 OFFCURVE",
"244 -45 CURVE"
);
},
{
closed = 1;
nodes = (
"129 235 OFFCURVE",
"158 235 OFFCURVE",
"158 121 CURVE SMOOTH",
"158 63 OFFCURVE",
"143 35 OFFCURVE",
"112 35 CURVE SMOOTH",
"87 35 OFFCURVE",
"61 65 OFFCURVE",
"61 121 CURVE SMOOTH",
"61 195 OFFCURVE",
"80 235 OFFCURVE",
"115 235 CURVE SMOOTH"
);
}
);
width = 240;
}
);
leftKerningGroup = a;
note = a;
rightKerningGroup = a;
unicode = 0061;
},
{
glyphname = b;
layers = (
{
hints = (
{
horizontal = 1;
place = "{-7, 45}";
type = Stem;
},
{
horizontal = 1;
place = "{378, 43}";
type = Stem;
},
{
horizontal = 1;
place = "{581, 30}";
type = Stem;
},
{
place = "{37, 70}";
type = Stem;
},
{
place = "{199, 70}";
type = Stem;
},
{
horizontal = 1;
place = "{-15, 21}";
target = up;
type = BottomGhost;
},
{
place = "{127, 7}";
type = Stem;
},
{
horizontal = 1;
place = "{-11, 21}";
target = up;
type = BottomGhost;
},
{
horizontal = 1;
place = "{1, 21}";
target = up;
type = BottomGhost;
}
);
layerId = "8AA200AC-43EB-4C51-877F-34011B5AD0E7";
paths = (
{
closed = 1;
nodes = (
"107 -15 LINE",
"107 5 LINE",
"120 -4 OFFCURVE",
"135 -7 OFFCURVE",
"154 -7 CURVE SMOOTH",
"193 -7 OFFCURVE",
"222 11 OFFCURVE",
"241 48 CURVE SMOOTH",
"260 84 OFFCURVE",
"269 137 OFFCURVE",
"269 210 CURVE SMOOTH",
"269 279 OFFCURVE",
"259 332 OFFCURVE",
"240 367 CURVE SMOOTH",
"221 403 OFFCURVE",
"192 421 OFFCURVE",
"154 421 CURVE SMOOTH",
"136 421 OFFCURVE",
"120 418 OFFCURVE",
"107 410 CURVE",
"107 569 LINE",
"109 579 OFFCURVE",
"129 581 OFFCURVE",
"129 581 CURVE",
"134 581 LINE",
"134 622 LINE",
"127 620 LINE",
"127 620 OFFCURVE",
"96 611 OFFCURVE",
"72 611 CURVE SMOOTH",
"49 611 OFFCURVE",
"17 620 OFFCURVE",
"17 620 CURVE",
"10 622 LINE",
"10 581 LINE",
"15 581 LINE",
"15 581 OFFCURVE",
"35 579 OFFCURVE",
"37 569 CURVE",
"37 42 LINE",
"35 32 OFFCURVE",
"15 30 OFFCURVE",
"15 30 CURVE",
"10 30 LINE",
"10 -12 LINE",
"17 -9 LINE",
"18 -9 OFFCURVE",
"45 1 OFFCURVE",
"62 1 CURVE SMOOTH",
"78 1 OFFCURVE",
"99 -11 OFFCURVE",
"99 -11 CURVE"
);
},
{
closed = 1;
nodes = (
"159 378 OFFCURVE",
"171 368 OFFCURVE",
"180 343 CURVE SMOOTH",
"189 321 OFFCURVE",
"199 280 OFFCURVE",
"199 210 CURVE SMOOTH",
"199 99 OFFCURVE",
"184 38 OFFCURVE",
"154 38 CURVE SMOOTH",
"143 38 OFFCURVE",
"129 42 OFFCURVE",
"120 73 CURVE SMOOTH",
"113 100 OFFCURVE",
"109 143 OFFCURVE",
"109 210 CURVE SMOOTH",
"109 265 OFFCURVE",
"114 308 OFFCURVE",
"122 337 CURVE SMOOTH",
"128 355 OFFCURVE",
"138 378 OFFCURVE",
"154 378 CURVE SMOOTH"
);
}
);
width = 278;
}
);
leftKerningGroup = b;
note = b;
rightKerningGroup = b;
unicode = 0062;
},
{
glyphname = c;
layers = (
{
hints = (
{
horizontal = 1;
place = "{-28, 45}";
type = Stem;
},
{
horizontal = 1;
place = "{398, 45}";
type = Stem;
},
{
place = "{10, 70}";
type = Stem;
},
{
place = "{187, 33}";
type = Stem;
},
{
place = "{190, 42}";
type = Stem;
},
{
horizontal = 1;
place = "{274, 168}";
type = Stem;
}
);
layerId = "8AA200AC-43EB-4C51-877F-34011B5AD0E7";
paths = (
{
closed = 1;
nodes = (
"164 -28 OFFCURVE",
"195 -7 OFFCURVE",
"215 34 CURVE SMOOTH",
"229 65 OFFCURVE",
"232 94 OFFCURVE",
"232 96 CURVE SMOOTH",
"233 101 LINE",
"191 101 LINE",
"190 97 LINE SMOOTH",
"190 96 OFFCURVE",
"176 17 OFFCURVE",
"124 17 CURVE SMOOTH",
"96 17 OFFCURVE",
"80 78 OFFCURVE",
"80 185 CURVE SMOOTH",
"80 271 OFFCURVE",
"89 322 OFFCURVE",
"96 349 CURVE SMOOTH",
"108 396 OFFCURVE",
"121 398 OFFCURVE",
"124 398 CURVE SMOOTH",
"133 398 OFFCURVE",
"140 395 OFFCURVE",
"146 388 CURVE SMOOTH",
"173 360 OFFCURVE",
"168 280 OFFCURVE",
"168 279 CURVE SMOOTH",
"168 274 LINE",
"227 274 LINE",
"226 280 LINE",
"226 280 OFFCURVE",
"220 328 OFFCURVE",
"220 358 CURVE SMOOTH",
"220 388 OFFCURVE",
"226 436 OFFCURVE",
"226 436 CURVE",
"227 442 LINE",
"187 442 LINE",
"187 414 LINE",
"173 433 OFFCURVE",
"152 443 OFFCURVE",
"124 443 CURVE SMOOTH",
"52 443 OFFCURVE",
"10 349 OFFCURVE",
"10 185 CURVE SMOOTH",
"10 116 OFFCURVE",
"19 62 OFFCURVE",
"38 27 CURVE SMOOTH",
"57 -10 OFFCURVE",
"86 -28 OFFCURVE",
"124 -28 CURVE SMOOTH"
);
}
);
width = 242;
}
);
leftKerningGroup = c;
note = c;
rightKerningGroup = c;
unicode = 0063;
},
{
glyphname = d;
layers = (
{
hints = (
{
horizontal = 1;
place = "{-5, 45}";
type = Stem;
},
{
horizontal = 1;
place = "{378, 44}";
type = Stem;
},
{
horizontal = 1;
place = "{581, 30}";
type = Stem;
},
{
place = "{10, 69}";
type = Stem;
},
{
place = "{172, 69}";
type = Stem;
},
{
horizontal = 1;
place = "{-33, 31}";
type = Stem;
},
{
place = "{261, 7}";
type = Stem;
}
);
layerId = "8AA200AC-43EB-4C51-877F-34011B5AD0E7";
paths = (
{
closed = 1;
nodes = (
"172 -47 LINE",
"179 -44 LINE",
"179 -43 OFFCURVE",
"200 -33 OFFCURVE",
"217 -33 CURVE SMOOTH",
"234 -33 OFFCURVE",
"261 -43 OFFCURVE",
"261 -43 CURVE",
"268 -45 LINE",
"268 -2 LINE",
"263 -2 LINE",
"263 -2 OFFCURVE",
"244 -2 OFFCURVE",
"241 8 CURVE",
"241 569 LINE",
"244 580 OFFCURVE",
"263 581 OFFCURVE",
"263 581 CURVE",
"268 581 LINE",
"268 623 LINE",
"262 621 LINE",
"261 621 OFFCURVE",
"230 611 OFFCURVE",
"206 611 CURVE SMOOTH",
"182 611 OFFCURVE",
"152 621 OFFCURVE",
"151 621 CURVE",
"145 623 LINE",
"145 581 LINE",
"150 581 LINE",
"150 581 OFFCURVE",
"169 580 OFFCURVE",
"172 569 CURVE",
"172 410 LINE",
"158 418 OFFCURVE",
"142 422 OFFCURVE",
"124 422 CURVE SMOOTH",
"86 422 OFFCURVE",
"57 404 OFFCURVE",
"38 368 CURVE SMOOTH",
"19 332 OFFCURVE",
"10 280 OFFCURVE",
"10 211 CURVE SMOOTH",
"10 137 OFFCURVE",
"19 84 OFFCURVE",
"37 49 CURVE SMOOTH",
"55 13 OFFCURVE",
"84 -5 OFFCURVE",
"122 -5 CURVE SMOOTH",
"141 -5 OFFCURVE",
"158 -1 OFFCURVE",
"172 8 CURVE"
);
},
{
closed = 1;
nodes = (
"152 378 OFFCURVE",
"168 317 OFFCURVE",
"168 211 CURVE SMOOTH",
"168 88 OFFCURVE",
"155 40 OFFCURVE",
"122 40 CURVE SMOOTH",
"86 40 OFFCURVE",
"79 133 OFFCURVE",
"79 211 CURVE SMOOTH",
"79 281 OFFCURVE",
"89 321 OFFCURVE",
"98 343 CURVE SMOOTH",
"108 368 OFFCURVE",
"119 378 OFFCURVE",
"124 378 CURVE SMOOTH"
);
}
);
width = 266;
}
);
leftKerningGroup = d;
note = d;
rightKerningGroup = d;
unicode = 0064;
},
{
glyphname = e;
layers = (
{
hints = (
{
horizontal = 1;
place = "{-28, 45}";
type = Stem;
},
{
horizontal = 1;
place = "{152, 45}";
type = Stem;
},
{
horizontal = 1;
place = "{397, 46}";
type = Stem;
},
{
place = "{-2, 70}";
type = Stem;
},
{
place = "{156, 70}";
type = Stem;
},
{
place = "{178, 40}";
type = Stem;
}
);
layerId = "8AA200AC-43EB-4C51-877F-34011B5AD0E7";
paths = (
{
closed = 1;
nodes = (
"150 -28 OFFCURVE",
"181 -6 OFFCURVE",
"200 35 CURVE SMOOTH",
"215 66 OFFCURVE",
"218 96 OFFCURVE",
"218 97 CURVE SMOOTH",
"219 103 LINE",
"178 103 LINE",
"178 99 LINE SMOOTH",
"178 98 OFFCURVE",
"175 77 OFFCURVE",
"166 57 CURVE SMOOTH",
"153 30 OFFCURVE",
"135 17 OFFCURVE",
"111 17 CURVE SMOOTH",
"98 17 OFFCURVE",
"75 35 OFFCURVE",
"69 152 CURVE",
"222 152 LINE",
"222 157 LINE",
"223 159 OFFCURVE",
"226 200 OFFCURVE",
"226 219 CURVE SMOOTH",
"226 294 OFFCURVE",
"216 348 OFFCURVE",
"198 386 CURVE SMOOTH",
"179 424 OFFCURVE",
"150 443 OFFCURVE",
"111 443 CURVE SMOOTH",
"73 443 OFFCURVE",
"44 424 OFFCURVE",
"25 386 CURVE SMOOTH",
"7 348 OFFCURVE",
"-2 294 OFFCURVE",
"-2 219 CURVE SMOOTH",
"-2 64 OFFCURVE",
"40 -28 OFFCURVE",
"111 -28 CURVE SMOOTH"
);
},
{
closed = 1;
nodes = (
"68 197 LINE",
"68 262 OFFCURVE",
"72 312 OFFCURVE",
"79 346 CURVE SMOOTH",
"85 369 OFFCURVE",
"95 397 OFFCURVE",
"111 397 CURVE SMOOTH",
"117 397 OFFCURVE",
"133 397 OFFCURVE",
"144 354 CURVE SMOOTH",
"152 321 OFFCURVE",
"156 270 OFFCURVE",
"156 197 CURVE"
);
}
);
width = 236;
}
);
leftKerningGroup = e;
note = e;
rightKerningGroup = e;
unicode = 0065;
},
{
glyphname = f;
layers = (
{
hints = (
{
horizontal = 1;
place = "{-8, 21}";
target = up;
type = BottomGhost;
},
{
horizontal = 1;
place = "{378, 45}";
type = Stem;
},
{
place = "{37, 69}";
type = Stem;
},
{
place = "{157, 33}";
type = Stem;
},
{
horizontal = 1;
place = "{1, 30}";
type = Stem;
},
{
horizontal = 1;
place = "{577, 41}";
type = Stem;
},
{
horizontal = 1;
place = "{500, 167}";
type = Stem;
}
);
layerId = "8AA200AC-43EB-4C51-877F-34011B5AD0E7";
paths = (
{
closed = 1;
nodes = (
"10 -11 LINE",
"17 -9 LINE",
"17 -9 OFFCURVE",
"43 1 OFFCURVE",
"67 1 CURVE SMOOTH",
"92 1 OFFCURVE",
"126 -8 OFFCURVE",
"127 -8 CURVE SMOOTH",
"133 -9 LINE",
"133 31 LINE",
"128 31 LINE",
"128 31 OFFCURVE",
"108 32 OFFCURVE",
"106 43 CURVE",
"106 378 LINE",
"144 378 LINE",
"144 423 LINE",
"106 423 LINE",
"106 439 LINE SMOOTH",
"104 537 OFFCURVE",
"117 565 OFFCURVE",
"125 573 CURVE",
"127 576 OFFCURVE",
"129 577 OFFCURVE",
"132 577 CURVE SMOOTH",
"137 577 OFFCURVE",
"140 575 OFFCURVE",
"144 572 CURVE",
"157 557 OFFCURVE",
"158 519 OFFCURVE",
"157 505 CURVE SMOOTH",
"157 500 LINE",
"197 500 LINE",
"196 506 LINE",
"196 506 OFFCURVE",
"190 554 OFFCURVE",
"190 584 CURVE SMOOTH",
"190 613 OFFCURVE",
"196 661 OFFCURVE",
"196 661 CURVE",
"197 667 LINE",
"157 667 LINE",
"157 613 LINE",
"149 616 OFFCURVE",
"141 618 OFFCURVE",
"131 618 CURVE SMOOTH",
"95 618 OFFCURVE",
"71 604 OFFCURVE",
"57 576 CURVE SMOOTH",
"45 552 OFFCURVE",
"39 518 OFFCURVE",
"38 461 CURVE SMOOTH",
"37 423 LINE",
"14 423 LINE",
"14 378 LINE",
"37 378 LINE",
"37 43 LINE",
"34 32 OFFCURVE",
"15 31 OFFCURVE",
"15 31 CURVE",
"10 31 LINE"
);
}
);
width = 187;
}
);
leftKerningGroup = f;
note = f;
rightKerningGroup = f;
unicode = 0066;
},
{
glyphname = g;
layers = (
{
hints = (
{
horizontal = 1;
place = "{-177, 38}";
type = Stem;
},
{
horizontal = 1;
place = "{59, 39}";
type = Stem;
},
{
horizontal = 1;
place = "{385, 38}";
type = Stem;
},
{
place = "{51, 64}";
type = Stem;
},
{
place = "{217, 32}";
type = Stem;
},
{
place = "{6, 66}";
type = Stem;
},
{
place = "{235, 59}";
type = Stem;
},
{
place = "{39, 35}";
type = Stem;
},
{
horizontal = 1;
place = "{117, 38}";
type = Stem;
},
{
place = "{194, 63}";
type = Stem;
}
);
layerId = "8AA200AC-43EB-4C51-877F-34011B5AD0E7";
paths = (
{
closed = 1;
nodes = (
"184 -177 OFFCURVE",
"219 -165 OFFCURVE",
"244 -146 CURVE SMOOTH",
"267 -129 OFFCURVE",
"294 -96 OFFCURVE",
"294 -38 CURVE SMOOTH",
"294 8 OFFCURVE",
"279 44 OFFCURVE",
"248 68 CURVE SMOOTH",
"223 88 OFFCURVE",
"189 99 OFFCURVE",
"150 99 CURVE SMOOTH",
"148 99 OFFCURVE",
"145 99 OFFCURVE",
"140 99 CURVE SMOOTH",
"133 98 OFFCURVE",
"124 98 OFFCURVE",
"115 98 CURVE SMOOTH",
"76 98 OFFCURVE",
"74 105 OFFCURVE",
"74 107 CURVE SMOOTH",
"74 109 OFFCURVE",
"77 117 OFFCURVE",
"125 117 CURVE SMOOTH",
"133 117 OFFCURVE",
"140 117 OFFCURVE",
"145 117 CURVE SMOOTH",
"149 117 OFFCURVE",
"151 117 OFFCURVE",
"154 117 CURVE SMOOTH",
"188 117 OFFCURVE",
"214 130 OFFCURVE",
"232 156 CURVE SMOOTH",
"249 181 OFFCURVE",
"257 219 OFFCURVE",
"257 268 CURVE SMOOTH",
"257 282 OFFCURVE",
"257 297 OFFCURVE",
"255 309 CURVE",
"255 309 OFFCURVE",
"249 357 OFFCURVE",
"249 387 CURVE SMOOTH",
"249 416 OFFCURVE",
"255 450 OFFCURVE",
"255 450 CURVE",
"257 456 LINE",
"217 456 LINE",
"217 401 LINE",
"200 416 OFFCURVE",
"179 423 OFFCURVE",
"154 423 CURVE SMOOTH",
"119 423 OFFCURVE",
"93 410 OFFCURVE",
"76 384 CURVE SMOOTH",
"59 358 OFFCURVE",
"51 320 OFFCURVE",
"51 268 CURVE SMOOTH",
"51 216 OFFCURVE",
"60 176 OFFCURVE",
"79 152 CURVE",
"50 144 OFFCURVE",
"39 125 OFFCURVE",
"39 109 CURVE SMOOTH",
"39 91 OFFCURVE",
"45 77 OFFCURVE",
"54 70 CURVE",
"15 41 OFFCURVE",
"6 -4 OFFCURVE",
"6 -38 CURVE SMOOTH",
"6 -148 OFFCURVE",
"97 -177 OFFCURVE",
"150 -177 CURVE SMOOTH"
);
},
{
closed = 1;
nodes = (
"164 59 OFFCURVE",
"185 56 OFFCURVE",
"202 43 CURVE SMOOTH",
"224 28 OFFCURVE",
"235 0 OFFCURVE",
"235 -38 CURVE SMOOTH",
"235 -80 OFFCURVE",
"221 -109 OFFCURVE",
"194 -126 CURVE SMOOTH",
"173 -139 OFFCURVE",
"151 -139 OFFCURVE",
"150 -139 CURVE SMOOTH",
"114 -139 OFFCURVE",
"72 -121 OFFCURVE",
"72 -38 CURVE SMOOTH",
"72 42 OFFCURVE",
"114 59 OFFCURVE",
"150 59 CURVE SMOOTH"
);
},
{
closed = 1;
nodes = (
"164 385 OFFCURVE",
"194 385 OFFCURVE",
"194 268 CURVE SMOOTH",
"194 185 OFFCURVE",
"170 155 OFFCURVE",
"154 155 CURVE",
"154 155 OFFCURVE",
"152 155 OFFCURVE",
"147 156 CURVE SMOOTH",
"140 157 OFFCURVE",
"115 162 OFFCURVE",
"115 268 CURVE SMOOTH",
"115 317 OFFCURVE",
"119 348 OFFCURVE",
"126 365 CURVE SMOOTH",
"133 382 OFFCURVE",
"142 385 OFFCURVE",
"154 385 CURVE SMOOTH"
);
}
);
width = 292;
}
);
leftKerningGroup = g;
note = g;
rightKerningGroup = g;
unicode = 0067;
},
{
glyphname = h;
layers = (
{
hints = (
{
horizontal = 1;
place = "{1, 30}";
type = Stem;
},
{
horizontal = 1;
place = "{378, 44}";
type = Stem;
},
{
horizontal = 1;
place = "{581, 30}";
type = Stem;
},
{
place = "{37, 68}";
type = Stem;
},
{
place = "{198, 69}";
type = Stem;
},
{
horizontal = 1;
place = "{-34, 30}";
type = Stem;
},
{
place = "{287, 7}";
type = Stem;
},
{
horizontal = 1;
place = "{-9, 40}";
type = Stem;
}
);
layerId = "8AA200AC-43EB-4C51-877F-34011B5AD0E7";
paths = (
{
closed = 1;
nodes = (
"171 -46 LINE",
"177 -44 LINE",
"177 -44 OFFCURVE",
"204 -34 OFFCURVE",
"227 -34 CURVE SMOOTH",
"253 -34 OFFCURVE",
"287 -43 OFFCURVE",
"287 -43 CURVE",
"294 -44 LINE",
"294 -4 LINE",
"289 -4 LINE",
"289 -4 OFFCURVE",
"270 -3 OFFCURVE",
"267 7 CURVE",
"267 213 LINE SMOOTH",
"267 284 OFFCURVE",
"260 330 OFFCURVE",
"245 363 CURVE SMOOTH",
"228 403 OFFCURVE",
"197 422 OFFCURVE",
"153 422 CURVE SMOOTH",
"134 422 OFFCURVE",
"118 418 OFFCURVE",
"105 410 CURVE",
"105 569 LINE",
"107 578 OFFCURVE",
"122 581 OFFCURVE",
"128 581 CURVE SMOOTH",
"132 581 LINE",
"132 623 LINE",
"126 621 LINE",
"126 621 OFFCURVE",
"95 611 OFFCURVE",
"70 611 CURVE SMOOTH",
"47 611 OFFCURVE",
"16 621 OFFCURVE",
"16 621 CURVE",
"10 623 LINE",
"10 581 LINE",
"14 581 LINE SMOOTH",
"15 581 OFFCURVE",
"34 580 OFFCURVE",
"37 569 CURVE",
"37 43 LINE",
"33 32 OFFCURVE",
"15 31 OFFCURVE",
"14 31 CURVE SMOOTH",
"10 31 LINE",
"10 -11 LINE",
"16 -9 LINE",
"17 -9 OFFCURVE",
"42 1 OFFCURVE",
"66 1 CURVE SMOOTH",
"92 1 OFFCURVE",
"126 -8 OFFCURVE",
"126 -8 CURVE",
"132 -9 LINE",
"132 31 LINE",
"128 31 LINE",
"128 31 OFFCURVE",
"108 32 OFFCURVE",
"105 43 CURVE",
"105 213 LINE SMOOTH",
"105 365 OFFCURVE",
"128 378 OFFCURVE",
"153 378 CURVE SMOOTH",
"162 378 OFFCURVE",
"176 374 OFFCURVE",
"186 342 CURVE SMOOTH",
"194 316 OFFCURVE",
"198 273 OFFCURVE",
"198 213 CURVE SMOOTH",
"198 7 LINE",
"195 -1 OFFCURVE",
"180 -4 OFFCURVE",
"175 -4 CURVE SMOOTH",
"171 -4 LINE"
);
}
);
width = 304;
}
);
leftKerningGroup = h;
note = h;
rightKerningGroup = h;
unicode = 0068;
},
{
glyphname = i;
layers = (
{
hints = (
{
horizontal = 1;
place = "{-5, 40}";
type = Stem;
},
{
horizontal = 1;
place = "{384, 31}";
type = Stem;
},
{
place = "{37, 65}";
type = Stem;
},
{
place = "{27, 86}";
type = Stem;
}
);
layerId = "8AA200AC-43EB-4C51-877F-34011B5AD0E7";
paths = (
{
closed = 1;
nodes = (
"10 -7 LINE",
"17 -5 LINE SMOOTH",
"18 -5 OFFCURVE",
"43 5 OFFCURVE",
"68 5 CURVE SMOOTH",
"91 5 OFFCURVE",
"122 -5 OFFCURVE",
"122 -5 CURVE",
"128 -7 LINE",
"128 30 LINE",
"128 35 LINE",
"124 35 LINE SMOOTH",
"123 35 OFFCURVE",
"104 36 OFFCURVE",
"101 47 CURVE",
"103 415 LINE",
"77 415 LINE SMOOTH",
"51 415 OFFCURVE",
"17 424 OFFCURVE",
"17 424 CURVE",
"10 425 LINE",
"10 389 LINE",
"10 384 LINE",
"15 384 LINE SMOOTH",
"16 384 OFFCURVE",
"34 384 OFFCURVE",
"37 373 CURVE",
"37 47 LINE",
"34 36 OFFCURVE",
"15 35 OFFCURVE",
"15 35 CURVE",
"10 35 LINE"
);
},
{
closed = 1;
nodes = (
"93 437 OFFCURVE",
"113 461 OFFCURVE",
"113 491 CURVE SMOOTH",
"113 521 OFFCURVE",
"93 545 OFFCURVE",
"69 545 CURVE SMOOTH",
"46 545 OFFCURVE",
"27 521 OFFCURVE",
"27 491 CURVE SMOOTH",
"27 461 OFFCURVE",
"46 437 OFFCURVE",
"69 437 CURVE SMOOTH"
);
}
);
width = 138;
}
);
leftKerningGroup = i;
note = i;
rightKerningGroup = i;
unicode = 0069;
},
{
glyphname = j;
layers = (
{
hints = (
{
horizontal = 1;
place = "{-210, 123}";
type = Stem;
},
{
horizontal = 1;
place = "{374, 31}";
type = Stem;
},
{
place = "{-91, 34}";
type = Stem;
},
{
place = "{46, 68}";
type = Stem;
},
{
horizontal = 1;
place = "{-179, 40}";
type = Stem;
},
{
horizontal = 1;
place = "{424, 108}";
type = Stem;
},
{
place = "{37, 86}";
type = Stem;
}
);
layerId = "8AA200AC-43EB-4C51-877F-34011B5AD0E7";
paths = (
{
closed = 1;
nodes = (
"-57 -210 LINE",
"-57 -179 LINE",
"-14 -176 OFFCURVE",
"24 -157 OFFCURVE",
"51 -124 CURVE SMOOTH",
"92 -77 OFFCURVE",
"113 1 OFFCURVE",
"114 106 CURVE SMOOTH",
"114 363 LINE",
"117 374 OFFCURVE",
"136 374 OFFCURVE",
"136 374 CURVE",
"141 374 LINE",
"141 417 LINE",
"135 415 LINE",
"135 415 OFFCURVE",
"108 405 OFFCURVE",
"84 405 CURVE SMOOTH",
"60 405 OFFCURVE",
"25 414 OFFCURVE",
"25 414 CURVE",
"19 415 LINE",
"19 374 LINE",
"24 374 LINE",
"24 374 OFFCURVE",
"43 374 OFFCURVE",
"46 363 CURVE",
"46 106 LINE SMOOTH",
"45 -43 OFFCURVE",
"8 -130 OFFCURVE",
"-57 -139 CURVE",
"-57 -87 LINE",
"-98 -87 LINE",
"-96 -93 LINE",
"-96 -94 OFFCURVE",
"-91 -115 OFFCURVE",
"-91 -139 CURVE SMOOTH",
"-91 -164 OFFCURVE",
"-96 -204 OFFCURVE",
"-97 -204 CURVE",
"-97 -210 LINE"
);
},
{
closed = 1;
nodes = (
"91 424 OFFCURVE",
"102 430 OFFCURVE",
"111 440 CURVE SMOOTH",
"119 450 OFFCURVE",
"123 464 OFFCURVE",
"123 478 CURVE SMOOTH",
"123 492 OFFCURVE",
"119 506 OFFCURVE",
"111 516 CURVE SMOOTH",
"102 526 OFFCURVE",
"91 532 OFFCURVE",
"79 532 CURVE SMOOTH",
"56 532 OFFCURVE",
"37 508 OFFCURVE",
"37 478 CURVE SMOOTH",
"37 448 OFFCURVE",
"56 424 OFFCURVE",
"79 424 CURVE SMOOTH"
);
}
);
width = 135;
}
);
leftKerningGroup = j;
note = j;
rightKerningGroup = j;
unicode = 006A;
},
{
glyphname = k;
layers = (
{
hints = (
{
horizontal = 1;
place = "{-8, 21}";
target = up;
type = BottomGhost;
},
{
horizontal = 1;
place = "{385, 31}";
type = Stem;
},
{
horizontal = 1;
place = "{581, 30}";
type = Stem;
},
{
place = "{21, 69}";
type = Stem;
},
{
horizontal = 1;
place = "{-34, 30}";
type = Stem;
},
{
place = "{126, 124}";
type = Stem;
},
{
horizontal = 1;
place = "{-12, 8}";
type = Stem;
},
{
horizontal = 1;
place = "{1, 30}";
type = Stem;
},
{
place = "{139, 110}";
type = Stem;
},
{
horizontal = 1;
place = "{-10, 21}";
target = up;
type = BottomGhost;
}
);
layerId = "8AA200AC-43EB-4C51-877F-34011B5AD0E7";
paths = (
{
closed = 1;
nodes = (
"126 -46 LINE",
"133 -44 LINE",
"133 -44 OFFCURVE",
"159 -34 OFFCURVE",
"183 -34 CURVE SMOOTH",
"208 -34 OFFCURVE",
"242 -43 OFFCURVE",
"243 -43 CURVE",
"249 -45 LINE",
"250 -9 LINE",
"250 -5 LINE",
"246 -4 LINE SMOOTH",
"242 -4 OFFCURVE",
"231 -2 OFFCURVE",
"226 3 CURVE",
"125 263 LINE",
"214 368 LINE",
"214 368 LINE",
"226 383 OFFCURVE",
"244 385 OFFCURVE",
"244 385 CURVE",
"249 385 LINE",
"249 426 LINE",
"243 425 LINE",
"242 424 OFFCURVE",
"211 416 OFFCURVE",
"195 416 CURVE SMOOTH",
"178 416 OFFCURVE",
"145 423 OFFCURVE",
"145 423 CURVE",
"139 424 LINE",
"139 385 LINE",
"144 385 LINE SMOOTH",
"156 385 OFFCURVE",
"171 382 OFFCURVE",
"175 378 CURVE",
"90 276 LINE",
"90 569 LINE",
"93 580 OFFCURVE",
"112 581 OFFCURVE",
"112 581 CURVE",
"117 581 LINE",
"117 623 LINE",
"110 621 LINE",
"110 620 OFFCURVE",
"79 611 OFFCURVE",
"55 611 CURVE SMOOTH",
"33 611 OFFCURVE",
"1 621 OFFCURVE",
"0 621 CURVE SMOOTH",
"-6 622 LINE",
"-6 581 LINE",
"-1 581 LINE",
"-1 581 OFFCURVE",
"18 580 OFFCURVE",
"21 569 CURVE",
"21 42 LINE",
"18 32 OFFCURVE",
"-1 31 OFFCURVE",
"-1 31 CURVE",
"-6 31 LINE",
"-6 -12 LINE",
"1 -9 LINE",
"1 -9 OFFCURVE",
"27 1 OFFCURVE",
"51 1 CURVE SMOOTH",
"76 1 OFFCURVE",
"110 -8 OFFCURVE",
"111 -8 CURVE",
"117 -10 LINE",
"117 31 LINE",
"112 31 LINE",
"112 31 OFFCURVE",
"93 32 OFFCURVE",
"90 42 CURVE",
"90 184 LINE",
"156 6 LINE",
"152 -2 OFFCURVE",
"136 -4 OFFCURVE",
"131 -4 CURVE SMOOTH",
"126 -4 LINE"
);
}
);
width = 242;
}
);
leftKerningGroup = k;
note = k;
rightKerningGroup = k;
unicode = 006B;
},
{
glyphname = l;
layers = (
{
hints = (
{
horizontal = 1;
place = "{1, 30}";
type = Stem;
},
{
horizontal = 1;
place = "{580, 31}";
type = Stem;
},
{
place = "{38, 68}";
type = Stem;
},
{
place = "{126, 7}";
type = Stem;
}
);
layerId = "8AA200AC-43EB-4C51-877F-34011B5AD0E7";
paths = (
{
closed = 1;
nodes = (
"9 -11 LINE",
"16 -9 LINE",
"17 -8 OFFCURVE",
"43 1 OFFCURVE",
"67 1 CURVE SMOOTH",
"92 1 OFFCURVE",
"126 -8 OFFCURVE",
"126 -8 CURVE",
"133 -9 LINE",
"133 26 LINE",
"133 31 LINE",
"128 31 LINE",
"128 31 OFFCURVE",
"109 32 OFFCURVE",
"106 43 CURVE",
"106 570 LINE",
"109 580 OFFCURVE",
"127 580 OFFCURVE",
"128 580 CURVE SMOOTH",
"133 580 LINE",
"133 624 LINE",
"126 621 LINE",
"125 621 OFFCURVE",
"100 611 OFFCURVE",
"75 611 CURVE SMOOTH",
"50 611 OFFCURVE",
"16 620 OFFCURVE",
"16 620 CURVE",
"9 622 LINE",
"9 585 LINE",
"9 580 LINE",
"14 580 LINE SMOOTH",
"15 580 OFFCURVE",
"34 580 OFFCURVE",
"38 570 CURVE",
"38 43 LINE",
"34 32 OFFCURVE",
"14 31 OFFCURVE",
"14 31 CURVE",
"9 31 LINE"
);
}
);
width = 143;
}
);
leftKerningGroup = l;
note = l;
rightKerningGroup = l;
unicode = 006C;
},
{
glyphname = m;
layers = (
{
hints = (
{
horizontal = 1;
place = "{-9, 40}";
type = Stem;
},
{
horizontal = 1;
place = "{378, 44}";
type = Stem;
},
{
place = "{24, 70}";
type = Stem;
},
{
place = "{186, 68}";
type = Stem;
},
{
place = "{347, 70}";
type = Stem;
},
{
horizontal = 1;
place = "{-34, 30}";
type = Stem;
},
{
horizontal = 1;
place = "{-11, 7}";
type = Stem;
},
{
horizontal = 1;
place = "{-11, 42}";
type = Stem;
},
{
horizontal = 1;
place = "{0, 31}";
type = Stem;
},
{
place = "{437, 7}";
type = Stem;
},
{
horizontal = 1;
place = "{422, 31}";
type = Stem;
},
{
horizontal = 1;
place = "{1, 30}";
type = Stem;
},
{
place = "{114, 7}";
type = Stem;
}
);
layerId = "8AA200AC-43EB-4C51-877F-34011B5AD0E7";
paths = (
{
closed = 1;
nodes = (
"158 -46 LINE",
"165 -44 LINE SMOOTH",
"166 -44 OFFCURVE",
"192 -34 OFFCURVE",
"217 -34 CURVE SMOOTH",
"241 -34 OFFCURVE",
"275 -43 OFFCURVE",
"275 -43 CURVE",
"281 -44 LINE",
"281 -4 LINE",
"277 -4 LINE",
"277 -4 OFFCURVE",
"258 -3 OFFCURVE",
"254 7 CURVE",
"254 217 LINE SMOOTH",
"255 318 OFFCURVE",
"273 378 OFFCURVE",
"302 378 CURVE SMOOTH",
"312 378 OFFCURVE",
"326 374 OFFCURVE",
"336 342 CURVE SMOOTH",
"344 316 OFFCURVE",
"347 273 OFFCURVE",
"347 213 CURVE SMOOTH",
"347 41 LINE",
"345 33 OFFCURVE",
"331 31 OFFCURVE",
"325 31 CURVE SMOOTH",
"320 31 LINE",
"320 -12 LINE",
"327 -10 LINE SMOOTH",
"328 -10 OFFCURVE",
"354 0 OFFCURVE",
"378 0 CURVE SMOOTH",
"403 0 OFFCURVE",
"437 -9 OFFCURVE",
"437 -9 CURVE",
"444 -11 LINE",
"444 31 LINE",
"438 31 LINE",
"438 31 OFFCURVE",
"420 31 OFFCURVE",
"417 41 CURVE",
"417 213 LINE SMOOTH",
"417 284 OFFCURVE",
"410 330 OFFCURVE",
"395 363 CURVE SMOOTH",
"378 403 OFFCURVE",
"347 422 OFFCURVE",
"302 422 CURVE SMOOTH",
"269 422 OFFCURVE",
"242 408 OFFCURVE",
"224 381 CURVE",
"206 408 OFFCURVE",
"178 422 OFFCURVE",
"140 422 CURVE SMOOTH",
"122 422 OFFCURVE",
"107 418 OFFCURVE",
"94 411 CURVE",
"94 467 LINE",
"86 464 LINE",
"86 463 OFFCURVE",
"63 453 OFFCURVE",
"46 453 CURVE SMOOTH",
"31 453 OFFCURVE",
"5 463 OFFCURVE",
"4 463 CURVE SMOOTH",
"-3 465 LINE",
"-3 427 LINE",
"-3 422 LINE",
"2 422 LINE SMOOTH",
"3 422 OFFCURVE",
"22 422 OFFCURVE",
"24 411 CURVE",
"24 43 LINE",
"22 32 OFFCURVE",
"2 31 OFFCURVE",
"2 31 CURVE",
"-3 31 LINE",
"-3 -11 LINE",
"4 -9 LINE SMOOTH",
"5 -9 OFFCURVE",
"31 1 OFFCURVE",
"55 1 CURVE SMOOTH",
"80 1 OFFCURVE",
"114 -8 OFFCURVE",
"114 -8 CURVE",
"121 -9 LINE",
"121 26 LINE",
"121 31 LINE",
"116 31 LINE",
"116 31 OFFCURVE",
"96 32 OFFCURVE",
"94 43 CURVE",
"94 213 LINE SMOOTH",
"94 279 OFFCURVE",
"100 326 OFFCURVE",
"113 354 CURVE SMOOTH",
"124 375 OFFCURVE",
"135 378 OFFCURVE",
"140 378 CURVE SMOOTH",
"150 378 OFFCURVE",
"165 374 OFFCURVE",
"174 342 CURVE SMOOTH",
"182 316 OFFCURVE",
"186 275 OFFCURVE",
"186 213 CURVE SMOOTH",
"186 7 LINE",
"184 -1 OFFCURVE",
"169 -4 OFFCURVE",
"163 -4 CURVE SMOOTH",
"158 -4 LINE"
);
}
);
width = 446;
}
);
leftKerningGroup = m;
note = m;
rightKerningGroup = m;
unicode = 006D;
},
{
glyphname = n;
layers = (
{
hints = (
{
horizontal = 1;
place = "{-8, 21}";
target = up;
type = BottomGhost;
},
{
horizontal = 1;
place = "{378, 44}";
type = Stem;
},
{
place = "{37, 68}";
type = Stem;
},
{
place = "{198, 69}";
type = Stem;
},
{
horizontal = 1;
place = "{-34, 30}";
type = Stem;
},
{
place = "{171, 7}";
type = Stem;
},
{
horizontal = 1;
place = "{-11, 7}";
type = Stem;
},
{
horizontal = 1;
place = "{1, 30}";
type = Stem;
},
{
horizontal = 1;
place = "{422, 31}";
type = Stem;
},
{
horizontal = 1;
place = "{-9, 21}";
target = up;
type = BottomGhost;
}
);
layerId = "8AA200AC-43EB-4C51-877F-34011B5AD0E7";
paths = (
{
closed = 1;
nodes = (
"171 -46 LINE",
"178 -44 LINE",
"178 -43 OFFCURVE",
"204 -34 OFFCURVE",
"228 -34 CURVE SMOOTH",
"253 -34 OFFCURVE",
"288 -43 OFFCURVE",
"288 -43 CURVE",
"294 -44 LINE",
"294 -4 LINE",
"289 -4 LINE",
"289 -4 OFFCURVE",
"271 -3 OFFCURVE",
"267 7 CURVE",
"267 213 LINE SMOOTH",
"267 284 OFFCURVE",
"261 331 OFFCURVE",
"246 363 CURVE SMOOTH",
"228 403 OFFCURVE",
"198 422 OFFCURVE",
"153 422 CURVE SMOOTH",
"135 422 OFFCURVE",
"119 418 OFFCURVE",
"105 410 CURVE",
"105 467 LINE",
"98 464 LINE",
"98 464 OFFCURVE",
"76 453 OFFCURVE",
"59 453 CURVE SMOOTH",
"43 453 OFFCURVE",
"17 463 OFFCURVE",
"17 463 CURVE",
"10 465 LINE",
"10 427 LINE",
"10 422 LINE",
"15 422 LINE",
"15 422 OFFCURVE",
"35 422 OFFCURVE",
"37 412 CURVE",
"37 43 LINE",
"34 32 OFFCURVE",
"15 31 OFFCURVE",
"15 31 CURVE",
"10 31 LINE",
"10 -11 LINE",
"17 -8 LINE",
"17 -8 OFFCURVE",
"42 1 OFFCURVE",
"67 1 CURVE SMOOTH",
"92 1 OFFCURVE",
"127 -8 OFFCURVE",
"127 -8 CURVE",
"133 -9 LINE",
"133 31 LINE",
"128 31 LINE",
"128 31 OFFCURVE",
"109 32 OFFCURVE",
"105 43 CURVE",
"105 213 LINE SMOOTH",
"106 279 OFFCURVE",
"112 326 OFFCURVE",
"126 354 CURVE SMOOTH",
"133 370 OFFCURVE",
"143 378 OFFCURVE",
"153 378 CURVE SMOOTH",
"163 378 OFFCURVE",
"177 374 OFFCURVE",
"187 342 CURVE SMOOTH",
"194 316 OFFCURVE",
"198 274 OFFCURVE",
"198 213 CURVE SMOOTH",
"198 7 LINE",
"196 -1 OFFCURVE",
"181 -3 OFFCURVE",
"176 -4 CURVE SMOOTH",
"171 -4 LINE"
);
}
);
width = 289;
}
);
leftKerningGroup = n;
note = n;
rightKerningGroup = n;
unicode = 006E;
},
{
glyphname = o;
layers = (
{
hints = (
{
horizontal = 1;
place = "{-26, 44}";
type = Stem;
},
{
horizontal = 1;
place = "{399, 45}";
type = Stem;
},
{
place = "{10, 67}";
type = Stem;
},
{
place = "{172, 67}";
type = Stem;
}
);
layerId = "8AA200AC-43EB-4C51-877F-34011B5AD0E7";
paths = (
{
closed = 1;
nodes = (
"197 -26 OFFCURVE",
"239 58 OFFCURVE",
"239 205 CURVE SMOOTH",
"239 359 OFFCURVE",
"198 444 OFFCURVE",
"125 444 CURVE SMOOTH",
"51 444 OFFCURVE",
"10 359 OFFCURVE",
"10 205 CURVE SMOOTH",
"10 56 OFFCURVE",
"51 -26 OFFCURVE",
"125 -26 CURVE SMOOTH"
);
},
{
closed = 1;
nodes = (
"135 399 OFFCURVE",
"147 384 OFFCURVE",
"155 358 CURVE SMOOTH",
"167 323 OFFCURVE",
"172 271 OFFCURVE",
"172 205 CURVE SMOOTH",
"172 132 OFFCURVE",
"161 86 OFFCURVE",
"152 60 CURVE SMOOTH",
"140 28 OFFCURVE",
"128 18 OFFCURVE",
"125 18 CURVE SMOOTH",
"114 18 OFFCURVE",
"103 33 OFFCURVE",
"95 57 CURVE SMOOTH",
"83 91 OFFCURVE",
"77 142 OFFCURVE",
"77 205 CURVE SMOOTH",
"77 274 OFFCURVE",
"82 324 OFFCURVE",
"90 356 CURVE SMOOTH",
"98 385 OFFCURVE",
"109 399 OFFCURVE",
"125 399 CURVE SMOOTH"
);
}
);
width = 242;
}
);
leftKerningGroup = o;
note = o;
rightKerningGroup = o;
unicode = 006F;
},
{
glyphname = p;
layers = (
{
hints = (
{
horizontal = 1;
place = "{-171, 30}";
type = Stem;
},
{
horizontal = 1;
place = "{-7, 45}";
type = Stem;
},
{
horizontal = 1;
place = "{378, 45}";
type = Stem;
},
{
horizontal = 1;
place = "{460, -20}";
target = down;
type = TopGhost;
},
{
place = "{40, 68}";
type = Stem;
},
{
place = "{201, 69}";
type = Stem;
},
{
horizontal = 1;
place = "{414, 36}";
type = Stem;
}
);
layerId = "8AA200AC-43EB-4C51-877F-34011B5AD0E7";
paths = (
{
closed = 1;
nodes = (
"-14 -181 LINE",
"-8 -179 LINE",
"-7 -179 OFFCURVE",
"42 -171 OFFCURVE",
"75 -171 CURVE SMOOTH",
"106 -171 OFFCURVE",
"155 -179 OFFCURVE",
"156 -179 CURVE",
"161 -181 LINE",
"161 -141 LINE",
"157 -141 LINE",
"157 -141 OFFCURVE",
"144 -140 OFFCURVE",
"132 -137 CURVE SMOOTH",
"114 -133 OFFCURVE",
"109 -129 OFFCURVE",
"108 -128 CURVE",
"108 5 LINE",
"122 -3 OFFCURVE",
"138 -7 OFFCURVE",
"156 -7 CURVE SMOOTH",
"232 -7 OFFCURVE",
"270 65 OFFCURVE",
"270 204 CURVE SMOOTH",
"270 277 OFFCURVE",
"261 331 OFFCURVE",
"243 367 CURVE SMOOTH",
"224 404 OFFCURVE",
"194 423 OFFCURVE",
"156 423 CURVE SMOOTH",
"138 423 OFFCURVE",
"123 418 OFFCURVE",
"108 410 CURVE",
"108 460 LINE",
"102 458 LINE",
"102 458 OFFCURVE",
"71 450 OFFCURVE",
"53 450 CURVE SMOOTH",
"36 450 OFFCURVE",
"0 456 OFFCURVE",
"-1 456 CURVE",
"-6 458 LINE",
"-6 414 LINE",
"-2 414 LINE",
"-2 414 OFFCURVE",
"9 413 OFFCURVE",
"19 411 CURVE SMOOTH",
"35 407 OFFCURVE",
"39 404 OFFCURVE",
"40 403 CURVE",
"40 -128 LINE",
"39 -130 OFFCURVE",
"35 -133 OFFCURVE",
"16 -137 CURVE SMOOTH",
"3 -140 OFFCURVE",
"-9 -141 OFFCURVE",
"-9 -141 CURVE",
"-14 -141 LINE"
);
},
{
closed = 1;
nodes = (
"170 378 OFFCURVE",
"181 364 OFFCURVE",
"188 336 CURVE SMOOTH",
"197 306 OFFCURVE",
"201 262 OFFCURVE",
"201 204 CURVE SMOOTH",
"201 135 OFFCURVE",
"191 94 OFFCURVE",
"182 72 CURVE SMOOTH",
"172 47 OFFCURVE",
"161 38 OFFCURVE",
"156 38 CURVE SMOOTH",
"139 38 OFFCURVE",
"130 60 OFFCURVE",
"124 78 CURVE SMOOTH",
"116 108 OFFCURVE",
"112 150 OFFCURVE",
"112 204 CURVE SMOOTH",
"112 348 OFFCURVE",
"128 378 OFFCURVE",
"156 378 CURVE SMOOTH"
);
}
);
width = 274;
}
);
leftKerningGroup = p;
note = p;
rightKerningGroup = p;
unicode = 0070;
},
{
glyphname = q;
layers = (
{
hints = (
{
horizontal = 1;
place = "{-220, 30}";
type = Stem;
},
{
horizontal = 1;
place = "{-6, 44}";
type = Stem;
},
{
horizontal = 1;
place = "{376, 42}";
type = Stem;
},
{
place = "{10, 70}";
type = Stem;
},
{
place = "{172, 70}";
type = Stem;
},
{
horizontal = 1;
place = "{361, 45}";
type = Stem;
}
);
layerId = "8AA200AC-43EB-4C51-877F-34011B5AD0E7";
paths = (
{
closed = 1;
nodes = (
"119 -230 LINE",
"125 -229 LINE SMOOTH",
"126 -229 OFFCURVE",
"175 -220 OFFCURVE",
"207 -220 CURVE SMOOTH",
"239 -220 OFFCURVE",
"288 -229 OFFCURVE",
"289 -229 CURVE SMOOTH",
"294 -230 LINE",
"294 -190 LINE",
"290 -190 LINE",
"290 -190 OFFCURVE",
"278 -189 OFFCURVE",
"265 -187 CURVE SMOOTH",
"246 -183 OFFCURVE",
"242 -179 OFFCURVE",
"242 -178 CURVE SMOOTH",
"242 373 LINE SMOOTH",
"242 374 OFFCURVE",
"246 376 OFFCURVE",
"258 376 CURVE SMOOTH",
"270 376 OFFCURVE",
"282 374 OFFCURVE",
"282 374 CURVE",
"288 373 LINE",
"288 423 LINE",
"282 422 LINE",
"282 422 OFFCURVE",
"245 418 OFFCURVE",
"227 418 CURVE SMOOTH",
"210 418 OFFCURVE",
"179 424 OFFCURVE",
"178 424 CURVE SMOOTH",
"172 425 LINE",
"172 393 LINE",
"158 402 OFFCURVE",
"142 406 OFFCURVE",
"125 406 CURVE SMOOTH",
"85 406 OFFCURVE",
"57 391 OFFCURVE",
"38 359 CURVE SMOOTH",
"20 327 OFFCURVE",
"10 277 OFFCURVE",
"10 205 CURVE SMOOTH",
"10 136 OFFCURVE",
"20 83 OFFCURVE",
"39 48 CURVE SMOOTH",
"58 12 OFFCURVE",
"87 -6 OFFCURVE",
"125 -6 CURVE SMOOTH",
"143 -6 OFFCURVE",
"159 -2 OFFCURVE",
"172 6 CURVE",
"172 -177 LINE SMOOTH",
"172 -179 OFFCURVE",
"167 -183 OFFCURVE",
"149 -186 CURVE SMOOTH",
"137 -189 OFFCURVE",
"124 -190 OFFCURVE",
"124 -190 CURVE",
"119 -190 LINE"
);
},
{
closed = 1;
nodes = (
"140 361 OFFCURVE",
"151 356 OFFCURVE",
"159 333 CURVE SMOOTH",
"166 311 OFFCURVE",
"170 271 OFFCURVE",
"170 205 CURVE SMOOTH",
"170 150 OFFCURVE",
"165 108 OFFCURVE",
"157 79 CURVE SMOOTH",
"151 60 OFFCURVE",
"141 38 OFFCURVE",
"125 38 CURVE SMOOTH",
"120 38 OFFCURVE",
"109 47 OFFCURVE",
"99 72 CURVE SMOOTH",
"90 94 OFFCURVE",
"80 135 OFFCURVE",
"80 205 CURVE SMOOTH",
"80 262 OFFCURVE",
"84 302 OFFCURVE",
"92 328 CURVE SMOOTH",
"103 361 OFFCURVE",
"119 361 OFFCURVE",
"125 361 CURVE SMOOTH"
);
}
);
width = 280;
}
);
leftKerningGroup = q;
note = q;
rightKerningGroup = q;
unicode = 0071;
},
{
glyphname = r;
layers = (
{
hints = (
{
horizontal = 1;
place = "{1, 30}";
type = Stem;
},
{
horizontal = 1;
place = "{378, 44}";
type = Stem;
},
{
place = "{36, 70}";
type = Stem;
},
{
place = "{179, 32}";
type = Stem;
},
{
horizontal = 1;
place = "{-7, 38}";
type = Stem;
},
{
place = "{126, 7}";
type = Stem;
},
{
horizontal = 1;
place = "{384, 41}";
type = Stem;
}
);
layerId = "8AA200AC-43EB-4C51-877F-34011B5AD0E7";
paths = (
{
closed = 1;
nodes = (
"133 -9 LINE",
"133 31 LINE",
"128 31 LINE",
"128 31 OFFCURVE",
"108 32 OFFCURVE",
"106 43 CURVE",
"106 213 LINE SMOOTH",
"106 345 OFFCURVE",
"110 378 OFFCURVE",
"148 378 CURVE SMOOTH",
"170 378 OFFCURVE",
"175 370 OFFCURVE",
"178 366 CURVE",
"179 366 OFFCURVE",
"179 366 OFFCURVE",
"179 366 CURVE",
"179 326 LINE",
"218 326 LINE",
"217 332 LINE",
"217 332 OFFCURVE",
"211 369 OFFCURVE",
"211 391 CURVE SMOOTH",
"211 412 OFFCURVE",
"217 449 OFFCURVE",
"217 449 CURVE",
"218 455 LINE",
"179 455 LINE",
"179 416 LINE",
"171 420 OFFCURVE",
"162 422 OFFCURVE",
"147 422 CURVE SMOOTH",
"132 422 OFFCURVE",
"119 418 OFFCURVE",
"106 409 CURVE",
"106 433 LINE",
"99 432 LINE",
"99 432 OFFCURVE",
"73 425 OFFCURVE",
"59 425 CURVE SMOOTH",
"45 425 OFFCURVE",
"16 432 OFFCURVE",
"16 432 CURVE",
"9 433 LINE",
"9 384 LINE",
"36 384 LINE",
"36 43 LINE",
"34 32 OFFCURVE",
"14 31 OFFCURVE",
"14 31 CURVE",
"9 31 LINE",
"9 -7 LINE",
"16 -6 LINE",
"16 -6 OFFCURVE",
"42 1 OFFCURVE",
"67 1 CURVE SMOOTH",
"92 1 OFFCURVE",
"126 -8 OFFCURVE",
"126 -8 CURVE"
);
}
);
width = 219;
}
);
leftKerningGroup = r;
note = r;
rightKerningGroup = r;
unicode = 0072;
},
{
glyphname = s;
layers = (
{
hints = (
{
horizontal = 1;
place = "{-19, 35}";
type = Stem;
},
{
horizontal = 1;
place = "{417, 35}";
type = Stem;
},
{
place = "{16, 33}";
type = Stem;
},
{
place = "{178, 32}";
type = Stem;
},
{
place = "{20, 67}";
type = Stem;
},
{
place = "{164, 68}";
type = Stem;
},
{
horizontal = 1;
place = "{-13, 21}";
target = up;
type = BottomGhost;
},
{
horizontal = 1;
place = "{1, 21}";
target = up;
type = BottomGhost;
}
);
layerId = "8AA200AC-43EB-4C51-877F-34011B5AD0E7";
paths = (
{
closed = 1;
nodes = (
"154 -19 OFFCURVE",
"183 -8 OFFCURVE",
"203 14 CURVE SMOOTH",
"222 36 OFFCURVE",
"232 68 OFFCURVE",
"232 106 CURVE SMOOTH",
"232 175 OFFCURVE",
"188 215 OFFCURVE",
"149 250 CURVE SMOOTH",
"148 251 LINE SMOOTH",
"146 252 OFFCURVE",
"144 254 OFFCURVE",
"142 256 CURVE SMOOTH",
"118 278 OFFCURVE",
"95 300 OFFCURVE",
"90 326 CURVE",
"90 326 LINE",
"84 359 OFFCURVE",
"87 386 OFFCURVE",
"100 402 CURVE SMOOTH",
"109 412 OFFCURVE",
"120 417 OFFCURVE",
"134 417 CURVE SMOOTH",
"164 417 OFFCURVE",
"178 395 OFFCURVE",
"178 350 CURVE SMOOTH",
"179 299 LINE",
"217 299 LINE",
"216 305 LINE",
"216 305 OFFCURVE",
"210 353 OFFCURVE",
"210 382 CURVE SMOOTH",
"210 399 OFFCURVE",
"212 422 OFFCURVE",
"215 449 CURVE SMOOTH",
"215 451 OFFCURVE",
"215 452 OFFCURVE",
"215 453 CURVE SMOOTH",
"217 466 LINE",
"178 466 LINE",
"178 437 LINE",
"166 447 OFFCURVE",
"150 452 OFFCURVE",
"134 452 CURVE SMOOTH",
"98 452 OFFCURVE",
"70 441 OFFCURVE",
"50 418 CURVE SMOOTH",
"30 396 OFFCURVE",
"20 365 OFFCURVE",
"20 324 CURVE SMOOTH",
"20 269 OFFCURVE",
"63 228 OFFCURVE",
"100 191 CURVE SMOOTH",
"102 189 LINE SMOOTH",
"129 164 OFFCURVE",
"161 135 OFFCURVE",
"164 104 CURVE SMOOTH",
"167 74 OFFCURVE",
"160 43 OFFCURVE",
"146 27 CURVE SMOOTH",
"139 20 OFFCURVE",
"131 16 OFFCURVE",
"122 16 CURVE SMOOTH",
"121 16 OFFCURVE",
"120 16 OFFCURVE",
"119 16 CURVE SMOOTH",
"91 18 OFFCURVE",
"58 29 OFFCURVE",
"49 53 CURVE",
"49 148 LINE",
"10 148 LINE",
"11 142 LINE",
"11 142 OFFCURVE",
"16 94 OFFCURVE",
"16 65 CURVE SMOOTH",
"16 35 OFFCURVE",
"11 -13 OFFCURVE",
"11 -13 CURVE",
"10 -19 LINE",
"49 -19 LINE",
"49 1 LINE",
"68 -12 OFFCURVE",
"91 -19 OFFCURVE",
"119 -19 CURVE SMOOTH"
);
}
);
width = 227;
}
);
leftKerningGroup = s;
note = s;
rightKerningGroup = s;
unicode = 0073;
},
{
glyphname = t;
layers = (
{
hints = (
{
horizontal = 1;
place = "{-44, 34}";
type = Stem;
},
{
horizontal = 1;
place = "{384, 37}";
type = Stem;
},
{
horizontal = 1;
place = "{580, 31}";
type = Stem;
},
{
place = "{47, 69}";
type = Stem;
},
{
place = "{193, 33}";
type = Stem;
}
);
layerId = "8AA200AC-43EB-4C51-877F-34011B5AD0E7";
paths = (
{
closed = 1;
nodes = (
"232 -44 LINE",
"231 -38 LINE",
"231 -38 OFFCURVE",
"226 9 OFFCURVE",
"226 39 CURVE SMOOTH",
"226 68 OFFCURVE",
"231 116 OFFCURVE",
"231 116 CURVE",
"232 122 LINE",
"193 122 LINE",
"193 26 LINE SMOOTH",
"193 1 OFFCURVE",
"169 -10 OFFCURVE",
"146 -10 CURVE SMOOTH",
"120 -10 OFFCURVE",
"116 44 OFFCURVE",
"116 77 CURVE SMOOTH",
"116 384 LINE",
"172 384 LINE",
"172 421 LINE",
"116 421 LINE",
"116 624 LINE",
"99 618 LINE",
"99 618 LINE",
"99 618 OFFCURVE",
"85 611 OFFCURVE",
"68 611 CURVE SMOOTH",
"51 611 OFFCURVE",
"27 618 OFFCURVE",
"26 618 CURVE",
"20 620 LINE",
"20 580 LINE",
"25 580 LINE",
"25 580 OFFCURVE",
"45 580 OFFCURVE",
"47 569 CURVE",
"47 421 LINE",
"10 421 LINE",
"10 384 LINE",
"47 384 LINE",
"47 77 LINE SMOOTH",
"48 25 OFFCURVE",
"59 -44 OFFCURVE",
"145 -44 CURVE SMOOTH",
"164 -44 OFFCURVE",
"180 -40 OFFCURVE",
"193 -33 CURVE",
"193 -44 LINE"
);
}
);
width = 227;
}
);
leftKerningGroup = t;
note = t;
rightKerningGroup = t;
unicode = 0074;
},
{
glyphname = u;
layers = (
{
hints = (
{
horizontal = 1;
place = "{-6, 44}";
type = Stem;
},
{
horizontal = 1;
place = "{423, 31}";
type = Stem;
},
{
place = "{0, 70}";
type = Stem;
},
{
place = "{161, 70}";
type = Stem;
},
{
horizontal = 1;
place = "{-34, 31}";
type = Stem;
},
{
horizontal = 1;
place = "{384, 31}";
type = Stem;
}
);
layerId = "8AA200AC-43EB-4C51-877F-34011B5AD0E7";
paths = (
{
closed = 1;
nodes = (
"258 -46 LINE",
"258 -8 LINE",
"258 -3 LINE",
"253 -3 LINE SMOOTH",
"252 -3 OFFCURVE",
"231 -3 OFFCURVE",
"231 12 CURVE SMOOTH",
"231 373 LINE",
"233 384 OFFCURVE",
"252 384 OFFCURVE",
"253 384 CURVE SMOOTH",
"258 384 LINE",
"258 427 LINE",
"251 425 LINE SMOOTH",
"250 425 OFFCURVE",
"225 415 OFFCURVE",
"201 415 CURVE SMOOTH",
"175 415 OFFCURVE",
"141 424 OFFCURVE",
"141 424 CURVE",
"134 425 LINE",
"134 390 LINE",
"134 385 LINE",
"139 385 LINE",
"139 385 OFFCURVE",
"159 384 OFFCURVE",
"161 373 CURVE",
"161 203 LINE SMOOTH",
"161 137 OFFCURVE",
"155 90 OFFCURVE",
"142 62 CURVE SMOOTH",
"134 46 OFFCURVE",
"125 38 OFFCURVE",
"115 38 CURVE SMOOTH",
"105 38 OFFCURVE",
"91 42 OFFCURVE",
"81 74 CURVE SMOOTH",
"73 101 OFFCURVE",
"70 143 OFFCURVE",
"70 203 CURVE SMOOTH",
"70 412 LINE",
"72 420 OFFCURVE",
"87 423 OFFCURVE",
"92 423 CURVE SMOOTH",
"97 423 LINE",
"97 466 LINE",
"90 464 LINE SMOOTH",
"89 464 OFFCURVE",
"63 454 OFFCURVE",
"39 454 CURVE SMOOTH",
"14 454 OFFCURVE",
"-20 463 OFFCURVE",
"-20 463 CURVE",
"-27 465 LINE",
"-27 423 LINE",
"-22 423 LINE",
"-22 423 OFFCURVE",
"-3 422 OFFCURVE",
"0 412 CURVE",
"0 203 LINE SMOOTH",
"0 132 OFFCURVE",
"7 85 OFFCURVE",
"22 53 CURVE SMOOTH",
"39 13 OFFCURVE",
"70 -6 OFFCURVE",
"115 -6 CURVE SMOOTH",
"133 -6 OFFCURVE",
"148 -2 OFFCURVE",
"161 6 CURVE",
"161 -46 LINE",
"168 -44 LINE SMOOTH",
"169 -44 OFFCURVE",
"194 -34 OFFCURVE",
"210 -34 CURVE SMOOTH",
"226 -34 OFFCURVE",
"250 -44 OFFCURVE",
"251 -44 CURVE SMOOTH"
);
}
);
width = 256;
}
);
leftKerningGroup = u;
note = u;
rightKerningGroup = u;
unicode = 0075;
},
{
glyphname = v;
layers = (
{
hints = (
{
horizontal = 1;
place = "{-5, 21}";
target = up;
type = BottomGhost;
},
{
horizontal = 1;
place = "{424, 31}";
type = Stem;
},
{
place = "{-3, 124}";
type = Stem;
},
{
place = "{153, 122}";
type = Stem;
},
{
place = "{68, 131}";
type = Stem;
},
{
horizontal = 1;
place = "{-4, 39}";
type = Stem;
},
{
horizontal = 1;
place = "{381, 31}";
type = Stem;
}
);
layerId = "8AA200AC-43EB-4C51-877F-34011B5AD0E7";
paths = (
{
closed = 1;
nodes = (
"68 -7 LINE",
"75 -5 LINE",
"75 -5 OFFCURVE",
"103 4 OFFCURVE",
"130 4 CURVE SMOOTH",
"157 4 OFFCURVE",
"193 -4 OFFCURVE",
"194 -4 CURVE SMOOTH",
"199 -5 LINE",
"199 35 LINE",
"195 35 LINE SMOOTH",
"190 35 OFFCURVE",
"175 38 OFFCURVE",
"173 45 CURVE",
"231 367 LINE",
"235 373 OFFCURVE",
"255 379 OFFCURVE",
"271 382 CURVE SMOOTH",
"275 383 LINE",
"275 424 LINE",
"269 422 LINE",
"269 422 OFFCURVE",
"242 412 OFFCURVE",
"219 412 CURVE SMOOTH",
"194 412 OFFCURVE",
"159 421 OFFCURVE",
"159 421 CURVE",
"153 422 LINE",
"153 381 LINE",
"158 381 LINE SMOOTH",
"167 381 OFFCURVE",
"188 378 OFFCURVE",
"191 371 CURVE",
"149 134 LINE",
"98 414 LINE",
"100 424 OFFCURVE",
"115 424 OFFCURVE",
"116 424 CURVE SMOOTH",
"121 424 LINE",
"121 467 LINE",
"114 465 LINE SMOOTH",
"113 465 OFFCURVE",
"87 455 OFFCURVE",
"64 455 CURVE SMOOTH",
"38 455 OFFCURVE",
"4 464 OFFCURVE",
"4 464 CURVE",
"-3 465 LINE",
"-3 429 LINE",
"-3 424 LINE",
"2 424 LINE SMOOTH",
"3 424 OFFCURVE",
"26 424 OFFCURVE",
"29 412 CURVE SMOOTH",
"95 45 LINE",
"91 36 OFFCURVE",
"73 35 OFFCURVE",
"73 35 CURVE",
"68 35 LINE"
);
}
);
width = 260;
}
);
note = v;
unicode = 0076;
},
{
glyphname = w;
layers = (
{
hints = (
{
horizontal = 1;
place = "{1, 30}";
type = Stem;
},
{
horizontal = 1;
place = "{360, 31}";
type = Stem;
},
{
horizontal = 1;
place = "{424, 31}";
type = Stem;
},
{
place = "{127, 7}";
type = Stem;
},
{
place = "{274, 7}";
type = Stem;
},
{
place = "{418, 7}";
type = Stem;
},
{
horizontal = 1;
place = "{-35, 31}";
type = Stem;
},
{
place = "{221, 132}";
type = Stem;
},
{
horizontal = 1;
place = "{-11, 7}";
type = Stem;
},
{
horizontal = 1;
place = "{383, 31}";
type = Stem;
},
{
place = "{81, 132}";
type = Stem;
},
{
horizontal = 1;
place = "{-9, 40}";
type = Stem;
}
);
layerId = "8AA200AC-43EB-4C51-877F-34011B5AD0E7";
paths = (
{
closed = 1;
nodes = (
"221 -46 LINE",
"227 -44 LINE",
"228 -44 OFFCURVE",
"256 -35 OFFCURVE",
"282 -35 CURVE SMOOTH",
"310 -35 OFFCURVE",
"347 -43 OFFCURVE",
"347 -43 CURVE",
"353 -44 LINE",
"353 -4 LINE",
"348 -4 LINE SMOOTH",
"343 -4 OFFCURVE",
"328 -1 OFFCURVE",
"325 7 CURVE",
"382 370 LINE",
"387 375 OFFCURVE",
"407 381 OFFCURVE",
"421 384 CURVE SMOOTH",
"425 385 LINE",
"425 426 LINE",
"418 424 LINE",
"418 424 OFFCURVE",
"393 414 OFFCURVE",
"368 414 CURVE SMOOTH",
"343 414 OFFCURVE",
"309 423 OFFCURVE",
"308 423 CURVE SMOOTH",
"302 424 LINE",
"302 383 LINE",
"307 383 LINE SMOOTH",
"319 383 OFFCURVE",
"338 379 OFFCURVE",
"342 372 CURVE",
"301 113 LINE",
"258 350 LINE",
"261 360 OFFCURVE",
"276 360 OFFCURVE",
"276 360 CURVE",
"281 360 LINE",
"281 403 LINE",
"274 401 LINE",
"274 401 OFFCURVE",
"248 391 OFFCURVE",
"224 391 CURVE SMOOTH",
"199 391 OFFCURVE",
"165 400 OFFCURVE",
"164 400 CURVE SMOOTH",
"158 401 LINE",
"158 365 LINE",
"158 360 LINE",
"163 360 LINE SMOOTH",
"171 360 OFFCURVE",
"187 357 OFFCURVE",
"189 350 CURVE SMOOTH",
"195 316 LINE",
"161 131 LINE",
"110 414 LINE",
"114 424 OFFCURVE",
"129 424 OFFCURVE",
"129 424 CURVE",
"134 424 LINE",
"134 467 LINE",
"127 465 LINE",
"127 465 OFFCURVE",
"101 455 OFFCURVE",
"76 455 CURVE SMOOTH",
"51 455 OFFCURVE",
"17 464 OFFCURVE",
"16 464 CURVE SMOOTH",
"10 465 LINE",
"11 424 LINE",
"16 424 LINE SMOOTH",
"22 424 OFFCURVE",
"40 422 OFFCURVE",
"42 412 CURVE SMOOTH",
"108 41 LINE",
"105 34 OFFCURVE",
"91 31 OFFCURVE",
"86 31 CURVE SMOOTH",
"81 31 LINE",
"81 -11 LINE",
"88 -9 LINE",
"88 -9 OFFCURVE",
"115 1 OFFCURVE",
"142 1 CURVE SMOOTH",
"170 1 OFFCURVE",
"207 -8 OFFCURVE",
"207 -8 CURVE",
"213 -9 LINE",
"213 31 LINE",
"208 31 LINE SMOOTH",
"203 31 OFFCURVE",
"189 34 OFFCURVE",
"186 41 CURVE",
"215 207 LINE",
"249 7 LINE",
"246 -1 OFFCURVE",
"231 -4 OFFCURVE",
"226 -4 CURVE SMOOTH",
"221 -4 LINE"
);
}
);
width = 414;
}
);
note = w;
unicode = 0077;
},
{
glyphname = x;
layers = (
{
hints = (
{
horizontal = 1;
place = "{-9, 21}";
target = up;
type = BottomGhost;
},
{
horizontal = 1;
place = "{423, 31}";
type = Stem;
},
{
place = "{102, 7}";
type = Stem;
},
{
place = "{242, 7}";
type = Stem;
},
{
horizontal = 1;
place = "{-34, 30}";
type = Stem;
},
{
place = "{153, 123}";
type = Stem;
},
{
horizontal = 1;
place = "{-11, 7}";
type = Stem;
},
{
horizontal = 1;
place = "{383, 31}";
type = Stem;
},
{
place = "{126, 79}";
type = Stem;
},
{
place = "{-14, 123}";
type = Stem;
},
{
horizontal = 1;
place = "{1, 30}";
type = Stem;
}
);
layerId = "8AA200AC-43EB-4C51-877F-34011B5AD0E7";
paths = (
{
closed = 1;
nodes = (
"153 -46 LINE",
"160 -44 LINE",
"160 -44 OFFCURVE",
"186 -34 OFFCURVE",
"210 -34 CURVE SMOOTH",
"235 -34 OFFCURVE",
"269 -43 OFFCURVE",
"270 -43 CURVE SMOOTH",
"276 -44 LINE",
"276 -4 LINE",
"271 -4 LINE",
"271 -4 OFFCURVE",
"247 -3 OFFCURVE",
"243 10 CURVE",
"243 11 LINE",
"152 244 LINE",
"205 368 LINE SMOOTH",
"207 374 OFFCURVE",
"227 381 OFFCURVE",
"245 384 CURVE SMOOTH",
"249 385 LINE",
"249 426 LINE",
"242 424 LINE",
"242 424 OFFCURVE",
"216 414 OFFCURVE",
"192 414 CURVE SMOOTH",
"167 414 OFFCURVE",
"133 423 OFFCURVE",
"132 423 CURVE",
"126 425 LINE",
"126 383 LINE",
"131 383 LINE SMOOTH",
"143 383 OFFCURVE",
"160 380 OFFCURVE",
"165 374 CURVE",
"132 297 LINE",
"87 416 LINE",
"91 421 OFFCURVE",
"101 423 OFFCURVE",
"104 423 CURVE SMOOTH",
"109 423 LINE",
"109 466 LINE",
"102 464 LINE",
"102 464 OFFCURVE",
"76 454 OFFCURVE",
"52 454 CURVE SMOOTH",
"27 454 OFFCURVE",
"-7 463 OFFCURVE",
"-8 463 CURVE",
"-14 465 LINE",
"-14 428 LINE",
"-14 423 LINE",
"-9 423 LINE SMOOTH",
"-2 423 OFFCURVE",
"16 420 OFFCURVE",
"19 410 CURVE",
"19 409 LINE",
"96 208 LINE",
"30 46 LINE SMOOTH",
"28 41 OFFCURVE",
"8 34 OFFCURVE",
"-10 31 CURVE SMOOTH",
"-14 30 LINE",
"-14 -11 LINE",
"-7 -9 LINE",
"-7 -9 OFFCURVE",
"19 1 OFFCURVE",
"43 1 CURVE SMOOTH",
"68 1 OFFCURVE",
"102 -8 OFFCURVE",
"103 -8 CURVE SMOOTH",
"109 -9 LINE",
"109 31 LINE",
"104 31 LINE SMOOTH",
"95 31 OFFCURVE",
"75 34 OFFCURVE",
"71 41 CURVE",
"116 155 LINE",
"175 4 LINE",
"171 -3 OFFCURVE",
"158 -4 OFFCURVE",
"158 -4 CURVE",
"153 -4 LINE"
);
}
);
width = 242;
}
);
leftKerningGroup = x;
note = x;
rightKerningGroup = x;
unicode = 0078;
},
{
glyphname = y;
layers = (
{
hints = (
{
horizontal = 1;
place = "{1, 21}";
target = up;
type = BottomGhost;
},
{
horizontal = 1;
place = "{423, 31}";
type = Stem;
},
{
place = "{117, 69}";
type = Stem;
},
{
horizontal = 1;
place = "{-10, 21}";
target = up;
type = BottomGhost;
},
{
place = "{207, 7}";
type = Stem;
},
{
horizontal = 1;
place = "{1, 29}";
type = Stem;
},
{
horizontal = 1;
place = "{387, 31}";
type = Stem;
},
{
place = "{11, 123}";
type = Stem;
},
{
place = "{170, 122}";
type = Stem;
}
);
layerId = "8AA200AC-43EB-4C51-877F-34011B5AD0E7";
paths = (
{
closed = 1;
nodes = (
"90 -12 LINE",
"97 -9 LINE",
"98 -9 OFFCURVE",
"123 1 OFFCURVE",
"147 1 CURVE SMOOTH",
"173 1 OFFCURVE",
"207 -8 OFFCURVE",
"207 -8 CURVE",
"214 -10 LINE",
"214 25 LINE",
"214 30 LINE",
"209 30 LINE",
"209 31 OFFCURVE",
"189 32 OFFCURVE",
"186 42 CURVE",
"186 198 LINE",
"248 372 LINE",
"252 378 OFFCURVE",
"272 384 OFFCURVE",
"288 387 CURVE SMOOTH",
"292 388 LINE",
"292 430 LINE",
"286 427 LINE",
"286 427 OFFCURVE",
"259 418 OFFCURVE",
"236 418 CURVE SMOOTH",
"210 418 OFFCURVE",
"176 426 OFFCURVE",
"176 426 CURVE",
"170 428 LINE",
"170 387 LINE",
"174 387 LINE SMOOTH",
"184 387 OFFCURVE",
"204 384 OFFCURVE",
"208 377 CURVE",
"164 266 LINE",
"111 413 LINE",
"114 422 OFFCURVE",
"129 423 OFFCURVE",
"129 423 CURVE",
"134 423 LINE",
"134 466 LINE",
"127 463 LINE",
"126 463 OFFCURVE",
"100 454 OFFCURVE",
"76 454 CURVE SMOOTH",
"51 454 OFFCURVE",
"17 462 OFFCURVE",
"17 462 CURVE",
"11 464 LINE",
"11 428 LINE",
"11 423 LINE",
"16 423 LINE",
"16 423 OFFCURVE",
"40 422 OFFCURVE",
"42 411 CURVE SMOOTH",
"42 410 LINE",
"117 198 LINE",
"117 42 LINE",
"114 32 OFFCURVE",
"95 31 OFFCURVE",
"95 30 CURVE",
"90 30 LINE"
);
}
);
width = 258;
}
);
leftKerningGroup = y;
note = y;
rightKerningGroup = y;
unicode = 0079;
},
{
glyphname = z;
layers = (
{
hints = (
{
horizontal = 1;
place = "{-1, 39}";
type = Stem;
},
{
horizontal = 1;
place = "{377, 39}";
type = Stem;
},
{
place = "{45, 33}";
type = Stem;
},
{
place = "{231, 32}";
type = Stem;
},
{
horizontal = 1;
place = "{-5, 43}";
type = Stem;
}
);
layerId = "8AA200AC-43EB-4C51-877F-34011B5AD0E7";
paths = (
{
closed = 1;
nodes = (
"264 -19 LINE",
"270 -19 LINE",
"269 -14 LINE SMOOTH",
"269 -13 OFFCURVE",
"263 30 OFFCURVE",
"263 58 CURVE SMOOTH",
"263 85 OFFCURVE",
"269 128 OFFCURVE",
"269 129 CURVE SMOOTH",
"270 134 LINE",
"231 134 LINE",
"231 38 LINE",
"105 38 LINE",
"257 369 LINE",
"257 370 LINE SMOOTH",
"258 373 OFFCURVE",
"271 385 OFFCURVE",
"284 385 CURVE SMOOTH",
"302 385 LINE",
"294 423 LINE",
"290 422 LINE SMOOTH",
"289 422 OFFCURVE",
"208 416 OFFCURVE",
"157 416 CURVE SMOOTH",
"124 416 OFFCURVE",
"97 418 OFFCURVE",
"82 420 CURVE SMOOTH",
"80 420 OFFCURVE",
"79 420 OFFCURVE",
"78 420 CURVE",
"78 434 LINE",
"38 434 LINE",
"39 429 LINE SMOOTH",
"39 428 OFFCURVE",
"45 385 OFFCURVE",
"45 358 CURVE SMOOTH",
"45 330 OFFCURVE",
"39 287 OFFCURVE",
"39 286 CURVE SMOOTH",
"38 281 LINE",
"78 281 LINE",
"78 377 LINE",
"189 377 LINE",
"37 46 LINE SMOOTH",
"33 37 OFFCURVE",
"19 32 OFFCURVE",
"14 30 CURVE SMOOTH",
"10 29 LINE",
"10 -7 LINE",
"15 -6 LINE SMOOTH",
"16 -6 OFFCURVE",
"92 -1 OFFCURVE",
"144 -1 CURVE SMOOTH",
"179 -1 OFFCURVE",
"208 -3 OFFCURVE",
"225 -5 CURVE SMOOTH",
"227 -5 OFFCURVE",
"229 -5 OFFCURVE",
"231 -5 CURVE",
"231 -19 LINE"
);
}
);
width = 281;
}
);
leftKerningGroup = z;
note = z;
rightKerningGroup = z;
unicode = 007A;
},
{
glyphname = one;
layers = (
{
hints = (
{
horizontal = 1;
place = "{-5, 42}";
type = Stem;
},
{
horizontal = 1;
place = "{583, 31}";
type = Stem;
},
{
place = "{63, 68}";
type = Stem;
},
{
place = "{131, 53}";
type = Stem;
}
);
layerId = "8AA200AC-43EB-4C51-877F-34011B5AD0E7";
paths = (
{
closed = 1;
nodes = (
"184 -6 LINE",
"184 33 LINE",
"179 34 OFFCURVE",
"167 35 OFFCURVE",
"155 37 CURVE SMOOTH",
"135 41 OFFCURVE",
"131 45 OFFCURVE",
"131 45 CURVE",
"131 624 LINE",
"125 622 LINE",
"124 622 OFFCURVE",
"94 614 OFFCURVE",
"77 614 CURVE SMOOTH",
"59 614 OFFCURVE",
"32 620 OFFCURVE",
"16 621 CURVE",
"16 583 LINE",
"21 583 LINE",
"21 583 OFFCURVE",
"31 582 OFFCURVE",
"42 580 CURVE SMOOTH",
"58 577 OFFCURVE",
"62 573 OFFCURVE",
"63 572 CURVE",
"63 46 LINE",
"62 45 OFFCURVE",
"58 41 OFFCURVE",
"39 37 CURVE SMOOTH",
"27 35 OFFCURVE",
"15 34 OFFCURVE",
"10 33 CURVE",
"10 -6 LINE",
"16 -5 LINE",
"16 -5 OFFCURVE",
"66 3 OFFCURVE",
"97 3 CURVE SMOOTH",
"128 3 OFFCURVE",
"178 -5 OFFCURVE",
"178 -5 CURVE"
);
}
);
width = 194;
}
);
note = one;
unicode = 0031;
},
{
glyphname = two;
layers = (
{
hints = (
{
horizontal = 1;
place = "{-5, 61}";
type = Stem;
},
{
horizontal = 1;
place = "{581, 41}";
type = Stem;
},
{
place = "{52, 33}";
type = Stem;
},
{
place = "{238, 32}";
type = Stem;
},
{
place = "{10, 102}";
type = Stem;
},
{
place = "{222, 65}";
type = Stem;
},
{
horizontal = 1;
place = "{369, 241}";
type = Stem;
},
{
horizontal = 1;
place = "{-5, 39}";
type = Stem;
},
{
horizontal = 1;
place = "{3, 53}";
type = Stem;
},
{
horizontal = 1;
place = "{-2, 21}";
target = up;
type = BottomGhost;
}
);
layerId = "8AA200AC-43EB-4C51-877F-34011B5AD0E7";
paths = (
{
closed = 1;
nodes = (
"277 -23 LINE",
"277 -17 LINE",
"276 -17 OFFCURVE",
"270 52 OFFCURVE",
"270 98 CURVE SMOOTH",
"270 144 OFFCURVE",
"276 213 OFFCURVE",
"277 214 CURVE",
"277 219 LINE",
"238 219 LINE",
"238 56 LINE",
"112 56 LINE",
"114 75 OFFCURVE",
"120 113 OFFCURVE",
"133 159 CURVE SMOOTH",
"148 210 OFFCURVE",
"192 266 OFFCURVE",
"231 316 CURVE SMOOTH",
"233 319 LINE",
"243 332 LINE SMOOTH",
"268 364 OFFCURVE",
"283 403 OFFCURVE",
"287 443 CURVE SMOOTH",
"291 483 OFFCURVE",
"284 523 OFFCURVE",
"266 557 CURVE SMOOTH",
"245 597 OFFCURVE",
"210 622 OFFCURVE",
"174 622 CURVE SMOOTH",
"149 622 OFFCURVE",
"128 614 OFFCURVE",
"112 599 CURVE SMOOTH",
"101 588 OFFCURVE",
"92 575 OFFCURVE",
"85 558 CURVE",
"85 610 LINE",
"45 610 LINE",
"45 605 LINE",
"46 604 OFFCURVE",
"52 536 OFFCURVE",
"52 490 CURVE SMOOTH",
"52 443 OFFCURVE",
"46 375 OFFCURVE",
"45 375 CURVE",
"45 369 LINE",
"98 369 LINE",
"98 374 LINE SMOOTH",
"98 376 OFFCURVE",
"93 518 OFFCURVE",
"140 566 CURVE SMOOTH",
"149 576 OFFCURVE",
"161 581 OFFCURVE",
"174 581 CURVE SMOOTH",
"191 581 OFFCURVE",
"205 567 OFFCURVE",
"214 541 CURVE SMOOTH",
"223 510 OFFCURVE",
"225 477 OFFCURVE",
"219 445 CURVE SMOOTH",
"212 412 OFFCURVE",
"198 382 OFFCURVE",
"177 357 CURVE SMOOTH",
"101 268 OFFCURVE",
"60 165 OFFCURVE",
"54 52 CURVE SMOOTH",
"53 44 LINE",
"50 40 OFFCURVE",
"33 36 OFFCURVE",
"15 34 CURVE SMOOTH",
"10 34 LINE",
"10 -6 LINE",
"16 -5 LINE SMOOTH",
"17 -5 OFFCURVE",
"87 3 OFFCURVE",
"136 3 CURVE SMOOTH",
"174 3 OFFCURVE",
"218 0 OFFCURVE",
"238 -2 CURVE",
"238 -23 LINE"
);
}
);
width = 298;
}
);
note = two;
unicode = 0032;
},
{
glyphname = three;
layers = (
{
hints = (
{
horizontal = 1;
place = "{-4, 41}";
type = Stem;
},
{
horizontal = 1;
place = "{581, 41}";
type = Stem;
},
{
place = "{15, 33}";
type = Stem;
},
{
place = "{181, 60}";
type = Stem;
},
{
place = "{188, 60}";
type = Stem;
},
{
horizontal = 1;
place = "{369, 241}";
type = Stem;
}
);
layerId = "8AA200AC-43EB-4C51-877F-34011B5AD0E7";
paths = (
{
closed = 1;
nodes = (
"48 -21 LINE",
"48 32 LINE",
"54 22 OFFCURVE",
"61 15 OFFCURVE",
"70 9 CURVE SMOOTH",
"84 0 OFFCURVE",
"100 -4 OFFCURVE",
"122 -4 CURVE SMOOTH",
"163 -4 OFFCURVE",
"195 9 OFFCURVE",
"216 33 CURVE SMOOTH",
"237 58 OFFCURVE",
"248 94 OFFCURVE",
"248 142 CURVE SMOOTH",
"248 228 OFFCURVE",
"191 262 OFFCURVE",
"160 274 CURVE",
"187 309 OFFCURVE",
"241 388 OFFCURVE",
"241 466 CURVE SMOOTH",
"241 526 OFFCURVE",
"227 570 OFFCURVE",
"199 596 CURVE SMOOTH",
"176 619 OFFCURVE",
"148 622 OFFCURVE",
"134 622 CURVE SMOOTH",
"111 622 OFFCURVE",
"91 615 OFFCURVE",
"75 602 CURVE SMOOTH",
"64 593 OFFCURVE",
"55 581 OFFCURVE",
"48 566 CURVE",
"48 610 LINE",
"9 610 LINE",
"10 605 LINE SMOOTH",
"10 604 OFFCURVE",
"15 536 OFFCURVE",
"15 490 CURVE SMOOTH",
"15 443 OFFCURVE",
"10 375 OFFCURVE",
"10 375 CURVE",
"9 369 LINE",
"58 369 LINE",
"58 375 LINE SMOOTH",
"58 376 OFFCURVE",
"50 515 OFFCURVE",
"96 564 CURVE SMOOTH",
"107 576 OFFCURVE",
"119 581 OFFCURVE",
"134 581 CURVE SMOOTH",
"151 581 OFFCURVE",
"166 566 OFFCURVE",
"173 541 CURVE",
"173 541 LINE",
"179 523 OFFCURVE",
"187 488 OFFCURVE",
"177 441 CURVE SMOOTH",
"165 385 OFFCURVE",
"132 330 OFFCURVE",
"79 277 CURVE",
"77 274 LINE",
"84 256 LINE",
"88 256 LINE SMOOTH",
"103 256 OFFCURVE",
"133 250 OFFCURVE",
"160 213 CURVE SMOOTH",
"177 190 OFFCURVE",
"188 160 OFFCURVE",
"188 138 CURVE SMOOTH",
"188 109 OFFCURVE",
"183 86 OFFCURVE",
"175 70 CURVE SMOOTH",
"164 48 OFFCURVE",
"147 37 OFFCURVE",
"122 37 CURVE SMOOTH",
"110 37 OFFCURVE",
"99 42 OFFCURVE",
"91 51 CURVE SMOOTH",
"47 98 OFFCURVE",
"58 242 OFFCURVE",
"58 244 CURVE SMOOTH",
"58 249 LINE",
"9 249 LINE",
"10 244 LINE SMOOTH",
"10 243 OFFCURVE",
"15 167 OFFCURVE",
"15 114 CURVE SMOOTH",
"15 62 OFFCURVE",
"10 -15 OFFCURVE",
"10 -16 CURVE SMOOTH",
"9 -21 LINE"
);
}
);
width = 258;
}
);
note = three;
unicode = 0033;
},
{
glyphname = four;
layers = (
{
hints = (
{
horizontal = 1;
place = "{-5, 39}";
type = Stem;
},
{
horizontal = 1;
place = "{173, 44}";
type = Stem;
},
{
place = "{158, 68}";
type = Stem;
},
{
place = "{240, 32}";
type = Stem;
},
{
horizontal = 1;
place = "{583, 30}";
type = Stem;
}
);
layerId = "8AA200AC-43EB-4C51-877F-34011B5AD0E7";
paths = (
{
closed = 1;
nodes = (
"278 -6 LINE",
"278 34 LINE",
"274 34 LINE",
"274 34 OFFCURVE",
"262 35 OFFCURVE",
"249 37 CURVE SMOOTH",
"229 41 OFFCURVE",
"226 45 OFFCURVE",
"226 46 CURVE SMOOTH",
"226 173 LINE",
"240 173 LINE",
"240 109 LINE",
"279 109 LINE",
"278 115 LINE",
"278 115 OFFCURVE",
"272 164 OFFCURVE",
"272 194 CURVE SMOOTH",
"272 226 OFFCURVE",
"278 273 OFFCURVE",
"278 274 CURVE SMOOTH",
"279 279 LINE",
"240 279 LINE",
"240 217 LINE",
"226 217 LINE",
"226 625 LINE",
"210 620 LINE SMOOTH",
"208 619 OFFCURVE",
"188 614 OFFCURVE",
"172 614 CURVE SMOOTH",
"153 614 OFFCURVE",
"117 621 OFFCURVE",
"116 621 CURVE SMOOTH",
"110 622 LINE",
"110 584 LINE",
"115 583 LINE",
"115 583 OFFCURVE",
"126 582 OFFCURVE",
"136 580 CURVE SMOOTH",
"149 578 OFFCURVE",
"154 575 OFFCURVE",
"156 573 CURVE",
"8 173 LINE",
"158 173 LINE",
"158 46 LINE",
"157 45 OFFCURVE",
"153 41 OFFCURVE",
"134 38 CURVE SMOOTH",
"121 35 OFFCURVE",
"109 34 OFFCURVE",
"109 34 CURVE",
"105 34 LINE",
"105 -6 LINE",
"110 -5 LINE SMOOTH",
"111 -5 OFFCURVE",
"160 3 OFFCURVE",
"191 3 CURVE SMOOTH",
"223 3 OFFCURVE",
"272 -5 OFFCURVE",
"273 -5 CURVE SMOOTH"
);
},
{
closed = 1;
nodes = (
"72 217 LINE",
"158 440 LINE",
"158 217 LINE"
);
}
);
width = 288;
}
);
note = four;
unicode = 0034;
},
{
glyphname = five;
layers = (
{
hints = (
{
horizontal = 1;
place = "{-2, 55}";
type = Stem;
},
{
horizontal = 1;
place = "{312, 48}";
type = Stem;
},
{
horizontal = 1;
place = "{562, 53}";
type = Stem;
},
{
place = "{43, 47}";
type = Stem;
},
{
place = "{238, 32}";
type = Stem;
},
{
place = "{225, 81}";
type = Stem;
},
{
place = "{20, 33}";
type = Stem;
}
);
layerId = "8AA200AC-43EB-4C51-877F-34011B5AD0E7";
paths = (
{
closed = 1;
nodes = (
"232 -2 OFFCURVE",
"306 53 OFFCURVE",
"306 173 CURVE SMOOTH",
"306 225 OFFCURVE",
"292 273 OFFCURVE",
"266 307 CURVE SMOOTH",
"239 341 OFFCURVE",
"203 360 OFFCURVE",
"162 360 CURVE SMOOTH",
"134 360 OFFCURVE",
"106 350 OFFCURVE",
"83 331 CURVE",
"97 562 LINE",
"238 562 LINE",
"238 463 LINE",
"277 463 LINE",
"276 469 LINE",
"276 469 OFFCURVE",
"270 520 OFFCURVE",
"270 552 CURVE SMOOTH",
"270 585 OFFCURVE",
"276 635 OFFCURVE",
"276 636 CURVE SMOOTH",
"277 641 LINE",
"238 641 LINE",
"238 621 LINE",
"234 621 OFFCURVE",
"229 620 OFFCURVE",
"224 620 CURVE SMOOTH",
"201 618 OFFCURVE",
"166 615 OFFCURVE",
"136 615 CURVE SMOOTH",
"87 615 OFFCURVE",
"17 623 OFFCURVE",
"16 623 CURVE SMOOTH",
"10 624 LINE",
"10 584 LINE",
"15 584 LINE SMOOTH",
"31 583 OFFCURVE",
"49 579 OFFCURVE",
"52 574 CURVE",
"34 251 LINE",
"78 251 LINE",
"78 260 LINE",
"101 294 OFFCURVE",
"131 312 OFFCURVE",
"162 312 CURVE SMOOTH",
"167 312 OFFCURVE",
"185 310 OFFCURVE",
"202 280 CURVE SMOOTH",
"212 262 OFFCURVE",
"225 228 OFFCURVE",
"225 173 CURVE SMOOTH",
"225 79 OFFCURVE",
"185 53 OFFCURVE",
"162 53 CURVE SMOOTH",
"122 53 OFFCURVE",
"93 73 OFFCURVE",
"77 111 CURVE SMOOTH",
"65 140 OFFCURVE",
"64 170 OFFCURVE",
"64 170 CURVE",
"64 175 LINE",
"14 176 LINE",
"14 171 LINE",
"15 170 OFFCURVE",
"20 120 OFFCURVE",
"20 87 CURVE SMOOTH",
"20 54 OFFCURVE",
"15 4 OFFCURVE",
"14 4 CURVE",
"14 -2 LINE",
"53 -2 LINE",
"53 57 LINE",
"64 41 OFFCURVE",
"77 28 OFFCURVE",
"93 18 CURVE SMOOTH",
"113 5 OFFCURVE",
"137 -2 OFFCURVE",
"162 -2 CURVE SMOOTH"
);
}
);
width = 316;
}
);
note = five;
unicode = 0035;
},
{
glyphname = six;
layers = (
{
hints = (
{
horizontal = 1;
place = "{-2, 42}";
type = Stem;
},
{
horizontal = 1;
place = "{380, 46}";
type = Stem;
},
{
horizontal = 1;
place = "{587, 35}";
type = Stem;
},
{
place = "{10, 71}";
type = Stem;
},
{
place = "{184, 32}";
type = Stem;
},
{
place = "{211, 71}";
type = Stem;
}
);
layerId = "8AA200AC-43EB-4C51-877F-34011B5AD0E7";
paths = (
{
closed = 1;
nodes = (
"211 -2 OFFCURVE",
"282 63 OFFCURVE",
"282 205 CURVE SMOOTH",
"282 333 OFFCURVE",
"224 426 OFFCURVE",
"144 426 CURVE SMOOTH",
"124 426 OFFCURVE",
"104 420 OFFCURVE",
"86 407 CURVE",
"99 518 OFFCURVE",
"126 587 OFFCURVE",
"158 587 CURVE SMOOTH",
"170 587 OFFCURVE",
"178 585 OFFCURVE",
"184 580 CURVE",
"184 495 LINE",
"224 495 LINE",
"223 501 LINE",
"223 501 OFFCURVE",
"216 538 OFFCURVE",
"216 559 CURVE SMOOTH",
"216 581 OFFCURVE",
"223 616 OFFCURVE",
"223 616 CURVE",
"224 622 LINE",
"184 622 LINE",
"184 616 LINE",
"175 620 OFFCURVE",
"164 622 OFFCURVE",
"154 622 CURVE SMOOTH",
"62 622 OFFCURVE",
"37 494 OFFCURVE",
"28 446 CURVE SMOOTH",
"21 408 OFFCURVE",
"16 367 OFFCURVE",
"13 321 CURVE SMOOTH",
"10 278 OFFCURVE",
"10 236 OFFCURVE",
"10 205 CURVE SMOOTH",
"10 62 OFFCURVE",
"77 -2 OFFCURVE",
"144 -2 CURVE SMOOTH"
);
},
{
closed = 1;
nodes = (
"185 380 OFFCURVE",
"211 313 OFFCURVE",
"211 205 CURVE SMOOTH",
"211 149 OFFCURVE",
"203 105 OFFCURVE",
"189 76 CURVE SMOOTH",
"177 53 OFFCURVE",
"161 40 OFFCURVE",
"144 40 CURVE SMOOTH",
"125 40 OFFCURVE",
"110 54 OFFCURVE",
"98 82 CURVE SMOOTH",
"87 111 OFFCURVE",
"81 154 OFFCURVE",
"81 205 CURVE SMOOTH",
"81 315 OFFCURVE",
"105 380 OFFCURVE",
"144 380 CURVE SMOOTH"
);
}
);
width = 292;
}
);
note = six;
unicode = 0036;
},
{
glyphname = seven;
layers = (
{
hints = (
{
horizontal = 1;
place = "{-5, 39}";
type = Stem;
},
{
horizontal = 1;
place = "{556, 53}";
type = Stem;
},
{
place = "{16, 32}";
type = Stem;
},
{
place = "{38, 174}";
type = Stem;
}
);
layerId = "8AA200AC-43EB-4C51-877F-34011B5AD0E7";
paths = (
{
closed = 1;
nodes = (
"212 -6 LINE",
"212 34 LINE",
"207 34 LINE SMOOTH",
"190 35 OFFCURVE",
"170 37 OFFCURVE",
"163 39 CURVE",
"165 69 OFFCURVE",
"191 297 OFFCURVE",
"206 437 CURVE SMOOTH",
"214 507 OFFCURVE",
"219 558 OFFCURVE",
"220 568 CURVE",
"224 572 OFFCURVE",
"243 577 OFFCURVE",
"259 578 CURVE",
"263 579 LINE",
"263 617 LINE",
"258 616 LINE SMOOTH",
"257 616 OFFCURVE",
"185 609 OFFCURVE",
"137 609 CURVE SMOOTH",
"102 609 OFFCURVE",
"66 612 OFFCURVE",
"48 615 CURVE",
"48 635 LINE",
"9 635 LINE",
"10 630 LINE SMOOTH",
"10 629 OFFCURVE",
"16 579 OFFCURVE",
"16 546 CURVE SMOOTH",
"16 514 OFFCURVE",
"10 463 OFFCURVE",
"10 463 CURVE",
"9 457 LINE",
"48 457 LINE",
"48 556 LINE",
"151 556 LINE",
"94 47 LINE",
"93 46 OFFCURVE",
"89 43 OFFCURVE",
"67 38 CURVE SMOOTH",
"54 36 OFFCURVE",
"42 34 OFFCURVE",
"42 34 CURVE",
"38 34 LINE",
"38 -6 LINE",
"43 -5 LINE SMOOTH",
"44 -5 OFFCURVE",
"93 3 OFFCURVE",
"124 3 CURVE SMOOTH",
"156 3 OFFCURVE",
"205 -5 OFFCURVE",
"206 -5 CURVE SMOOTH"
);
}
);
width = 274;
}
);
note = seven;
unicode = 0037;
},
{
glyphname = eight;
layers = (
{
hints = (
{
horizontal = 1;
place = "{-2, 37}";
type = Stem;
},
{
horizontal = 1;
place = "{292, 39}";
type = Stem;
},
{
horizontal = 1;
place = "{588, 34}";
type = Stem;
},
{
place = "{25, 64}";
type = Stem;
},
{
place = "{258, 68}";
type = Stem;
},
{
place = "{246, 64}";
type = Stem;
},
{
place = "{9, 68}";
type = Stem;
}
);
layerId = "8AA200AC-43EB-4C51-877F-34011B5AD0E7";
paths = (
{
closed = 1;
nodes = (
"243 -2 OFFCURVE",
"326 48 OFFCURVE",
"326 159 CURVE SMOOTH",
"326 230 OFFCURVE",
"292 288 OFFCURVE",
"235 315 CURVE",
"255 326 OFFCURVE",
"272 342 OFFCURVE",
"284 361 CURVE SMOOTH",
"302 387 OFFCURVE",
"310 419 OFFCURVE",
"310 455 CURVE SMOOTH",
"310 552 OFFCURVE",
"250 622 OFFCURVE",
"165 622 CURVE SMOOTH",
"84 622 OFFCURVE",
"25 552 OFFCURVE",
"25 455 CURVE SMOOTH",
"25 391 OFFCURVE",
"51 340 OFFCURVE",
"97 315 CURVE",
"71 303 OFFCURVE",
"51 284 OFFCURVE",
"35 259 CURVE SMOOTH",
"18 231 OFFCURVE",
"9 196 OFFCURVE",
"9 159 CURVE SMOOTH",
"9 118 OFFCURVE",
"23 78 OFFCURVE",
"47 50 CURVE SMOOTH",
"75 16 OFFCURVE",
"116 -2 OFFCURVE",
"165 -2 CURVE SMOOTH"
);
},
{
closed = 1;
nodes = (
"202 292 OFFCURVE",
"223 269 OFFCURVE",
"235 251 CURVE SMOOTH",
"250 226 OFFCURVE",
"258 194 OFFCURVE",
"258 159 CURVE SMOOTH",
"258 127 OFFCURVE",
"249 96 OFFCURVE",
"235 74 CURVE SMOOTH",
"218 48 OFFCURVE",
"194 35 OFFCURVE",
"165 35 CURVE SMOOTH",
"143 35 OFFCURVE",
"122 45 OFFCURVE",
"107 62 CURVE SMOOTH",
"88 84 OFFCURVE",
"77 117 OFFCURVE",
"77 159 CURVE SMOOTH",
"77 225 OFFCURVE",
"105 292 OFFCURVE",
"165 292 CURVE SMOOTH"
);
},
{
closed = 1;
nodes = (
"188 588 OFFCURVE",
"207 577 OFFCURVE",
"221 557 CURVE SMOOTH",
"238 533 OFFCURVE",
"246 498 OFFCURVE",
"246 455 CURVE SMOOTH",
"246 414 OFFCURVE",
"237 380 OFFCURVE",
"218 358 CURVE SMOOTH",
"204 341 OFFCURVE",
"184 331 OFFCURVE",
"165 331 CURVE SMOOTH",
"112 331 OFFCURVE",
"89 393 OFFCURVE",
"89 455 CURVE SMOOTH",
"89 497 OFFCURVE",
"98 533 OFFCURVE",
"115 557 CURVE SMOOTH",
"129 577 OFFCURVE",
"148 588 OFFCURVE",
"168 588 CURVE SMOOTH"
);
}
);
width = 336;
}
);
note = eight;
unicode = 0038;
},
{
glyphname = nine;
layers = (
{
hints = (
{
horizontal = 1;
place = "{-3, 35}";
type = Stem;
},
{
horizontal = 1;
place = "{194, 45}";
type = Stem;
},
{
horizontal = 1;
place = "{579, 42}";
type = Stem;
},
{
place = "{60, 34}";
type = Stem;
},
{
place = "{212, 71}";
type = Stem;
},
{
place = "{11, 70}";
type = Stem;
}
);
layerId = "8AA200AC-43EB-4C51-877F-34011B5AD0E7";
paths = (
{
closed = 1;
nodes = (
"190 547 LINE",
"191 547 OFFCURVE",
"191 547 OFFCURVE",
"191 546 CURVE"
);
},
{
closed = 1;
nodes = (
"172 -3 OFFCURVE",
"213 35 OFFCURVE",
"241 109 CURVE SMOOTH",
"268 181 OFFCURVE",
"283 287 OFFCURVE",
"283 414 CURVE SMOOTH",
"283 480 OFFCURVE",
"268 534 OFFCURVE",
"241 571 CURVE SMOOTH",
"217 603 OFFCURVE",
"184 621 OFFCURVE",
"148 621 CURVE SMOOTH",
"112 621 OFFCURVE",
"78 603 OFFCURVE",
"54 571 CURVE SMOOTH",
"25 533 OFFCURVE",
"11 479 OFFCURVE",
"11 414 CURVE SMOOTH",
"11 353 OFFCURVE",
"24 297 OFFCURVE",
"48 257 CURVE SMOOTH",
"73 216 OFFCURVE",
"109 194 OFFCURVE",
"148 194 CURVE SMOOTH",
"167 194 OFFCURVE",
"186 199 OFFCURVE",
"201 209 CURVE",
"193 163 OFFCURVE",
"181 121 OFFCURVE",
"169 90 CURVE SMOOTH",
"153 52 OFFCURVE",
"135 32 OFFCURVE",
"118 32 CURVE SMOOTH",
"111 32 OFFCURVE",
"101 33 OFFCURVE",
"94 39 CURVE",
"94 123 LINE",
"54 123 LINE",
"55 118 LINE SMOOTH",
"55 117 OFFCURVE",
"60 82 OFFCURVE",
"60 60 CURVE SMOOTH",
"60 39 OFFCURVE",
"55 3 OFFCURVE",
"55 2 CURVE SMOOTH",
"54 -3 LINE",
"94 -3 LINE",
"94 2 LINE",
"102 -2 OFFCURVE",
"112 -3 OFFCURVE",
"123 -3 CURVE SMOOTH"
);
},
{
closed = 1;
nodes = (
"161 579 OFFCURVE",
"179 571 OFFCURVE",
"194 537 CURVE SMOOTH",
"205 508 OFFCURVE",
"212 466 OFFCURVE",
"212 414 CURVE SMOOTH",
"212 360 OFFCURVE",
"205 315 OFFCURVE",
"194 284 CURVE SMOOTH",
"179 247 OFFCURVE",
"161 239 OFFCURVE",
"148 239 CURVE SMOOTH",
"107 239 OFFCURVE",
"81 308 OFFCURVE",
"81 414 CURVE SMOOTH",
"81 470 OFFCURVE",
"88 515 OFFCURVE",
"103 544 CURVE SMOOTH",
"115 566 OFFCURVE",
"131 579 OFFCURVE",
"148 579 CURVE SMOOTH"
);
}
);
width = 292;
}
);
note = nine;
unicode = 0039;
},
{
glyphname = zero;
layers = (
{
hints = (
{
horizontal = 1;
place = "{-3, 38}";
type = Stem;
},
{
horizontal = 1;
place = "{576, 42}";
type = Stem;
},
{
place = "{10, 68}";
type = Stem;
},
{
place = "{258, 68}";
type = Stem;
}
);
layerId = "8AA200AC-43EB-4C51-877F-34011B5AD0E7";
paths = (
{
closed = 1;
nodes = (
"217 -3 OFFCURVE",
"260 31 OFFCURVE",
"288 94 CURVE SMOOTH",
"313 148 OFFCURVE",
"326 221 OFFCURVE",
"326 298 CURVE SMOOTH",
"326 387 OFFCURVE",
"310 468 OFFCURVE",
"282 526 CURVE SMOOTH",
"253 585 OFFCURVE",
"212 618 OFFCURVE",
"166 618 CURVE SMOOTH",
"143 618 OFFCURVE",
"121 610 OFFCURVE",
"102 594 CURVE SMOOTH",
"83 578 OFFCURVE",
"67 556 OFFCURVE",
"53 527 CURVE SMOOTH",
"25 470 OFFCURVE",
"10 388 OFFCURVE",
"10 298 CURVE SMOOTH",
"10 203 OFFCURVE",
"27 124 OFFCURVE",
"58 71 CURVE SMOOTH",
"86 23 OFFCURVE",
"125 -3 OFFCURVE",
"166 -3 CURVE SMOOTH"
);
},
{
closed = 1;
nodes = (
"188 576 OFFCURVE",
"211 551 OFFCURVE",
"228 507 CURVE SMOOTH",
"242 471 OFFCURVE",
"258 405 OFFCURVE",
"258 298 CURVE SMOOTH",
"258 189 OFFCURVE",
"240 126 OFFCURVE",
"225 93 CURVE SMOOTH",
"205 50 OFFCURVE",
"182 35 OFFCURVE",
"166 35 CURVE SMOOTH",
"145 35 OFFCURVE",
"123 59 OFFCURVE",
"107 100 CURVE SMOOTH",
"94 134 OFFCURVE",
"78 196 OFFCURVE",
"78 298 CURVE SMOOTH",
"78 479 OFFCURVE",
"124 576 OFFCURVE",
"166 576 CURVE SMOOTH"
);
}
);
width = 336;
}
);
note = zero;
unicode = 0030;
},
{
glyphname = exclam;
layers = (
{
hints = (
{
horizontal = 1;
place = "{-2, 21}";
target = up;
type = BottomGhost;
},
{
place = "{20, 68}";
type = Stem;
},
{
place = "{10, 87}";
type = Stem;
},
{
horizontal = 1;
place = "{-2, 108}";
type = Stem;
}
);
layerId = "8AA200AC-43EB-4C51-877F-34011B5AD0E7";
paths = (
{
closed = 1;
nodes = (
"78 -2 OFFCURVE",
"97 22 OFFCURVE",
"97 52 CURVE SMOOTH",
"97 82 OFFCURVE",
"78 106 OFFCURVE",
"54 106 CURVE SMOOTH",
"42 106 OFFCURVE",
"31 100 OFFCURVE",
"23 90 CURVE SMOOTH",
"14 80 OFFCURVE",
"10 66 OFFCURVE",
"10 52 CURVE SMOOTH",
"10 38 OFFCURVE",
"14 24 OFFCURVE",
"23 14 CURVE SMOOTH",
"31 4 OFFCURVE",
"42 -2 OFFCURVE",
"54 -2 CURVE SMOOTH"
);
},
{
closed = 1;
nodes = (
"79 115 LINE",
"88 580 LINE SMOOTH",
"88 589 OFFCURVE",
"85 598 OFFCURVE",
"78 605 CURVE SMOOTH",
"71 611 OFFCURVE",
"62 615 OFFCURVE",
"54 615 CURVE SMOOTH",
"46 615 OFFCURVE",
"38 612 OFFCURVE",
"30 605 CURVE",
"29 605 LINE",
"29 604 LINE",
"23 597 OFFCURVE",
"20 589 OFFCURVE",
"20 580 CURVE SMOOTH",
"29 115 LINE"
);
}
);
width = 107;
}
);
note = exclam;
unicode = 0021;
},
{
glyphname = at;
layers = (
{
hints = (
{
horizontal = 1;
place = "{-24, 47}";
type = Stem;
},
{
horizontal = 1;
place = "{448, 45}";
type = Stem;
},
{
horizontal = 1;
place = "{536, 44}";
type = Stem;
},
{
place = "{10, 50}";
type = Stem;
},
{
place = "{116, 61}";
type = Stem;
},
{
place = "{275, 70}";
type = Stem;
},
{
place = "{392, 15}";
type = Stem;
},
{
place = "{446, 50}";
type = Stem;
},
{
horizontal = 1;
place = "{452, 31}";
type = Stem;
},
{
place = "{308, 42}";
type = Stem;
},
{
horizontal = 1;
place = "{43, 44}";
type = Stem;
},
{
horizontal = 1;
place = "{33, 45}";
type = Stem;
}
);
layerId = "8AA200AC-43EB-4C51-877F-34011B5AD0E7";
paths = (
{
closed = 1;
nodes = (
"242 -24 LINE",
"243 23 LINE",
"231 23 LINE SMOOTH",
"201 23 OFFCURVE",
"175 30 OFFCURVE",
"152 43 CURVE SMOOTH",
"130 57 OFFCURVE",
"110 78 OFFCURVE",
"95 105 CURVE SMOOTH",
"63 166 OFFCURVE",
"60 236 OFFCURVE",
"60 256 CURVE SMOOTH",
"60 463 OFFCURVE",
"166 536 OFFCURVE",
"266 536 CURVE SMOOTH",
"319 536 OFFCURVE",
"361 521 OFFCURVE",
"390 492 CURVE",
"390 491 LINE",
"390 491 LINE",
"391 490 OFFCURVE",
"391 490 OFFCURVE",
"392 489 CURVE",
"383 487 OFFCURVE",
"368 483 OFFCURVE",
"358 483 CURVE SMOOTH",
"344 483 OFFCURVE",
"326 488 OFFCURVE",
"325 489 CURVE",
"309 494 LINE",
"308 456 LINE",
"290 481 OFFCURVE",
"265 493 OFFCURVE",
"236 493 CURVE SMOOTH",
"198 493 OFFCURVE",
"169 473 OFFCURVE",
"149 434 CURVE SMOOTH",
"129 396 OFFCURVE",
"118 339 OFFCURVE",
"116 265 CURVE SMOOTH",
"114 166 OFFCURVE",
"129 102 OFFCURVE",
"162 68 CURVE SMOOTH",
"178 52 OFFCURVE",
"199 43 OFFCURVE",
"224 43 CURVE SMOOTH",
"251 43 OFFCURVE",
"287 53 OFFCURVE",
"312 101 CURVE",
"318 81 OFFCURVE",
"325 65 OFFCURVE",
"334 54 CURVE SMOOTH",
"346 40 OFFCURVE",
"360 33 OFFCURVE",
"377 33 CURVE SMOOTH",
"400 33 OFFCURVE",
"420 42 OFFCURVE",
"436 61 CURVE SMOOTH",
"451 77 OFFCURVE",
"463 99 OFFCURVE",
"473 127 CURVE SMOOTH",
"494 190 OFFCURVE",
"496 262 OFFCURVE",
"496 290 CURVE SMOOTH",
"496 338 OFFCURVE",
"491 381 OFFCURVE",
"482 417 CURVE SMOOTH",
"473 453 OFFCURVE",
"459 484 OFFCURVE",
"440 507 CURVE SMOOTH",
"422 532 OFFCURVE",
"398 550 OFFCURVE",
"369 562 CURVE SMOOTH",
"341 574 OFFCURVE",
"308 580 OFFCURVE",
"270 580 CURVE SMOOTH",
"229 580 OFFCURVE",
"191 573 OFFCURVE",
"159 559 CURVE SMOOTH",
"127 545 OFFCURVE",
"99 524 OFFCURVE",
"77 497 CURVE SMOOTH",
"33 441 OFFCURVE",
"10 361 OFFCURVE",
"10 258 CURVE SMOOTH",
"10 84 OFFCURVE",
"94 -24 OFFCURVE",
"230 -24 CURVE SMOOTH"
);
},
{
closed = 1;
nodes = (
"353 441 LINE",
"354 442 OFFCURVE",
"359 445 OFFCURVE",
"378 449 CURVE SMOOTH",
"390 451 OFFCURVE",
"402 452 OFFCURVE",
"403 452 CURVE SMOOTH",
"407 452 LINE",
"408 470 LINE",
"446 412 OFFCURVE",
"446 331 OFFCURVE",
"446 290 CURVE SMOOTH",
"446 286 LINE SMOOTH",
"446 249 OFFCURVE",
"438 195 OFFCURVE",
"426 153 CURVE SMOOTH",
"412 106 OFFCURVE",
"395 78 OFFCURVE",
"379 78 CURVE SMOOTH",
"375 78 OFFCURVE",
"372 80 OFFCURVE",
"369 83 CURVE SMOOTH",
"341 113 OFFCURVE",
"343 253 OFFCURVE",
"348 332 CURVE SMOOTH"
);
},
{
closed = 1;
nodes = (
"241 448 OFFCURVE",
"244 447 OFFCURVE",
"248 443 CURVE SMOOTH",
"260 430 OFFCURVE",
"279 390 OFFCURVE",
"275 265 CURVE SMOOTH",
"274 191 OFFCURVE",
"261 147 OFFCURVE",
"252 124 CURVE SMOOTH",
"239 94 OFFCURVE",
"227 87 OFFCURVE",
"225 87 CURVE SMOOTH",
"220 87 OFFCURVE",
"215 89 OFFCURVE",
"210 95 CURVE",
"198 106 OFFCURVE",
"173 144 OFFCURVE",
"177 265 CURVE SMOOTH",
"179 327 OFFCURVE",
"184 373 OFFCURVE",
"195 404 CURVE SMOOTH",
"205 433 OFFCURVE",
"218 448 OFFCURVE",
"235 448 CURVE SMOOTH"
);
}
);
width = 506;
}
);
note = at;
unicode = 0040;
},
{
glyphname = numbersign;
layers = (
{
hints = (
{
horizontal = 1;
place = "{167, 45}";
type = Stem;
},
{
horizontal = 1;
place = "{387, 45}";
type = Stem;
},
{
place = "{9, 372}";
type = Stem;
}
);
layerId = "8AA200AC-43EB-4C51-877F-34011B5AD0E7";
paths = (
{
closed = 1;
nodes = (
"228 11 LINE",
"253 167 LINE",
"362 167 LINE",
"362 212 LINE",
"259 212 LINE",
"287 387 LINE",
"381 387 LINE",
"381 432 LINE",
"293 432 LINE",
"316 580 LINE",
"271 580 LINE",
"248 432 LINE",
"176 432 LINE",
"199 580 LINE",
"154 580 LINE",
"131 432 LINE",
"28 432 LINE",
"28 387 LINE",
"125 387 LINE",
"97 212 LINE",
"9 212 LINE",
"9 167 LINE",
"91 167 LINE",
"67 11 LINE",
"112 11 LINE",
"136 167 LINE",
"208 167 LINE",
"184 11 LINE"
);
},
{
closed = 1;
nodes = (
"142 212 LINE",
"170 387 LINE",
"242 387 LINE",
"214 212 LINE"
);
}
);
width = 391;
}
);
note = numbersign;
unicode = 0023;
},
{
glyphname = dollar;
layers = (
{
hints = (
{
horizontal = 1;
place = "{11, 86}";
type = Stem;
},
{
horizontal = 1;
place = "{498, 33}";
type = Stem;
},
{
place = "{16, 33}";
type = Stem;
},
{
place = "{106, 34}";
type = Stem;
},
{
place = "{177, 33}";
type = Stem;
},
{
place = "{20, 67}";
type = Stem;
},
{
place = "{163, 69}";
type = Stem;
},
{
horizontal = 1;
place = "{380, 167}";
type = Stem;
},
{
horizontal = 1;
place = "{62, 167}";
type = Stem;
}
);
layerId = "8AA200AC-43EB-4C51-877F-34011B5AD0E7";
paths = (
{
closed = 1;
nodes = (
"140 11 LINE",
"140 63 LINE",
"198 72 OFFCURVE",
"232 117 OFFCURVE",
"232 187 CURVE SMOOTH",
"232 254 OFFCURVE",
"189 294 OFFCURVE",
"151 329 CURVE SMOOTH",
"121 356 OFFCURVE",
"95 379 OFFCURVE",
"90 407 CURVE SMOOTH",
"83 440 OFFCURVE",
"87 467 OFFCURVE",
"100 483 CURVE SMOOTH",
"108 492 OFFCURVE",
"120 498 OFFCURVE",
"134 498 CURVE SMOOTH",
"163 498 OFFCURVE",
"177 476 OFFCURVE",
"177 431 CURVE SMOOTH",
"177 380 LINE",
"217 380 LINE",
"216 385 LINE SMOOTH",
"216 386 OFFCURVE",
"210 433 OFFCURVE",
"210 463 CURVE SMOOTH",
"210 493 OFFCURVE",
"216 541 OFFCURVE",
"216 541 CURVE",
"217 547 LINE",
"177 547 LINE",
"177 517 LINE",
"167 525 OFFCURVE",
"154 530 OFFCURVE",
"140 531 CURVE",
"140 594 LINE",
"106 594 LINE",
"106 530 LINE",
"79 524 OFFCURVE",
"58 511 OFFCURVE",
"43 490 CURVE SMOOTH",
"28 469 OFFCURVE",
"20 440 OFFCURVE",
"20 404 CURVE SMOOTH",
"20 349 OFFCURVE",
"62 308 OFFCURVE",
"100 272 CURVE SMOOTH",
"105 267 LINE SMOOTH",
"133 239 OFFCURVE",
"160 213 OFFCURVE",
"163 185 CURVE SMOOTH",
"167 155 OFFCURVE",
"160 129 OFFCURVE",
"145 110 CURVE",
"137 102 OFFCURVE",
"126 97 OFFCURVE",
"118 97 CURVE SMOOTH",
"90 97 OFFCURVE",
"57 109 OFFCURVE",
"49 134 CURVE",
"49 229 LINE",
"9 229 LINE",
"10 223 LINE",
"10 223 OFFCURVE",
"16 175 OFFCURVE",
"16 146 CURVE SMOOTH",
"16 115 OFFCURVE",
"10 68 OFFCURVE",
"10 67 CURVE SMOOTH",
"9 62 LINE",
"49 62 LINE",
"49 82 LINE",
"65 71 OFFCURVE",
"84 64 OFFCURVE",
"106 63 CURVE",
"106 11 LINE"
);
}
);
width = 242;
}
);
note = dollar;
unicode = 0024;
},
{
glyphname = percent;
layers = (
{
hints = (
{
horizontal = 1;
place = "{34, 19}";
type = Stem;
},
{
horizontal = 1;
place = "{264, 21}";
type = Stem;
},
{
horizontal = 1;
place = "{524, 21}";
type = Stem;
},
{
place = "{15, 32}";
type = Stem;
},
{
place = "{117, 33}";
type = Stem;
},
{
place = "{205, 33}";
type = Stem;
},
{
place = "{308, 32}";
type = Stem;
},
{
horizontal = 1;
place = "{294, 19}";
type = Stem;
}
);
layerId = "8AA200AC-43EB-4C51-877F-34011B5AD0E7";
paths = (
{
closed = 1;
nodes = (
"96 524 OFFCURVE",
"117 491 OFFCURVE",
"117 416 CURVE SMOOTH",
"117 345 OFFCURVE",
"96 313 OFFCURVE",
"82 313 CURVE SMOOTH",
"68 313 OFFCURVE",
"47 341 OFFCURVE",
"47 416 CURVE SMOOTH",
"47 491 OFFCURVE",
"67 524 OFFCURVE",
"82 524 CURVE SMOOTH"
);
},
{
closed = 1;
nodes = (
"114 294 OFFCURVE",
"150 332 OFFCURVE",
"150 416 CURVE SMOOTH",
"150 492 OFFCURVE",
"122 545 OFFCURVE",
"82 545 CURVE SMOOTH",
"42 545 OFFCURVE",
"15 492 OFFCURVE",
"15 416 CURVE SMOOTH",
"15 332 OFFCURVE",
"48 294 OFFCURVE",
"82 294 CURVE SMOOTH"
);
},
{
closed = 1;
nodes = (
"287 264 OFFCURVE",
"308 231 OFFCURVE",
"308 156 CURVE SMOOTH",
"308 85 OFFCURVE",
"287 53 OFFCURVE",
"272 53 CURVE SMOOTH",
"259 53 OFFCURVE",
"238 81 OFFCURVE",
"238 156 CURVE SMOOTH",
"238 231 OFFCURVE",
"258 264 OFFCURVE",
"272 264 CURVE SMOOTH"
);
},
{
closed = 1;
nodes = (
"305 34 OFFCURVE",
"340 72 OFFCURVE",
"340 156 CURVE SMOOTH",
"340 232 OFFCURVE",
"312 285 OFFCURVE",
"272 285 CURVE SMOOTH",
"233 285 OFFCURVE",
"205 232 OFFCURVE",
"205 156 CURVE SMOOTH",
"205 72 OFFCURVE",
"239 34 OFFCURVE",
"272 34 CURVE SMOOTH"
);
},
{
closed = 1;
nodes = (
"153 11 LINE",
"242 580 LINE",
"197 580 LINE",
"109 11 LINE"
);
}
);
width = 355;
}
);
note = percent;
unicode = 0025;
},
{
glyphname = ampersand;
layers = (
{
hints = (
{
horizontal = 1;
place = "{-11, 21}";
target = up;
type = BottomGhost;
},
{
horizontal = 1;
place = "{32, 34}";
type = Stem;
},
{
horizontal = 1;
place = "{236, 33}";
type = Stem;
},
{
horizontal = 1;
place = "{530, 33}";
type = Stem;
},
{
place = "{23, 66}";
type = Stem;
},
{
place = "{137, 20}";
type = Stem;
},
{
place = "{216, 32}";
type = Stem;
},
{
place = "{10, 72}";
type = Stem;
},
{
place = "{226, 32}";
type = Stem;
},
{
horizontal = 1;
place = "{280, 36}";
type = Stem;
}
);
layerId = "8AA200AC-43EB-4C51-877F-34011B5AD0E7";
paths = (
{
closed = 1;
nodes = (
"263 -11 LINE",
"263 -6 LINE SMOOTH",
"263 -5 OFFCURVE",
"258 53 OFFCURVE",
"258 93 CURVE SMOOTH",
"258 124 OFFCURVE",
"261 204 OFFCURVE",
"262 236 CURVE",
"308 236 LINE",
"308 275 LINE",
"302 275 LINE",
"302 275 OFFCURVE",
"253 269 OFFCURVE",
"223 269 CURVE SMOOTH",
"192 269 OFFCURVE",
"143 275 OFFCURVE",
"143 275 CURVE",
"137 275 LINE",
"137 236 LINE",
"212 236 LINE",
"212 170 LINE SMOOTH",
"212 93 OFFCURVE",
"177 66 OFFCURVE",
"144 66 CURVE SMOOTH",
"125 66 OFFCURVE",
"82 76 OFFCURVE",
"82 170 CURVE SMOOTH",
"82 214 OFFCURVE",
"94 247 OFFCURVE",
"117 266 CURVE SMOOTH",
"134 279 OFFCURVE",
"152 280 OFFCURVE",
"152 280 CURVE",
"157 280 LINE",
"157 316 LINE",
"152 316 LINE",
"152 316 OFFCURVE",
"137 316 OFFCURVE",
"121 328 CURVE SMOOTH",
"100 345 OFFCURVE",
"89 377 OFFCURVE",
"89 420 CURVE SMOOTH",
"89 488 OFFCURVE",
"111 530 OFFCURVE",
"146 530 CURVE SMOOTH",
"171 530 OFFCURVE",
"205 518 OFFCURVE",
"205 413 CURVE SMOOTH",
"205 408 LINE",
"253 408 LINE",
"253 413 LINE SMOOTH",
"253 414 OFFCURVE",
"248 472 OFFCURVE",
"248 512 CURVE SMOOTH",
"248 550 OFFCURVE",
"253 610 OFFCURVE",
"253 610 CURVE",
"253 616 LINE",
"216 616 LINE",
"216 532 LINE",
"199 552 OFFCURVE",
"174 563 OFFCURVE",
"145 563 CURVE SMOOTH",
"74 563 OFFCURVE",
"23 502 OFFCURVE",
"23 420 CURVE SMOOTH",
"23 366 OFFCURVE",
"44 324 OFFCURVE",
"82 301 CURVE",
"37 278 OFFCURVE",
"10 229 OFFCURVE",
"10 170 CURVE SMOOTH",
"10 135 OFFCURVE",
"22 101 OFFCURVE",
"43 76 CURVE SMOOTH",
"67 47 OFFCURVE",
"102 32 OFFCURVE",
"144 32 CURVE SMOOTH",
"178 32 OFFCURVE",
"206 43 OFFCURVE",
"226 64 CURVE",
"226 -11 LINE"
);
}
);
width = 318;
}
);
note = ampersand;
unicode = 0026;
},
{
glyphname = quotesingle;
layers = (
{
hints = (
{
horizontal = 1;
place = "{480, 142}";
type = Stem;
},
{
place = "{10, 48}";
type = Stem;
}
);
layerId = "8AA200AC-43EB-4C51-877F-34011B5AD0E7";
paths = (
{
closed = 1;
nodes = (
"58 480 LINE",
"78 622 LINE",
"10 622 LINE",
"10 480 LINE"
);
}
);
width = 87;
}
);
note = quotesingle;
unicode = 0027;
},
{
glyphname = parenleft;
layers = (
{
hints = (
{
horizontal = 1;
place = "{-78, 32}";
type = Stem;
},
{
horizontal = 1;
place = "{621, 34}";
type = Stem;
},
{
place = "{10, 69}";
type = Stem;
}
);
layerId = "8AA200AC-43EB-4C51-877F-34011B5AD0E7";
paths = (
{
closed = 1;
nodes = (
"175 -78 LINE",
"175 -47 LINE",
"164 -45 LINE",
"164 -45 LINE",
"150 -44 OFFCURVE",
"128 -20 OFFCURVE",
"109 44 CURVE SMOOTH",
"90 106 OFFCURVE",
"79 191 OFFCURVE",
"79 289 CURVE SMOOTH",
"79 411 OFFCURVE",
"95 488 OFFCURVE",
"108 531 CURVE SMOOTH",
"123 584 OFFCURVE",
"145 617 OFFCURVE",
"165 620 CURVE SMOOTH",
"175 622 LINE",
"175 655 LINE",
"162 655 LINE SMOOTH",
"73 649 OFFCURVE",
"10 498 OFFCURVE",
"10 289 CURVE SMOOTH",
"10 189 OFFCURVE",
"25 98 OFFCURVE",
"52 31 CURVE SMOOTH",
"66 -2 OFFCURVE",
"82 -28 OFFCURVE",
"100 -47 CURVE SMOOTH",
"119 -66 OFFCURVE",
"140 -77 OFFCURVE",
"162 -78 CURVE SMOOTH"
);
}
);
width = 185;
}
);
note = parenleft;
unicode = 0028;
},
{
glyphname = parenright;
layers = (
{
hints = (
{
horizontal = 1;
place = "{-78, 34}";
type = Stem;
},
{
horizontal = 1;
place = "{623, 33}";
type = Stem;
},
{
place = "{107, 68}";
type = Stem;
}
);
layerId = "8AA200AC-43EB-4C51-877F-34011B5AD0E7";
paths = (
{
closed = 1;
nodes = (
"24 -78 LINE",
"24 -78 LINE",
"113 -72 OFFCURVE",
"175 79 OFFCURVE",
"175 289 CURVE SMOOTH",
"175 389 OFFCURVE",
"161 480 OFFCURVE",
"133 547 CURVE SMOOTH",
"120 580 OFFCURVE",
"104 606 OFFCURVE",
"86 624 CURVE SMOOTH",
"66 644 OFFCURVE",
"45 654 OFFCURVE",
"23 655 CURVE SMOOTH",
"10 657 LINE",
"10 623 LINE",
"21 623 LINE",
"40 620 OFFCURVE",
"60 587 OFFCURVE",
"77 534 CURVE SMOOTH",
"96 470 OFFCURVE",
"107 383 OFFCURVE",
"107 289 CURVE SMOOTH",
"107 166 OFFCURVE",
"91 89 OFFCURVE",
"78 46 CURVE SMOOTH",
"63 -7 OFFCURVE",
"41 -40 OFFCURVE",
"21 -43 CURVE SMOOTH",
"10 -45 LINE",
"10 -78 LINE"
);
}
);
width = 185;
}
);
note = parenright;
unicode = 0029;
},
{
glyphname = asterisk;
layers = (
{
hints = (
{
horizontal = 1;
place = "{488, 37}";
type = Stem;
},
{
place = "{82, 37}";
type = Stem;
}
);
layerId = "8AA200AC-43EB-4C51-877F-34011B5AD0E7";
paths = (
{
closed = 1;
nodes = (
"106 416 OFFCURVE",
"110 419 OFFCURVE",
"113 421 CURVE",
"114 421 LINE",
"114 422 LINE",
"116 425 OFFCURVE",
"119 430 OFFCURVE",
"119 435 CURVE",
"119 435 LINE",
"118 466 LINE",
"137 444 LINE",
"138 444 LINE",
"142 439 OFFCURVE",
"149 438 OFFCURVE",
"151 438 CURVE SMOOTH",
"157 438 OFFCURVE",
"161 440 OFFCURVE",
"164 443 CURVE SMOOTH",
"168 446 OFFCURVE",
"170 451 OFFCURVE",
"170 456 CURVE SMOOTH",
"170 462 OFFCURVE",
"167 467 OFFCURVE",
"165 470 CURVE",
"164 470 LINE",
"143 489 LINE",
"172 488 LINE",
"172 488 LINE",
"178 488 OFFCURVE",
"182 491 OFFCURVE",
"185 493 CURVE",
"185 493 LINE",
"186 493 LINE",
"189 497 OFFCURVE",
"191 501 OFFCURVE",
"191 507 CURVE SMOOTH",
"191 517 OFFCURVE",
"183 525 OFFCURVE",
"172 525 CURVE",
"172 525 LINE",
"142 524 LINE",
"164 544 LINE",
"165 544 LINE",
"167 547 OFFCURVE",
"170 552 OFFCURVE",
"170 557 CURVE SMOOTH",
"170 563 OFFCURVE",
"168 568 OFFCURVE",
"165 571 CURVE SMOOTH",
"162 574 OFFCURVE",
"157 576 OFFCURVE",
"152 576 CURVE SMOOTH",
"146 576 OFFCURVE",
"141 574 OFFCURVE",
"138 570 CURVE SMOOTH",
"118 548 LINE",
"119 578 LINE",
"119 578 LINE",
"119 583 OFFCURVE",
"116 587 OFFCURVE",
"114 591 CURVE",
"114 592 LINE",
"113 592 LINE",
"110 594 OFFCURVE",
"106 597 OFFCURVE",
"100 597 CURVE SMOOTH",
"95 597 OFFCURVE",
"90 594 OFFCURVE",
"87 592 CURVE",
"86 592 LINE",
"86 591 LINE",
"83 587 OFFCURVE",
"82 583 OFFCURVE",
"82 578 CURVE",
"82 578 LINE",
"83 549 LINE",
"64 570 LINE",
"63 570 LINE",
"59 575 OFFCURVE",
"52 576 OFFCURVE",
"50 576 CURVE SMOOTH",
"45 576 OFFCURVE",
"40 574 OFFCURVE",
"36 570 CURVE SMOOTH",
"34 568 OFFCURVE",
"31 563 OFFCURVE",
"31 558 CURVE SMOOTH",
"31 552 OFFCURVE",
"34 547 OFFCURVE",
"38 544 CURVE SMOOTH",
"60 524 LINE",
"29 525 LINE",
"29 525 LINE",
"18 525 OFFCURVE",
"10 517 OFFCURVE",
"10 507 CURVE SMOOTH",
"10 496 OFFCURVE",
"18 488 OFFCURVE",
"29 488 CURVE",
"29 488 LINE",
"59 489 LINE",
"38 470 LINE",
"37 470 LINE",
"35 466 OFFCURVE",
"31 462 OFFCURVE",
"31 456 CURVE SMOOTH",
"31 451 OFFCURVE",
"34 446 OFFCURVE",
"36 443 CURVE",
"36 442 LINE",
"37 442 LINE",
"40 440 OFFCURVE",
"45 437 OFFCURVE",
"50 437 CURVE SMOOTH",
"56 437 OFFCURVE",
"61 440 OFFCURVE",
"63 444 CURVE",
"64 444 LINE",
"83 465 LINE",
"82 435 LINE",
"82 435 LINE",
"82 431 OFFCURVE",
"84 426 OFFCURVE",
"86 422 CURVE",
"86 421 LINE",
"87 421 LINE",
"90 419 OFFCURVE",
"95 416 OFFCURVE",
"100 416 CURVE SMOOTH"
);
}
);
width = 201;
}
);
note = asterisk;
unicode = 002A;
},
{
glyphname = plus;
layers = (
{
hints = (
{
horizontal = 1;
place = "{266, 45}";
type = Stem;
},
{
place = "{97, 45}";
type = Stem;
}
);
layerId = "8AA200AC-43EB-4C51-877F-34011B5AD0E7";
paths = (
{
closed = 1;
nodes = (
"142 179 LINE",
"142 266 LINE",
"229 266 LINE",
"229 311 LINE",
"142 311 LINE",
"142 398 LINE",
"97 398 LINE",
"97 311 LINE",
"10 311 LINE",
"10 266 LINE",
"97 266 LINE",
"97 179 LINE"
);
}
);
width = 239;
}
);
note = plus;
unicode = 002B;
},
{
glyphname = equal;
layers = (
{
hints = (
{
horizontal = 1;
place = "{303, 45}";
type = Stem;
},
{
place = "{10, 220}";
type = Stem;
},
{
horizontal = 1;
place = "{237, 45}";
type = Stem;
}
);
layerId = "8AA200AC-43EB-4C51-877F-34011B5AD0E7";
paths = (
{
closed = 1;
nodes = (
"230 237 LINE",
"230 282 LINE",
"10 282 LINE",
"10 237 LINE"
);
},
{
closed = 1;
nodes = (
"230 303 LINE",
"230 348 LINE",
"10 348 LINE",
"10 303 LINE"
);
}
);
width = 240;
}
);
note = equal;
unicode = 003D;
},
{
glyphname = hyphen;
layers = (
{
hints = (
{
horizontal = 1;
place = "{303, 45}";
type = Stem;
},
{
place = "{11, 220}";
type = Stem;
}
);
layerId = "8AA200AC-43EB-4C51-877F-34011B5AD0E7";
paths = (
{
closed = 1;
nodes = (
"231 303 LINE",
"231 348 LINE",
"11 348 LINE",
"11 303 LINE"
);
}
);
width = 240;
}
);
note = hyphen;
unicode = 002D;
},
{
glyphname = comma;
layers = (
{
hints = (
{
horizontal = 1;
place = "{-1, 21}";
target = up;
type = BottomGhost;
},
{
place = "{60, 39}";
type = Stem;
},
{
horizontal = 1;
place = "{-54, 29}";
type = Stem;
}
);
layerId = "8AA200AC-43EB-4C51-877F-34011B5AD0E7";
paths = (
{
closed = 1;
nodes = (
"30 -54 LINE SMOOTH",
"49 -54 OFFCURVE",
"74 -44 OFFCURVE",
"85 -22 CURVE",
"85 -22 LINE",
"94 -5 OFFCURVE",
"99 16 OFFCURVE",
"99 37 CURVE SMOOTH",
"99 78 OFFCURVE",
"82 106 OFFCURVE",
"56 106 CURVE SMOOTH",
"29 106 OFFCURVE",
"10 84 OFFCURVE",
"10 52 CURVE SMOOTH",
"10 38 OFFCURVE",
"14 25 OFFCURVE",
"23 14 CURVE SMOOTH",
"31 4 OFFCURVE",
"42 -2 OFFCURVE",
"54 -2 CURVE SMOOTH",
"56 -2 OFFCURVE",
"58 -2 OFFCURVE",
"60 -1 CURVE",
"54 -25 OFFCURVE",
"39 -25 OFFCURVE",
"30 -25 CURVE SMOOTH",
"25 -25 LINE",
"25 -54 LINE"
);
}
);
width = 109;
}
);
note = comma;
unicode = 002C;
},
{
glyphname = period;
layers = (
{
hints = (
{
horizontal = 1;
place = "{-2, 21}";
target = up;
type = BottomGhost;
},
{
place = "{11, 86}";
type = Stem;
},
{
horizontal = 1;
place = "{-2, 108}";
type = Stem;
}
);
layerId = "8AA200AC-43EB-4C51-877F-34011B5AD0E7";
paths = (
{
closed = 1;
nodes = (
"78 -2 OFFCURVE",
"97 22 OFFCURVE",
"97 52 CURVE SMOOTH",
"97 81 OFFCURVE",
"78 106 OFFCURVE",
"54 106 CURVE SMOOTH",
"43 106 OFFCURVE",
"31 100 OFFCURVE",
"23 89 CURVE SMOOTH",
"15 79 OFFCURVE",
"11 66 OFFCURVE",
"11 52 CURVE SMOOTH",
"11 38 OFFCURVE",
"15 24 OFFCURVE",
"23 14 CURVE SMOOTH",
"31 4 OFFCURVE",
"43 -2 OFFCURVE",
"54 -2 CURVE SMOOTH"
);
}
);
width = 107;
}
);
note = period;
unicode = 002E;
},
{
glyphname = slash;
layers = (
{
hints = (
{
horizontal = 1;
place = "{-2, 21}";
target = up;
type = BottomGhost;
},
{
place = "{9, 147}";
type = Stem;
}
);
layerId = "8AA200AC-43EB-4C51-877F-34011B5AD0E7";
paths = (
{
closed = 1;
nodes = (
"54 -2 LINE",
"156 622 LINE",
"111 622 LINE",
"9 -2 LINE"
);
}
);
width = 165;
}
);
note = slash;
unicode = 002F;
},
{
glyphname = fraction;
layers = (
{
hints = (
{
horizontal = 1;
place = "{-2, 21}";
target = up;
type = BottomGhost;
},
{
place = "{9, 147}";
type = Stem;
}
);
layerId = "8AA200AC-43EB-4C51-877F-34011B5AD0E7";
paths = (
{
closed = 1;
nodes = (
"54 -2 LINE",
"156 622 LINE",
"111 622 LINE",
"9 -2 LINE"
);
}
);
width = 165;
}
);
note = fraction;
unicode = 2044;
},
{
glyphname = colon;
layers = (
{
hints = (
{
horizontal = 1;
place = "{-2, 21}";
target = up;
type = BottomGhost;
},
{
place = "{11, 86}";
type = Stem;
},
{
horizontal = 1;
place = "{-2, 108}";
type = Stem;
}
);
layerId = "8AA200AC-43EB-4C51-877F-34011B5AD0E7";
paths = (
{
closed = 1;
nodes = (
"78 -2 OFFCURVE",
"97 22 OFFCURVE",
"97 52 CURVE SMOOTH",
"97 81 OFFCURVE",
"78 106 OFFCURVE",
"54 106 CURVE SMOOTH",
"43 106 OFFCURVE",
"31 100 OFFCURVE",
"23 89 CURVE SMOOTH",
"15 79 OFFCURVE",
"11 66 OFFCURVE",
"11 52 CURVE SMOOTH",
"11 38 OFFCURVE",
"15 24 OFFCURVE",
"23 14 CURVE SMOOTH",
"31 4 OFFCURVE",
"43 -2 OFFCURVE",
"54 -2 CURVE SMOOTH"
);
},
{
closed = 1;
nodes = (
"78 282 OFFCURVE",
"97 306 OFFCURVE",
"97 336 CURVE SMOOTH",
"97 365 OFFCURVE",
"78 390 OFFCURVE",
"54 390 CURVE SMOOTH",
"43 390 OFFCURVE",
"31 384 OFFCURVE",
"23 373 CURVE SMOOTH",
"15 363 OFFCURVE",
"11 350 OFFCURVE",
"11 336 CURVE SMOOTH",
"11 322 OFFCURVE",
"15 308 OFFCURVE",
"23 298 CURVE SMOOTH",
"31 288 OFFCURVE",
"43 282 OFFCURVE",
"54 282 CURVE SMOOTH"
);
}
);
width = 107;
}
);
note = colon;
unicode = 003A;
},
{
glyphname = semicolon;
layers = (
{
hints = (
{
horizontal = 1;
place = "{-1, 21}";
target = up;
type = BottomGhost;
},
{
horizontal = 1;
place = "{283, 108}";
type = Stem;
},
{
place = "{60, 39}";
type = Stem;
},
{
place = "{11, 86}";
type = Stem;
},
{
horizontal = 1;
place = "{-54, 29}";
type = Stem;
}
);
layerId = "8AA200AC-43EB-4C51-877F-34011B5AD0E7";
paths = (
{
closed = 1;
nodes = (
"78 283 OFFCURVE",
"97 307 OFFCURVE",
"97 337 CURVE SMOOTH",
"97 366 OFFCURVE",
"78 391 OFFCURVE",
"54 391 CURVE SMOOTH",
"43 391 OFFCURVE",
"31 385 OFFCURVE",
"23 374 CURVE SMOOTH",
"15 364 OFFCURVE",
"11 351 OFFCURVE",
"11 337 CURVE SMOOTH",
"11 323 OFFCURVE",
"15 309 OFFCURVE",
"23 299 CURVE SMOOTH",
"31 289 OFFCURVE",
"43 283 OFFCURVE",
"54 283 CURVE SMOOTH"
);
},
{
closed = 1;
nodes = (
"30 -54 LINE SMOOTH",
"49 -54 OFFCURVE",
"74 -44 OFFCURVE",
"85 -22 CURVE",
"85 -22 LINE",
"94 -5 OFFCURVE",
"99 16 OFFCURVE",
"99 37 CURVE SMOOTH",
"99 78 OFFCURVE",
"82 106 OFFCURVE",
"56 106 CURVE SMOOTH",
"29 106 OFFCURVE",
"10 84 OFFCURVE",
"10 52 CURVE SMOOTH",
"10 38 OFFCURVE",
"14 25 OFFCURVE",
"23 14 CURVE SMOOTH",
"31 4 OFFCURVE",
"42 -2 OFFCURVE",
"54 -2 CURVE SMOOTH",
"56 -2 OFFCURVE",
"58 -2 OFFCURVE",
"60 -1 CURVE",
"54 -25 OFFCURVE",
"39 -25 OFFCURVE",
"30 -25 CURVE SMOOTH",
"25 -25 LINE",
"25 -54 LINE"
);
}
);
width = 109;
}
);
note = semicolon;
unicode = 003B;
},
{
glyphname = less;
layers = (
{
hints = (
{
horizontal = 1;
place = "{85, 323}";
type = Stem;
},
{
place = "{10, 41}";
type = Stem;
}
);
layerId = "8AA200AC-43EB-4C51-877F-34011B5AD0E7";
paths = (
{
closed = 1;
nodes = (
"177 85 LINE",
"177 136 LINE",
"51 247 LINE",
"177 357 LINE",
"177 408 LINE",
"10 267 LINE",
"10 226 LINE"
);
}
);
width = 187;
}
);
note = less;
unicode = 003C;
},
{
glyphname = greater;
layers = (
{
hints = (
{
horizontal = 1;
place = "{85, 323}";
type = Stem;
},
{
place = "{136, 42}";
type = Stem;
}
);
layerId = "8AA200AC-43EB-4C51-877F-34011B5AD0E7";
paths = (
{
closed = 1;
nodes = (
"10 85 LINE",
"178 226 LINE",
"178 267 LINE",
"10 408 LINE",
"10 357 LINE",
"136 247 LINE",
"10 136 LINE"
);
}
);
width = 188;
}
);
note = greater;
unicode = 003E;
},
{
glyphname = question;
layers = (
{
hints = (
{
horizontal = 1;
place = "{-2, 21}";
target = up;
type = BottomGhost;
},
{
horizontal = 1;
place = "{581, 41}";
type = Stem;
},
{
place = "{78, 43}";
type = Stem;
},
{
place = "{186, 66}";
type = Stem;
},
{
place = "{56, 87}";
type = Stem;
},
{
horizontal = 1;
place = "{-2, 108}";
type = Stem;
},
{
place = "{16, 32}";
type = Stem;
},
{
horizontal = 1;
place = "{369, 240}";
type = Stem;
}
);
layerId = "8AA200AC-43EB-4C51-877F-34011B5AD0E7";
paths = (
{
closed = 1;
nodes = (
"124 -2 OFFCURVE",
"143 21 OFFCURVE",
"143 52 CURVE SMOOTH",
"143 82 OFFCURVE",
"124 106 OFFCURVE",
"100 106 CURVE SMOOTH",
"121 106 LINE",
"121 110 LINE SMOOTH",
"121 256 OFFCURVE",
"144 275 OFFCURVE",
"173 299 CURVE SMOOTH",
"174 300 LINE",
"175 300 OFFCURVE",
"175 301 OFFCURVE",
"176 302 CURVE SMOOTH",
"186 310 OFFCURVE",
"197 318 OFFCURVE",
"207 331 CURVE",
"208 331 LINE",
"258 398 OFFCURVE",
"267 487 OFFCURVE",
"230 557 CURVE SMOOTH",
"209 597 OFFCURVE",
"173 622 OFFCURVE",
"137 622 CURVE SMOOTH",
"96 622 OFFCURVE",
"66 600 OFFCURVE",
"48 556 CURVE",
"48 609 LINE",
"9 609 LINE",
"10 604 LINE SMOOTH",
"10 603 OFFCURVE",
"16 536 OFFCURVE",
"16 490 CURVE SMOOTH",
"16 442 OFFCURVE",
"10 375 OFFCURVE",
"10 374 CURVE SMOOTH",
"9 369 LINE",
"62 369 LINE",
"61 374 LINE SMOOTH",
"61 375 OFFCURVE",
"56 516 OFFCURVE",
"102 565 CURVE SMOOTH",
"112 575 OFFCURVE",
"124 581 OFFCURVE",
"137 581 CURVE SMOOTH",
"155 581 OFFCURVE",
"169 566 OFFCURVE",
"178 540 CURVE SMOOTH",
"197 478 OFFCURVE",
"183 408 OFFCURVE",
"141 357 CURVE",
"121 336 LINE SMOOTH",
"86 299 OFFCURVE",
"78 290 OFFCURVE",
"78 110 CURVE SMOOTH",
"78 106 LINE",
"100 106 LINE SMOOTH",
"76 106 OFFCURVE",
"56 81 OFFCURVE",
"56 52 CURVE SMOOTH",
"56 22 OFFCURVE",
"76 -2 OFFCURVE",
"100 -2 CURVE SMOOTH"
);
}
);
width = 263;
}
);
note = question;
unicode = 003F;
},
{
glyphname = bracketleft;
layers = (
{
hints = (
{
horizontal = 1;
place = "{-78, 45}";
type = Stem;
},
{
horizontal = 1;
place = "{593, 44}";
type = Stem;
},
{
place = "{10, 55}";
type = Stem;
}
);
layerId = "8AA200AC-43EB-4C51-877F-34011B5AD0E7";
paths = (
{
closed = 1;
nodes = (
"159 -78 LINE",
"159 -33 LINE",
"65 -33 LINE",
"65 593 LINE",
"159 593 LINE",
"159 637 LINE",
"10 637 LINE",
"10 -78 LINE"
);
}
);
width = 169;
}
);
note = bracketleft;
unicode = 005B;
},
{
glyphname = bracketright;
layers = (
{
hints = (
{
horizontal = 1;
place = "{-78, 45}";
type = Stem;
},
{
horizontal = 1;
place = "{593, 44}";
type = Stem;
},
{
place = "{103, 55}";
type = Stem;
}
);
layerId = "8AA200AC-43EB-4C51-877F-34011B5AD0E7";
paths = (
{
closed = 1;
nodes = (
"158 -78 LINE",
"158 637 LINE",
"10 637 LINE",
"10 593 LINE",
"103 593 LINE",
"103 -33 LINE",
"10 -33 LINE",
"10 -78 LINE"
);
}
);
width = 168;
}
);
note = bracketright;
unicode = 005D;
},
{
glyphname = backslash;
layers = (
{
hints = (
{
horizontal = 1;
place = "{-3, 21}";
target = up;
type = BottomGhost;
},
{
place = "{9, 147}";
type = Stem;
}
);
layerId = "8AA200AC-43EB-4C51-877F-34011B5AD0E7";
paths = (
{
closed = 1;
nodes = (
"156 -3 LINE",
"54 622 LINE",
"9 622 LINE",
"111 -3 LINE"
);
}
);
width = 165;
}
);
note = backslash;
unicode = 005C;
},
{
glyphname = asciicircum;
layers = (
{
hints = (
{
horizontal = 1;
place = "{556, 167}";
type = Stem;
},
{
place = "{7, 238}";
type = Stem;
}
);
layerId = "8AA200AC-43EB-4C51-877F-34011B5AD0E7";
paths = (
{
closed = 1;
nodes = (
"245 556 LINE",
"147 723 LINE",
"105 723 LINE",
"7 556 LINE",
"55 556 LINE",
"126 677 LINE",
"197 556 LINE"
);
}
);
width = 251;
}
);
note = asciicircum;
unicode = 005E;
},
{
glyphname = underscore;
layers = (
{
hints = (
{
horizontal = 1;
place = "{-137, 44}";
type = Stem;
},
{
place = "{11, 220}";
type = Stem;
}
);
layerId = "8AA200AC-43EB-4C51-877F-34011B5AD0E7";
paths = (
{
closed = 1;
nodes = (
"231 -137 LINE",
"231 -93 LINE",
"11 -93 LINE",
"11 -137 LINE"
);
}
);
width = 240;
}
);
note = underscore;
unicode = 005F;
},
{
glyphname = grave;
layers = (
{
hints = (
{
horizontal = 1;
place = "{608, 150}";
type = Stem;
},
{
place = "{7, 163}";
type = Stem;
}
);
layerId = "8AA200AC-43EB-4C51-877F-34011B5AD0E7";
paths = (
{
closed = 1;
nodes = (
"155 608 LINE",
"170 630 LINE",
"76 758 LINE",
"7 704 LINE"
);
}
);
width = 178;
}
);
note = grave;
unicode = 0060;
},
{
glyphname = braceleft;
layers = (
{
hints = (
{
horizontal = 1;
place = "{-78, 33}";
type = Stem;
},
{
horizontal = 1;
place = "{298, 23}";
type = Stem;
},
{
horizontal = 1;
place = "{621, 34}";
type = Stem;
},
{
place = "{40, 66}";
type = Stem;
}
);
layerId = "8AA200AC-43EB-4C51-877F-34011B5AD0E7";
paths = (
{
closed = 1;
nodes = (
"204 -78 LINE",
"204 -47 LINE",
"192 -45 LINE",
"192 -45 LINE",
"187 -45 OFFCURVE",
"165 -23 OFFCURVE",
"138 66 CURVE SMOOTH",
"120 130 OFFCURVE",
"106 202 OFFCURVE",
"106 238 CURVE SMOOTH",
"106 273 OFFCURVE",
"96 294 OFFCURVE",
"85 305 CURVE",
"97 315 OFFCURVE",
"106 334 OFFCURVE",
"109 360 CURVE",
"110 361 LINE",
"110 361 LINE",
"114 440 OFFCURVE",
"125 507 OFFCURVE",
"143 555 CURVE SMOOTH",
"164 610 OFFCURVE",
"185 619 OFFCURVE",
"193 620 CURVE SMOOTH",
"204 622 LINE",
"204 657 LINE",
"190 655 LINE",
"111 650 OFFCURVE",
"53 532 OFFCURVE",
"40 356 CURVE SMOOTH",
"40 349 OFFCURVE",
"37 340 OFFCURVE",
"32 333 CURVE SMOOTH",
"29 327 OFFCURVE",
"23 321 OFFCURVE",
"16 321 CURVE SMOOTH",
"11 321 LINE",
"11 301 LINE",
"12 300 LINE",
"12 299 OFFCURVE",
"13 299 OFFCURVE",
"13 298 CURVE",
"28 288 OFFCURVE",
"37 270 OFFCURVE",
"40 247 CURVE",
"41 186 OFFCURVE",
"50 131 OFFCURVE",
"64 82 CURVE SMOOTH",
"77 33 OFFCURVE",
"93 -3 OFFCURVE",
"115 -31 CURVE SMOOTH",
"137 -60 OFFCURVE",
"162 -76 OFFCURVE",
"189 -78 CURVE SMOOTH"
);
}
);
width = 213;
}
);
note = braceleft;
unicode = 007B;
},
{
glyphname = braceright;
layers = (
{
hints = (
{
horizontal = 1;
place = "{-78, 34}";
type = Stem;
},
{
horizontal = 1;
place = "{287, 23}";
type = Stem;
},
{
horizontal = 1;
place = "{623, 33}";
type = Stem;
},
{
place = "{10, 193}";
type = Stem;
},
{
place = "{108, 95}";
type = Stem;
}
);
layerId = "8AA200AC-43EB-4C51-877F-34011B5AD0E7";
paths = (
{
closed = 1;
nodes = (
"24 -78 LINE",
"24 -78 LINE",
"43 -77 OFFCURVE",
"61 -67 OFFCURVE",
"78 -49 CURVE SMOOTH",
"95 -32 OFFCURVE",
"110 -9 OFFCURVE",
"123 21 CURVE SMOOTH",
"150 81 OFFCURVE",
"167 163 OFFCURVE",
"173 252 CURVE SMOOTH",
"174 261 OFFCURVE",
"178 269 OFFCURVE",
"182 275 CURVE SMOOTH",
"187 283 OFFCURVE",
"192 287 OFFCURVE",
"199 287 CURVE SMOOTH",
"203 287 LINE",
"203 310 LINE",
"200 310 LINE",
"196 312 OFFCURVE",
"178 325 OFFCURVE",
"175 361 CURVE SMOOTH",
"173 416 OFFCURVE",
"166 440 OFFCURVE",
"151 492 CURVE",
"151 494 LINE",
"151 495 LINE",
"150 495 LINE",
"136 544 OFFCURVE",
"120 580 OFFCURVE",
"99 608 CURVE SMOOTH",
"77 637 OFFCURVE",
"52 653 OFFCURVE",
"25 655 CURVE SMOOTH",
"10 657 LINE",
"10 623 LINE",
"21 623 LINE",
"24 622 OFFCURVE",
"31 619 OFFCURVE",
"44 597 CURVE SMOOTH",
"54 581 OFFCURVE",
"65 558 OFFCURVE",
"74 532 CURVE SMOOTH",
"95 474 OFFCURVE",
"108 414 OFFCURVE",
"108 370 CURVE SMOOTH",
"108 336 OFFCURVE",
"118 315 OFFCURVE",
"128 303 CURVE",
"116 293 OFFCURVE",
"108 274 OFFCURVE",
"104 248 CURVE",
"104 248 LINE",
"104 247 LINE SMOOTH",
"100 167 OFFCURVE",
"88 93 OFFCURVE",
"70 38 CURVE SMOOTH",
"47 -33 OFFCURVE",
"27 -42 OFFCURVE",
"21 -43 CURVE SMOOTH",
"10 -45 LINE",
"10 -78 LINE"
);
}
);
width = 213;
}
);
note = braceright;
unicode = 007D;
},
{
glyphname = bar;
layers = (
{
hints = (
{
horizontal = 1;
place = "{-108, 863}";
type = Stem;
},
{
place = "{14, 45}";
type = Stem;
}
);
layerId = "8AA200AC-43EB-4C51-877F-34011B5AD0E7";
paths = (
{
closed = 1;
nodes = (
"55 -108 LINE",
"64 755 LINE",
"19 755 LINE",
"10 -108 LINE"
);
}
);
width = 74;
}
);
note = bar;
unicode = 007C;
},
{
glyphname = asciitilde;
layers = (
{
hints = (
{
horizontal = 1;
place = "{195, 41}";
type = Stem;
},
{
horizontal = 1;
place = "{274, 45}";
type = Stem;
},
{
place = "{10, 33}";
type = Stem;
},
{
place = "{371, 37}";
type = Stem;
}
);
layerId = "8AA200AC-43EB-4C51-877F-34011B5AD0E7";
paths = (
{
closed = 1;
nodes = (
"336 195 OFFCURVE",
"369 216 OFFCURVE",
"389 255 CURVE SMOOTH",
"405 284 OFFCURVE",
"408 312 OFFCURVE",
"408 313 CURVE SMOOTH",
"409 319 LINE",
"372 319 LINE",
"371 316 LINE SMOOTH",
"371 315 OFFCURVE",
"363 295 OFFCURVE",
"350 275 CURVE SMOOTH",
"338 257 OFFCURVE",
"318 236 OFFCURVE",
"293 236 CURVE SMOOTH",
"269 236 OFFCURVE",
"242 254 OFFCURVE",
"213 274 CURVE SMOOTH",
"181 296 OFFCURVE",
"147 319 OFFCURVE",
"112 319 CURVE SMOOTH",
"75 319 OFFCURVE",
"46 300 OFFCURVE",
"27 264 CURVE SMOOTH",
"13 238 OFFCURVE",
"10 212 OFFCURVE",
"10 211 CURVE SMOOTH",
"10 206 LINE",
"37 200 LINE",
"42 199 LINE",
"43 204 LINE SMOOTH",
"43 205 OFFCURVE",
"46 222 OFFCURVE",
"56 240 CURVE SMOOTH",
"70 262 OFFCURVE",
"89 274 OFFCURVE",
"113 274 CURVE SMOOTH",
"141 274 OFFCURVE",
"160 259 OFFCURVE",
"182 241 CURVE SMOOTH",
"210 220 OFFCURVE",
"241 195 OFFCURVE",
"295 195 CURVE SMOOTH"
);
}
);
width = 418;
}
);
note = asciitilde;
unicode = 007E;
},
{
glyphname = Euro;
layers = (
{
hints = (
{
horizontal = 1;
place = "{68, 33}";
type = Stem;
},
{
horizontal = 1;
place = "{244, 37}";
type = Stem;
},
{
horizontal = 1;
place = "{490, 36}";
type = Stem;
},
{
place = "{44, 71}";
type = Stem;
},
{
place = "{267, 33}";
type = Stem;
},
{
place = "{10, 104}";
type = Stem;
},
{
horizontal = 1;
place = "{306, 37}";
type = Stem;
},
{
horizontal = 1;
place = "{340, 167}";
type = Stem;
}
);
layerId = "8AA200AC-43EB-4C51-877F-34011B5AD0E7";
paths = (
{
closed = 1;
nodes = (
"213 68 OFFCURVE",
"246 85 OFFCURVE",
"267 119 CURVE",
"267 89 LINE",
"306 89 LINE",
"304 103 LINE SMOOTH",
"304 104 OFFCURVE",
"300 143 OFFCURVE",
"300 174 CURVE SMOOTH",
"300 203 OFFCURVE",
"304 241 OFFCURVE",
"304 244 CURVE",
"307 261 LINE",
"300 260 LINE SMOOTH",
"296 259 OFFCURVE",
"284 257 OFFCURVE",
"279 257 CURVE SMOOTH",
"278 257 OFFCURVE",
"266 258 OFFCURVE",
"258 258 CURVE SMOOTH",
"252 258 LINE",
"253 253 LINE SMOOTH",
"253 252 OFFCURVE",
"260 165 OFFCURVE",
"222 123 CURVE SMOOTH",
"209 109 OFFCURVE",
"191 101 OFFCURVE",
"169 101 CURVE SMOOTH",
"155 101 OFFCURVE",
"143 113 OFFCURVE",
"134 137 CURVE SMOOTH",
"125 161 OFFCURVE",
"119 197 OFFCURVE",
"115 244 CURVE",
"225 244 LINE",
"225 281 LINE",
"114 281 LINE",
"114 289 OFFCURVE",
"114 297 OFFCURVE",
"114 305 CURVE SMOOTH",
"114 306 LINE",
"225 306 LINE",
"225 343 LINE",
"115 343 LINE",
"117 392 OFFCURVE",
"123 430 OFFCURVE",
"133 454 CURVE SMOOTH",
"143 478 OFFCURVE",
"156 490 OFFCURVE",
"174 490 CURVE SMOOTH",
"193 490 OFFCURVE",
"208 483 OFFCURVE",
"220 471 CURVE SMOOTH",
"256 431 OFFCURVE",
"250 344 OFFCURVE",
"250 343 CURVE SMOOTH",
"250 337 LINE",
"256 338 LINE SMOOTH",
"260 339 OFFCURVE",
"273 340 OFFCURVE",
"277 340 CURVE SMOOTH",
"281 340 OFFCURVE",
"294 339 OFFCURVE",
"299 338 CURVE SMOOTH",
"306 337 LINE",
"305 344 LINE",
"305 344 OFFCURVE",
"300 392 OFFCURVE",
"300 423 CURVE SMOOTH",
"300 453 OFFCURVE",
"304 492 OFFCURVE",
"304 493 CURVE SMOOTH",
"306 507 LINE",
"267 507 LINE",
"267 478 LINE",
"247 510 OFFCURVE",
"215 526 OFFCURVE",
"173 526 CURVE SMOOTH",
"99 526 OFFCURVE",
"52 459 OFFCURVE",
"44 343 CURVE",
"10 343 LINE",
"10 306 LINE",
"43 306 LINE",
"43 305 LINE SMOOTH",
"43 300 OFFCURVE",
"43 295 OFFCURVE",
"43 290 CURVE",
"44 287 OFFCURVE",
"44 284 OFFCURVE",
"44 281 CURVE",
"10 281 LINE",
"10 244 LINE",
"47 244 LINE",
"52 191 OFFCURVE",
"66 147 OFFCURVE",
"86 117 CURVE SMOOTH",
"108 85 OFFCURVE",
"136 68 OFFCURVE",
"169 68 CURVE SMOOTH"
);
}
);
width = 316;
}
);
note = Euro;
unicode = 20AC;
},
{
glyphname = quotesinglbase;
layers = (
{
hints = (
{
horizontal = 1;
place = "{-1, 21}";
target = up;
type = BottomGhost;
},
{
place = "{60, 39}";
type = Stem;
},
{
horizontal = 1;
place = "{-54, 29}";
type = Stem;
}
);
layerId = "8AA200AC-43EB-4C51-877F-34011B5AD0E7";
paths = (
{
closed = 1;
nodes = (
"30 -54 LINE SMOOTH",
"49 -54 OFFCURVE",
"74 -44 OFFCURVE",
"85 -22 CURVE",
"85 -22 LINE",
"94 -5 OFFCURVE",
"99 16 OFFCURVE",
"99 37 CURVE SMOOTH",
"99 78 OFFCURVE",
"82 106 OFFCURVE",
"56 106 CURVE SMOOTH",
"29 106 OFFCURVE",
"10 84 OFFCURVE",
"10 52 CURVE SMOOTH",
"10 38 OFFCURVE",
"14 25 OFFCURVE",
"23 14 CURVE SMOOTH",
"31 4 OFFCURVE",
"42 -2 OFFCURVE",
"54 -2 CURVE SMOOTH",
"56 -2 OFFCURVE",
"58 -2 OFFCURVE",
"60 -1 CURVE",
"54 -25 OFFCURVE",
"39 -25 OFFCURVE",
"30 -25 CURVE SMOOTH",
"25 -25 LINE",
"25 -54 LINE"
);
}
);
width = 109;
}
);
note = quotesinglbase;
unicode = 201A;
},
{
glyphname = quotedblbase;
layers = (
{
hints = (
{
horizontal = 1;
place = "{-64, 29}";
type = Stem;
},
{
horizontal = 1;
place = "{-1, 21}";
target = up;
type = BottomGhost;
},
{
place = "{61, 38}";
type = Stem;
},
{
place = "{109, 90}";
type = Stem;
},
{
horizontal = 1;
place = "{-12, 108}";
type = Stem;
},
{
horizontal = 1;
place = "{-54, 29}";
type = Stem;
},
{
horizontal = 1;
place = "{-2, 108}";
type = Stem;
}
);
layerId = "8AA200AC-43EB-4C51-877F-34011B5AD0E7";
paths = (
{
closed = 1;
nodes = (
"129 -64 LINE SMOOTH",
"148 -64 OFFCURVE",
"173 -54 OFFCURVE",
"185 -32 CURVE",
"185 -32 LINE",
"194 -15 OFFCURVE",
"199 6 OFFCURVE",
"199 27 CURVE SMOOTH",
"199 68 OFFCURVE",
"181 96 OFFCURVE",
"155 96 CURVE SMOOTH",
"128 96 OFFCURVE",
"109 74 OFFCURVE",
"109 42 CURVE SMOOTH",
"109 28 OFFCURVE",
"114 14 OFFCURVE",
"122 4 CURVE SMOOTH",
"130 -6 OFFCURVE",
"142 -12 OFFCURVE",
"153 -12 CURVE SMOOTH",
"156 -12 OFFCURVE",
"158 -12 OFFCURVE",
"160 -12 CURVE",
"154 -35 OFFCURVE",
"139 -35 OFFCURVE",
"129 -35 CURVE SMOOTH",
"125 -35 LINE",
"125 -64 LINE"
);
},
{
closed = 1;
nodes = (
"30 -54 LINE SMOOTH",
"49 -54 OFFCURVE",
"74 -44 OFFCURVE",
"86 -22 CURVE",
"86 -22 LINE",
"95 -5 OFFCURVE",
"99 16 OFFCURVE",
"99 37 CURVE SMOOTH",
"99 78 OFFCURVE",
"82 106 OFFCURVE",
"56 106 CURVE SMOOTH",
"29 106 OFFCURVE",
"10 84 OFFCURVE",
"10 52 CURVE SMOOTH",
"10 38 OFFCURVE",
"15 25 OFFCURVE",
"23 14 CURVE SMOOTH",
"32 4 OFFCURVE",
"43 -2 OFFCURVE",
"54 -2 CURVE SMOOTH",
"57 -2 OFFCURVE",
"59 -2 OFFCURVE",
"61 -1 CURVE",
"55 -25 OFFCURVE",
"40 -25 OFFCURVE",
"30 -25 CURVE SMOOTH",
"25 -25 LINE",
"25 -54 LINE"
);
}
);
width = 208;
}
);
note = quotedblbase;
unicode = 201E;
},
{
glyphname = ellipsis;
layers = (
{
hints = (
{
horizontal = 1;
place = "{-2, 21}";
target = up;
type = BottomGhost;
},
{
place = "{10, 86}";
type = Stem;
},
{
place = "{221, 87}";
type = Stem;
},
{
horizontal = 1;
place = "{-17, 108}";
type = Stem;
},
{
place = "{113, 87}";
type = Stem;
},
{
horizontal = 1;
place = "{-2, 108}";
type = Stem;
}
);
layerId = "8AA200AC-43EB-4C51-877F-34011B5AD0E7";
paths = (
{
closed = 1;
nodes = (
"180 -17 OFFCURVE",
"200 7 OFFCURVE",
"200 37 CURVE SMOOTH",
"200 67 OFFCURVE",
"180 91 OFFCURVE",
"157 91 CURVE SMOOTH",
"145 91 OFFCURVE",
"134 85 OFFCURVE",
"125 75 CURVE SMOOTH",
"117 64 OFFCURVE",
"113 51 OFFCURVE",
"113 37 CURVE SMOOTH",
"113 23 OFFCURVE",
"117 10 OFFCURVE",
"125 -1 CURVE SMOOTH",
"134 -11 OFFCURVE",
"145 -17 OFFCURVE",
"157 -17 CURVE SMOOTH"
);
},
{
closed = 1;
nodes = (
"289 -2 OFFCURVE",
"308 22 OFFCURVE",
"308 52 CURVE SMOOTH",
"308 82 OFFCURVE",
"289 106 OFFCURVE",
"265 106 CURVE SMOOTH",
"254 106 OFFCURVE",
"242 100 OFFCURVE",
"234 90 CURVE SMOOTH",
"226 79 OFFCURVE",
"221 66 OFFCURVE",
"221 52 CURVE SMOOTH",
"221 38 OFFCURVE",
"226 25 OFFCURVE",
"234 14 CURVE SMOOTH",
"242 4 OFFCURVE",
"254 -2 OFFCURVE",
"265 -2 CURVE SMOOTH"
);
},
{
closed = 1;
nodes = (
"77 -2 OFFCURVE",
"96 22 OFFCURVE",
"96 52 CURVE SMOOTH",
"96 82 OFFCURVE",
"77 106 OFFCURVE",
"53 106 CURVE SMOOTH",
"42 106 OFFCURVE",
"31 100 OFFCURVE",
"22 90 CURVE SMOOTH",
"14 79 OFFCURVE",
"10 66 OFFCURVE",
"10 52 CURVE SMOOTH",
"10 38 OFFCURVE",
"14 25 OFFCURVE",
"22 14 CURVE SMOOTH",
"31 4 OFFCURVE",
"42 -2 OFFCURVE",
"53 -2 CURVE SMOOTH"
);
}
);
width = 319;
}
);
note = ellipsis;
unicode = 2026;
},
{
glyphname = circumflex;
layers = (
{
hints = (
{
horizontal = 1;
place = "{625, 113}";
type = Stem;
},
{
place = "{42, 223}";
type = Stem;
}
);
layerId = "8AA200AC-43EB-4C51-877F-34011B5AD0E7";
paths = (
{
closed = 1;
nodes = (
"250 625 LINE",
"265 639 LINE",
"166 738 LINE",
"144 738 LINE",
"42 639 LINE",
"58 625 LINE",
"154 684 LINE"
);
}
);
width = 308;
}
);
note = circumflex;
unicode = 02C6;
},
{
glyphname = guilsinglleft;
layers = (
{
hints = (
{
horizontal = 1;
place = "{85, 323}";
type = Stem;
},
{
place = "{10, 41}";
type = Stem;
}
);
layerId = "8AA200AC-43EB-4C51-877F-34011B5AD0E7";
paths = (
{
closed = 1;
nodes = (
"177 85 LINE",
"177 136 LINE",
"51 247 LINE",
"177 357 LINE",
"177 408 LINE",
"10 267 LINE",
"10 226 LINE"
);
}
);
width = 187;
}
);
note = guilsinglleft;
unicode = 2039;
},
{
glyphname = quoteleft;
layers = (
{
hints = (
{
horizontal = 1;
place = "{594, 29}";
type = Stem;
},
{
place = "{10, 39}";
type = Stem;
},
{
horizontal = 1;
place = "{463, 108}";
type = Stem;
},
{
place = "{49, 35}";
type = Stem;
}
);
layerId = "8AA200AC-43EB-4C51-877F-34011B5AD0E7";
paths = (
{
closed = 1;
nodes = (
"80 463 OFFCURVE",
"99 485 OFFCURVE",
"99 517 CURVE SMOOTH",
"99 531 OFFCURVE",
"95 544 OFFCURVE",
"86 555 CURVE SMOOTH",
"78 565 OFFCURVE",
"67 571 OFFCURVE",
"55 571 CURVE SMOOTH",
"53 571 OFFCURVE",
"50 571 OFFCURVE",
"49 570 CURVE",
"55 594 OFFCURVE",
"70 594 OFFCURVE",
"79 594 CURVE SMOOTH",
"84 594 LINE",
"84 623 LINE",
"79 623 LINE SMOOTH",
"60 623 OFFCURVE",
"35 613 OFFCURVE",
"24 591 CURVE",
"24 591 LINE",
"15 573 OFFCURVE",
"10 552 OFFCURVE",
"10 532 CURVE SMOOTH",
"10 490 OFFCURVE",
"27 463 OFFCURVE",
"53 463 CURVE SMOOTH"
);
}
);
width = 109;
}
);
note = quoteleft;
unicode = 2018;
},
{
glyphname = quoteright;
layers = (
{
hints = (
{
horizontal = 1;
place = "{463, 29}";
type = Stem;
},
{
place = "{11, 88}";
type = Stem;
},
{
horizontal = 1;
place = "{515, 108}";
type = Stem;
}
);
layerId = "8AA200AC-43EB-4C51-877F-34011B5AD0E7";
paths = (
{
closed = 1;
nodes = (
"30 463 LINE SMOOTH",
"49 463 OFFCURVE",
"75 473 OFFCURVE",
"86 495 CURVE",
"86 495 LINE",
"95 512 OFFCURVE",
"99 533 OFFCURVE",
"99 554 CURVE SMOOTH",
"99 595 OFFCURVE",
"82 623 OFFCURVE",
"56 623 CURVE SMOOTH",
"29 623 OFFCURVE",
"11 601 OFFCURVE",
"11 569 CURVE SMOOTH",
"11 555 OFFCURVE",
"15 541 OFFCURVE",
"23 531 CURVE SMOOTH",
"32 521 OFFCURVE",
"43 515 OFFCURVE",
"55 515 CURVE SMOOTH",
"57 515 OFFCURVE",
"59 515 OFFCURVE",
"61 515 CURVE",
"55 492 OFFCURVE",
"40 492 OFFCURVE",
"30 492 CURVE SMOOTH",
"25 492 LINE",
"25 463 LINE"
);
}
);
width = 109;
}
);
note = quoteright;
unicode = 2019;
},
{
glyphname = quotedblleft;
layers = (
{
hints = (
{
horizontal = 1;
place = "{449, 109}";
type = Stem;
},
{
horizontal = 1;
place = "{594, 29}";
type = Stem;
},
{
place = "{10, 39}";
type = Stem;
},
{
place = "{107, 39}";
type = Stem;
},
{
horizontal = 1;
place = "{581, 29}";
type = Stem;
}
);
layerId = "8AA200AC-43EB-4C51-877F-34011B5AD0E7";
paths = (
{
closed = 1;
nodes = (
"177 449 OFFCURVE",
"196 472 OFFCURVE",
"196 504 CURVE SMOOTH",
"196 518 OFFCURVE",
"192 531 OFFCURVE",
"183 541 CURVE SMOOTH",
"175 552 OFFCURVE",
"164 558 OFFCURVE",
"152 558 CURVE SMOOTH",
"150 558 OFFCURVE",
"147 557 OFFCURVE",
"146 557 CURVE",
"152 581 OFFCURVE",
"167 581 OFFCURVE",
"176 581 CURVE SMOOTH",
"181 581 LINE",
"181 610 LINE",
"176 610 LINE SMOOTH",
"157 610 OFFCURVE",
"132 600 OFFCURVE",
"121 578 CURVE",
"121 578 LINE",
"112 560 OFFCURVE",
"107 539 OFFCURVE",
"107 518 CURVE SMOOTH",
"107 477 OFFCURVE",
"124 449 OFFCURVE",
"150 449 CURVE SMOOTH"
);
},
{
closed = 1;
nodes = (
"80 463 OFFCURVE",
"99 485 OFFCURVE",
"99 517 CURVE SMOOTH",
"99 531 OFFCURVE",
"95 544 OFFCURVE",
"86 554 CURVE SMOOTH",
"78 565 OFFCURVE",
"67 571 OFFCURVE",
"55 571 CURVE SMOOTH",
"53 571 OFFCURVE",
"51 570 OFFCURVE",
"49 570 CURVE",
"55 594 OFFCURVE",
"70 594 OFFCURVE",
"79 594 CURVE SMOOTH",
"84 594 LINE",
"84 623 LINE",
"79 623 LINE SMOOTH",
"60 623 OFFCURVE",
"35 613 OFFCURVE",
"24 591 CURVE",
"24 591 LINE",
"15 573 OFFCURVE",
"10 552 OFFCURVE",
"10 531 CURVE SMOOTH",
"10 490 OFFCURVE",
"27 463 OFFCURVE",
"53 463 CURVE SMOOTH"
);
}
);
width = 206;
}
);
note = quotedblleft;
unicode = 201C;
},
{
glyphname = quotedblright;
layers = (
{
hints = (
{
horizontal = 1;
place = "{475, 29}";
type = Stem;
},
{
place = "{60, 38}";
type = Stem;
},
{
place = "{150, 39}";
type = Stem;
},
{
horizontal = 1;
place = "{462, 29}";
type = Stem;
},
{
horizontal = 1;
place = "{514, 109}";
type = Stem;
},
{
horizontal = 1;
place = "{527, 109}";
type = Stem;
}
);
layerId = "8AA200AC-43EB-4C51-877F-34011B5AD0E7";
paths = (
{
closed = 1;
nodes = (
"30 462 LINE SMOOTH",
"48 462 OFFCURVE",
"74 472 OFFCURVE",
"85 494 CURVE",
"85 494 LINE",
"94 512 OFFCURVE",
"98 533 OFFCURVE",
"98 554 CURVE SMOOTH",
"98 595 OFFCURVE",
"81 623 OFFCURVE",
"56 623 CURVE SMOOTH",
"28 623 OFFCURVE",
"10 600 OFFCURVE",
"10 568 CURVE SMOOTH",
"10 554 OFFCURVE",
"14 541 OFFCURVE",
"22 531 CURVE SMOOTH",
"31 521 OFFCURVE",
"42 514 OFFCURVE",
"54 514 CURVE SMOOTH",
"56 514 OFFCURVE",
"58 515 OFFCURVE",
"60 515 CURVE",
"54 491 OFFCURVE",
"39 491 OFFCURVE",
"30 491 CURVE SMOOTH",
"25 491 LINE",
"25 462 LINE"
);
},
{
closed = 1;
nodes = (
"120 475 LINE SMOOTH",
"138 475 OFFCURVE",
"164 485 OFFCURVE",
"175 507 CURVE",
"175 507 LINE",
"184 525 OFFCURVE",
"189 546 OFFCURVE",
"189 567 CURVE SMOOTH",
"189 608 OFFCURVE",
"171 636 OFFCURVE",
"146 636 CURVE SMOOTH",
"118 636 OFFCURVE",
"100 613 OFFCURVE",
"100 582 CURVE SMOOTH",
"100 567 OFFCURVE",
"104 554 OFFCURVE",
"112 544 CURVE SMOOTH",
"120 533 OFFCURVE",
"132 527 OFFCURVE",
"143 527 CURVE SMOOTH",
"146 527 OFFCURVE",
"148 528 OFFCURVE",
"150 528 CURVE",
"144 504 OFFCURVE",
"129 504 OFFCURVE",
"120 504 CURVE SMOOTH",
"115 504 LINE",
"115 475 LINE"
);
}
);
width = 199;
}
);
note = quotedblright;
unicode = 201D;
},
{
glyphname = bullet;
layers = (
{
hints = (
{
horizontal = 1;
place = "{280, 153}";
type = Stem;
},
{
place = "{9, 125}";
type = Stem;
}
);
layerId = "8AA200AC-43EB-4C51-877F-34011B5AD0E7";
paths = (
{
closed = 1;
nodes = (
"106 280 OFFCURVE",
"134 313 OFFCURVE",
"134 356 CURVE SMOOTH",
"134 398 OFFCURVE",
"106 433 OFFCURVE",
"71 433 CURVE SMOOTH",
"56 433 OFFCURVE",
"38 425 OFFCURVE",
"26 410 CURVE SMOOTH",
"15 396 OFFCURVE",
"9 377 OFFCURVE",
"9 356 CURVE SMOOTH",
"9 336 OFFCURVE",
"15 316 OFFCURVE",
"26 302 CURVE SMOOTH",
"38 288 OFFCURVE",
"56 280 OFFCURVE",
"71 280 CURVE SMOOTH"
);
}
);
width = 143;
}
);
note = bullet;
unicode = 2022;
},
{
glyphname = endash;
layers = (
{
hints = (
{
horizontal = 1;
place = "{303, 44}";
type = Stem;
},
{
place = "{10, 220}";
type = Stem;
}
);
layerId = "8AA200AC-43EB-4C51-877F-34011B5AD0E7";
paths = (
{
closed = 1;
nodes = (
"230 303 LINE",
"230 347 LINE",
"10 347 LINE",
"10 303 LINE"
);
}
);
width = 240;
}
);
note = endash;
unicode = 2013;
},
{
glyphname = emdash;
layers = (
{
hints = (
{
horizontal = 1;
place = "{304, 43}";
type = Stem;
},
{
place = "{10, 358}";
type = Stem;
}
);
layerId = "8AA200AC-43EB-4C51-877F-34011B5AD0E7";
paths = (
{
closed = 1;
nodes = (
"368 304 LINE",
"368 347 LINE",
"10 347 LINE",
"10 304 LINE"
);
}
);
width = 378;
}
);
note = emdash;
unicode = 2014;
},
{
glyphname = tilde;
layers = (
{
hints = (
{
horizontal = 1;
place = "{613, 39}";
type = Stem;
},
{
place = "{37, 23}";
type = Stem;
},
{
place = "{253, 25}";
type = Stem;
},
{
horizontal = 1;
place = "{659, 42}";
type = Stem;
}
);
layerId = "8AA200AC-43EB-4C51-877F-34011B5AD0E7";
paths = (
{
closed = 1;
nodes = (
"234 613 OFFCURVE",
"254 627 OFFCURVE",
"267 655 CURVE SMOOTH",
"276 675 OFFCURVE",
"278 695 OFFCURVE",
"278 696 CURVE SMOOTH",
"279 701 LINE",
"254 701 LINE",
"252 698 LINE",
"252 698 OFFCURVE",
"236 652 OFFCURVE",
"207 652 CURVE SMOOTH",
"193 652 OFFCURVE",
"178 663 OFFCURVE",
"161 674 CURVE SMOOTH",
"141 688 OFFCURVE",
"121 701 OFFCURVE",
"99 701 CURVE SMOOTH",
"76 701 OFFCURVE",
"58 690 OFFCURVE",
"47 668 CURVE SMOOTH",
"39 652 OFFCURVE",
"37 636 OFFCURVE",
"37 635 CURVE SMOOTH",
"37 631 LINE",
"54 627 LINE",
"59 626 LINE",
"60 631 LINE SMOOTH",
"60 632 OFFCURVE",
"66 659 OFFCURVE",
"100 659 CURVE SMOOTH",
"116 659 OFFCURVE",
"127 650 OFFCURVE",
"140 640 CURVE SMOOTH",
"156 627 OFFCURVE",
"175 613 OFFCURVE",
"208 613 CURVE SMOOTH"
);
}
);
width = 315;
}
);
note = tilde;
unicode = 02DC;
},
{
glyphname = guilsinglright;
layers = (
{
hints = (
{
horizontal = 1;
place = "{85, 323}";
type = Stem;
},
{
place = "{136, 42}";
type = Stem;
}
);
layerId = "8AA200AC-43EB-4C51-877F-34011B5AD0E7";
paths = (
{
closed = 1;
nodes = (
"10 85 LINE",
"178 226 LINE",
"178 267 LINE",
"10 408 LINE",
"10 357 LINE",
"136 247 LINE",
"10 136 LINE"
);
}
);
width = 188;
}
);
note = guilsinglright;
unicode = 203A;
},
{
glyphname = cent;
layers = (
{
hints = (
{
horizontal = 1;
place = "{11, 90}";
type = Stem;
},
{
horizontal = 1;
place = "{244, 13}";
type = Stem;
},
{
horizontal = 1;
place = "{490, 34}";
type = Stem;
},
{
place = "{10, 70}";
type = Stem;
},
{
place = "{123, 34}";
type = Stem;
},
{
place = "{233, 33}";
type = Stem;
},
{
horizontal = 1;
place = "{340, 167}";
type = Stem;
}
);
layerId = "8AA200AC-43EB-4C51-877F-34011B5AD0E7";
paths = (
{
closed = 1;
nodes = (
"157 11 LINE",
"157 69 LINE",
"190 74 OFFCURVE",
"215 90 OFFCURVE",
"233 119 CURVE",
"233 89 LINE",
"273 89 LINE",
"271 102 LINE SMOOTH",
"271 103 OFFCURVE",
"266 142 OFFCURVE",
"266 174 CURVE SMOOTH",
"266 204 OFFCURVE",
"271 244 OFFCURVE",
"271 244 CURVE",
"273 261 LINE",
"266 260 LINE SMOOTH",
"262 259 OFFCURVE",
"249 257 OFFCURVE",
"245 257 CURVE SMOOTH",
"244 257 OFFCURVE",
"232 257 OFFCURVE",
"224 258 CURVE SMOOTH",
"219 258 LINE",
"219 252 LINE",
"219 252 OFFCURVE",
"223 162 OFFCURVE",
"184 121 CURVE SMOOTH",
"171 108 OFFCURVE",
"154 101 OFFCURVE",
"135 101 CURVE SMOOTH",
"114 101 OFFCURVE",
"80 127 OFFCURVE",
"80 305 CURVE SMOOTH",
"80 428 OFFCURVE",
"100 490 OFFCURVE",
"141 490 CURVE SMOOTH",
"156 490 OFFCURVE",
"169 484 OFFCURVE",
"180 473 CURVE SMOOTH",
"217 435 OFFCURVE",
"216 344 OFFCURVE",
"216 343 CURVE SMOOTH",
"216 337 LINE",
"221 338 LINE SMOOTH",
"226 338 OFFCURVE",
"239 340 OFFCURVE",
"243 340 CURVE SMOOTH",
"247 340 OFFCURVE",
"261 338 OFFCURVE",
"266 338 CURVE SMOOTH",
"273 337 LINE",
"272 343 LINE SMOOTH",
"272 344 OFFCURVE",
"266 392 OFFCURVE",
"266 423 CURVE SMOOTH",
"266 453 OFFCURVE",
"272 501 OFFCURVE",
"272 501 CURVE",
"273 507 LINE",
"233 507 LINE",
"233 478 LINE",
"216 505 OFFCURVE",
"190 521 OFFCURVE",
"157 524 CURVE",
"157 594 LINE",
"123 594 LINE",
"123 524 LINE",
"88 519 OFFCURVE",
"59 497 OFFCURVE",
"40 461 CURVE SMOOTH",
"20 423 OFFCURVE",
"10 370 OFFCURVE",
"10 305 CURVE SMOOTH",
"10 228 OFFCURVE",
"22 168 OFFCURVE",
"46 126 CURVE SMOOTH",
"70 85 OFFCURVE",
"100 72 OFFCURVE",
"123 68 CURVE",
"123 11 LINE"
);
}
);
width = 282;
}
);
note = cent;
unicode = 00A2;
},
{
glyphname = yen;
layers = (
{
hints = (
{
horizontal = 1;
place = "{16, 30}";
type = Stem;
},
{
horizontal = 1;
place = "{202, 36}";
type = Stem;
},
{
horizontal = 1;
place = "{488, 35}";
type = Stem;
},
{
place = "{142, 69}";
type = Stem;
},
{
horizontal = 1;
place = "{139, 38}";
type = Stem;
},
{
horizontal = 1;
place = "{486, 29}";
type = Stem;
},
{
place = "{201, 140}";
type = Stem;
},
{
place = "{10, 162}";
type = Stem;
}
);
layerId = "8AA200AC-43EB-4C51-877F-34011B5AD0E7";
paths = (
{
closed = 1;
nodes = (
"264 9 LINE",
"264 46 LINE",
"260 46 LINE SMOOTH",
"237 49 OFFCURVE",
"215 53 OFFCURVE",
"211 57 CURVE",
"211 139 LINE",
"307 139 LINE",
"307 177 LINE",
"211 177 LINE",
"211 202 LINE",
"307 202 LINE",
"307 238 LINE",
"215 238 LINE",
"288 476 LINE",
"292 479 OFFCURVE",
"314 484 OFFCURVE",
"336 486 CURVE SMOOTH",
"341 486 LINE",
"341 523 LINE",
"335 522 LINE",
"335 522 OFFCURVE",
"295 515 OFFCURVE",
"272 515 CURVE SMOOTH",
"248 515 OFFCURVE",
"207 520 OFFCURVE",
"207 520 CURVE",
"201 521 LINE",
"201 486 LINE",
"206 486 LINE SMOOTH",
"224 484 OFFCURVE",
"242 480 OFFCURVE",
"247 477 CURVE",
"191 289 LINE",
"135 480 LINE",
"139 483 OFFCURVE",
"153 487 OFFCURVE",
"167 487 CURVE",
"172 488 LINE",
"172 525 LINE",
"166 524 LINE",
"166 524 OFFCURVE",
"123 517 OFFCURVE",
"96 517 CURVE SMOOTH",
"72 517 OFFCURVE",
"39 522 OFFCURVE",
"28 523 CURVE SMOOTH",
"25 523 OFFCURVE",
"24 523 OFFCURVE",
"24 523 CURVE",
"10 523 LINE",
"10 488 LINE",
"14 487 LINE",
"37 485 OFFCURVE",
"63 480 OFFCURVE",
"67 476 CURVE",
"138 238 LINE",
"45 238 LINE",
"45 202 LINE",
"142 202 LINE",
"142 177 LINE",
"45 177 LINE",
"45 139 LINE",
"142 139 LINE",
"142 56 LINE",
"137 53 OFFCURVE",
"114 49 OFFCURVE",
"93 46 CURVE SMOOTH",
"89 46 LINE",
"89 9 LINE",
"95 10 LINE",
"95 10 OFFCURVE",
"145 16 OFFCURVE",
"177 16 CURVE SMOOTH",
"208 16 OFFCURVE",
"258 10 OFFCURVE",
"258 10 CURVE"
);
}
);
width = 351;
}
);
note = yen;
unicode = 00A5;
},
{
glyphname = sterling;
layers = (
{
hints = (
{
horizontal = 1;
place = "{0, 21}";
target = up;
type = BottomGhost;
},
{
horizontal = 1;
place = "{65, 42}";
type = Stem;
},
{
horizontal = 1;
place = "{149, 51}";
type = Stem;
},
{
horizontal = 1;
place = "{303, 40}";
type = Stem;
},
{
horizontal = 1;
place = "{571, 38}";
type = Stem;
},
{
place = "{83, 74}";
type = Stem;
},
{
place = "{301, 37}";
type = Stem;
},
{
horizontal = 1;
place = "{-6, 173}";
type = Stem;
},
{
horizontal = 1;
place = "{-6, 113}";
type = Stem;
},
{
place = "{142, 84}";
type = Stem;
},
{
place = "{260, 36}";
type = Stem;
},
{
place = "{12, 57}";
type = Stem;
},
{
horizontal = 1;
place = "{35, 72}";
type = Stem;
}
);
layerId = "8AA200AC-43EB-4C51-877F-34011B5AD0E7";
paths = (
{
closed = 1;
nodes = (
"339 -6 LINE",
"345 -6 LINE",
"344 0 LINE",
"344 0 OFFCURVE",
"338 51 OFFCURVE",
"338 81 CURVE SMOOTH",
"338 112 OFFCURVE",
"344 161 OFFCURVE",
"344 162 CURVE SMOOTH",
"345 167 LINE",
"301 167 LINE",
"301 115 LINE",
"289 110 OFFCURVE",
"276 107 OFFCURVE",
"262 107 CURVE SMOOTH",
"245 107 OFFCURVE",
"227 111 OFFCURVE",
"209 120 CURVE",
"229 155 OFFCURVE",
"230 203 OFFCURVE",
"220 233 CURVE SMOOTH",
"219 238 LINE SMOOTH",
"215 253 OFFCURVE",
"209 277 OFFCURVE",
"201 303 CURVE",
"298 303 LINE",
"298 343 LINE",
"191 343 LINE",
"160 467 LINE",
"153 505 OFFCURVE",
"157 535 OFFCURVE",
"172 553 CURVE",
"172 553 LINE",
"181 565 OFFCURVE",
"195 571 OFFCURVE",
"211 571 CURVE SMOOTH",
"243 571 OFFCURVE",
"260 546 OFFCURVE",
"260 495 CURVE SMOOTH",
"261 439 LINE",
"304 439 LINE",
"303 445 LINE",
"303 445 OFFCURVE",
"296 498 OFFCURVE",
"296 532 CURVE SMOOTH",
"296 565 OFFCURVE",
"303 619 OFFCURVE",
"303 620 CURVE SMOOTH",
"304 625 LINE",
"261 625 LINE",
"261 592 LINE",
"246 603 OFFCURVE",
"230 609 OFFCURVE",
"211 609 CURVE SMOOTH",
"170 609 OFFCURVE",
"138 596 OFFCURVE",
"116 571 CURVE SMOOTH",
"94 547 OFFCURVE",
"83 511 OFFCURVE",
"83 465 CURVE SMOOTH",
"83 454 OFFCURVE",
"91 410 OFFCURVE",
"101 355 CURVE SMOOTH",
"103 343 LINE",
"56 343 LINE",
"56 303 LINE",
"112 303 LINE",
"115 288 OFFCURVE",
"119 272 OFFCURVE",
"122 257 CURVE SMOOTH",
"130 223 OFFCURVE",
"137 192 OFFCURVE",
"142 170 CURVE",
"133 180 OFFCURVE",
"122 189 OFFCURVE",
"109 195 CURVE",
"109 195 LINE",
"100 199 OFFCURVE",
"90 200 OFFCURVE",
"80 200 CURVE SMOOTH",
"63 200 OFFCURVE",
"47 195 OFFCURVE",
"35 185 CURVE SMOOTH",
"21 175 OFFCURVE",
"13 159 OFFCURVE",
"12 143 CURVE SMOOTH",
"10 128 OFFCURVE",
"15 112 OFFCURVE",
"26 99 CURVE SMOOTH",
"41 80 OFFCURVE",
"63 68 OFFCURVE",
"87 66 CURVE SMOOTH",
"94 66 OFFCURVE",
"101 65 OFFCURVE",
"107 65 CURVE SMOOTH",
"130 65 OFFCURVE",
"150 70 OFFCURVE",
"168 79 CURVE",
"223 41 OFFCURVE",
"281 36 OFFCURVE",
"301 35 CURVE",
"301 -6 LINE"
);
},
{
closed = 1;
nodes = (
"71 147 OFFCURVE",
"74 149 OFFCURVE",
"79 149 CURVE SMOOTH",
"92 149 OFFCURVE",
"112 133 OFFCURVE",
"127 116 CURVE",
"119 110 OFFCURVE",
"110 107 OFFCURVE",
"102 107 CURVE SMOOTH",
"89 107 OFFCURVE",
"77 113 OFFCURVE",
"70 124 CURVE SMOOTH",
"66 130 OFFCURVE",
"66 137 OFFCURVE",
"68 143 CURVE"
);
}
);
width = 359;
}
);
note = sterling;
unicode = 00A3;
},
{
glyphname = dieresis;
layers = (
{
hints = (
{
horizontal = 1;
place = "{613, 98}";
type = Stem;
},
{
place = "{10, 79}";
type = Stem;
},
{
place = "{104, 79}";
type = Stem;
}
);
layerId = "8AA200AC-43EB-4C51-877F-34011B5AD0E7";
paths = (
{
closed = 1;
nodes = (
"166 613 OFFCURVE",
"183 635 OFFCURVE",
"183 662 CURVE SMOOTH",
"183 689 OFFCURVE",
"166 711 OFFCURVE",
"145 711 CURVE SMOOTH",
"123 711 OFFCURVE",
"104 688 OFFCURVE",
"104 662 CURVE SMOOTH",
"104 635 OFFCURVE",
"123 613 OFFCURVE",
"145 613 CURVE SMOOTH"
);
},
{
closed = 1;
nodes = (
"72 613 OFFCURVE",
"89 635 OFFCURVE",
"89 662 CURVE SMOOTH",
"89 689 OFFCURVE",
"72 711 OFFCURVE",
"50 711 CURVE SMOOTH",
"29 711 OFFCURVE",
"10 688 OFFCURVE",
"10 662 CURVE SMOOTH",
"10 635 OFFCURVE",
"29 613 OFFCURVE",
"50 613 CURVE SMOOTH"
);
}
);
width = 193;
}
);
note = dieresis;
unicode = 00A8;
},
{
glyphname = acute;
layers = (
{
hints = (
{
horizontal = 1;
place = "{608, 150}";
type = Stem;
},
{
place = "{9, 162}";
type = Stem;
}
);
layerId = "8AA200AC-43EB-4C51-877F-34011B5AD0E7";
paths = (
{
closed = 1;
nodes = (
"24 608 LINE",
"171 704 LINE",
"102 758 LINE",
"9 630 LINE"
);
}
);
width = 177;
}
);
note = acute;
unicode = 00B4;
},
{
glyphname = mu;
layers = (
{
hints = (
{
horizontal = 1;
place = "{-6, 21}";
target = up;
type = BottomGhost;
},
{
horizontal = 1;
place = "{403, 30}";
type = Stem;
},
{
place = "{37, 69}";
type = Stem;
},
{
place = "{199, 68}";
type = Stem;
},
{
horizontal = 1;
place = "{11, 45}";
type = Stem;
},
{
horizontal = 1;
place = "{-9, 21}";
target = up;
type = BottomGhost;
},
{
horizontal = 1;
place = "{5, 29}";
type = Stem;
},
{
place = "{287, 7}";
type = Stem;
},
{
horizontal = 1;
place = "{-9, 43}";
type = Stem;
},
{
place = "{126, 7}";
type = Stem;
}
);
layerId = "8AA200AC-43EB-4C51-877F-34011B5AD0E7";
paths = (
{
closed = 1;
nodes = (
"91 -173 OFFCURVE",
"106 -158 OFFCURVE",
"106 -138 CURVE SMOOTH",
"106 20 LINE",
"119 15 OFFCURVE",
"134 11 OFFCURVE",
"151 11 CURVE SMOOTH",
"169 11 OFFCURVE",
"186 16 OFFCURVE",
"199 24 CURVE",
"199 -9 LINE",
"206 -6 LINE",
"206 -6 OFFCURVE",
"230 5 OFFCURVE",
"247 5 CURVE SMOOTH",
"263 5 OFFCURVE",
"287 -6 OFFCURVE",
"287 -6 CURVE",
"294 -9 LINE",
"294 29 LINE",
"294 34 LINE",
"289 34 LINE",
"289 34 OFFCURVE",
"270 36 OFFCURVE",
"267 46 CURVE",
"267 392 LINE",
"270 401 OFFCURVE",
"289 403 OFFCURVE",
"289 403 CURVE",
"294 403 LINE",
"294 446 LINE",
"287 443 LINE",
"287 443 OFFCURVE",
"262 433 OFFCURVE",
"237 433 CURVE SMOOTH",
"212 433 OFFCURVE",
"178 441 OFFCURVE",
"177 441 CURVE",
"171 443 LINE",
"171 408 LINE",
"171 403 LINE",
"176 403 LINE SMOOTH",
"181 402 OFFCURVE",
"196 400 OFFCURVE",
"199 392 CURVE",
"199 221 LINE SMOOTH",
"199 155 OFFCURVE",
"192 108 OFFCURVE",
"179 80 CURVE SMOOTH",
"171 64 OFFCURVE",
"161 56 OFFCURVE",
"151 56 CURVE SMOOTH",
"141 56 OFFCURVE",
"127 59 OFFCURVE",
"118 92 CURVE SMOOTH",
"110 118 OFFCURVE",
"106 160 OFFCURVE",
"106 221 CURVE SMOOTH",
"106 392 LINE",
"108 400 OFFCURVE",
"123 402 OFFCURVE",
"128 403 CURVE SMOOTH",
"133 403 LINE",
"133 446 LINE",
"126 443 LINE",
"126 443 OFFCURVE",
"100 433 OFFCURVE",
"76 433 CURVE SMOOTH",
"51 433 OFFCURVE",
"16 441 OFFCURVE",
"16 441 CURVE",
"10 443 LINE",
"10 408 LINE",
"10 403 LINE",
"15 403 LINE",
"15 403 OFFCURVE",
"34 401 OFFCURVE",
"37 392 CURVE",
"37 -138 LINE SMOOTH",
"37 -157 OFFCURVE",
"52 -173 OFFCURVE",
"71 -173 CURVE SMOOTH"
);
}
);
width = 304;
}
);
note = mu;
unicode = 00B5;
},
{
glyphname = cedilla;
layers = (
{
hints = (
{
horizontal = 1;
place = "{-178, 38}";
type = Stem;
},
{
horizontal = 1;
place = "{-60, 35}";
type = Stem;
},
{
place = "{138, 63}";
type = Stem;
},
{
horizontal = 1;
place = "{-76, 82}";
type = Stem;
}
);
layerId = "8AA200AC-43EB-4C51-877F-34011B5AD0E7";
paths = (
{
closed = 1;
nodes = (
"131 -178 OFFCURVE",
"157 -169 OFFCURVE",
"175 -153 CURVE SMOOTH",
"192 -137 OFFCURVE",
"201 -116 OFFCURVE",
"201 -93 CURVE SMOOTH",
"201 -74 OFFCURVE",
"193 -56 OFFCURVE",
"180 -44 CURVE SMOOTH",
"167 -32 OFFCURVE",
"149 -25 OFFCURVE",
"129 -25 CURVE SMOOTH",
"120 -25 OFFCURVE",
"110 -27 OFFCURVE",
"100 -30 CURVE",
"117 6 LINE",
"79 6 LINE",
"37 -76 LINE",
"75 -76 LINE",
"83 -62 LINE",
"86 -61 OFFCURVE",
"93 -60 OFFCURVE",
"101 -60 CURVE SMOOTH",
"126 -60 OFFCURVE",
"138 -73 OFFCURVE",
"138 -99 CURVE SMOOTH",
"138 -134 OFFCURVE",
"107 -140 OFFCURVE",
"89 -140 CURVE SMOOTH",
"68 -140 OFFCURVE",
"44 -133 OFFCURVE",
"29 -123 CURVE SMOOTH",
"25 -120 LINE",
"9 -143 LINE",
"11 -146 LINE SMOOTH",
"12 -148 OFFCURVE",
"38 -178 OFFCURVE",
"101 -178 CURVE SMOOTH"
);
}
);
width = 211;
}
);
note = cedilla;
unicode = 00B8;
},
{
glyphname = ogonek;
layers = (
{
hints = (
{
horizontal = 1;
place = "{-198, 50}";
type = Stem;
},
{
horizontal = 1;
place = "{-4, 9}";
type = Stem;
},
{
place = "{10, 62}";
type = Stem;
},
{
place = "{176, 26}";
type = Stem;
}
);
layerId = "8AA200AC-43EB-4C51-877F-34011B5AD0E7";
paths = (
{
closed = 1;
nodes = (
"135 -198 OFFCURVE",
"157 -190 OFFCURVE",
"173 -173 CURVE SMOOTH",
"203 -142 OFFCURVE",
"202 -91 OFFCURVE",
"202 -89 CURVE SMOOTH",
"201 -84 LINE",
"176 -84 LINE",
"176 -89 LINE SMOOTH",
"176 -119 OFFCURVE",
"142 -148 OFFCURVE",
"118 -148 CURVE SMOOTH",
"95 -148 OFFCURVE",
"72 -134 OFFCURVE",
"72 -93 CURVE SMOOTH",
"72 -52 OFFCURVE",
"114 -4 OFFCURVE",
"114 -4 CURVE",
"122 5 LINE",
"82 5 LINE",
"81 4 LINE SMOOTH",
"79 2 OFFCURVE",
"27 -34 OFFCURVE",
"14 -85 CURVE SMOOTH",
"6 -116 OFFCURVE",
"10 -146 OFFCURVE",
"26 -166 CURVE SMOOTH",
"42 -188 OFFCURVE",
"70 -198 OFFCURVE",
"108 -198 CURVE SMOOTH"
);
}
);
width = 213;
}
);
note = ogonek;
unicode = 02DB;
},
{
glyphname = caron;
layers = (
{
hints = (
{
horizontal = 1;
place = "{614, 115}";
type = Stem;
},
{
place = "{41, 227}";
type = Stem;
}
);
layerId = "8AA200AC-43EB-4C51-877F-34011B5AD0E7";
paths = (
{
closed = 1;
nodes = (
"164 614 LINE",
"268 714 LINE",
"252 729 LINE",
"154 669 LINE",
"57 729 LINE",
"41 714 LINE",
"142 614 LINE"
);
}
);
width = 308;
}
);
note = caron;
unicode = 02C7;
},
{
glyphname = hungarumlaut;
layers = (
{
hints = (
{
horizontal = 1;
place = "{607, 150}";
type = Stem;
},
{
place = "{9, 271}";
type = Stem;
}
);
layerId = "8AA200AC-43EB-4C51-877F-34011B5AD0E7";
paths = (
{
closed = 1;
nodes = (
"133 607 LINE",
"280 704 LINE",
"212 757 LINE",
"119 629 LINE"
);
},
{
closed = 1;
nodes = (
"23 607 LINE",
"170 704 LINE",
"102 757 LINE",
"9 629 LINE"
);
}
);
width = 287;
}
);
note = hungarumlaut;
unicode = 02DD;
},
{
glyphname = dotaccent;
layers = (
{
hints = (
{
horizontal = 1;
place = "{612, 88}";
type = Stem;
},
{
place = "{10, 71}";
type = Stem;
}
);
layerId = "8AA200AC-43EB-4C51-877F-34011B5AD0E7";
paths = (
{
closed = 1;
nodes = (
"65 612 OFFCURVE",
"81 632 OFFCURVE",
"81 656 CURVE SMOOTH",
"81 681 OFFCURVE",
"66 700 OFFCURVE",
"46 700 CURVE SMOOTH",
"26 700 OFFCURVE",
"10 681 OFFCURVE",
"10 656 CURVE SMOOTH",
"10 632 OFFCURVE",
"26 612 OFFCURVE",
"46 612 CURVE SMOOTH"
);
}
);
width = 91;
}
);
note = dotaccent;
unicode = 02D9;
},
{
glyphname = breve;
layers = (
{
hints = (
{
horizontal = 1;
place = "{618, 43}";
type = Stem;
},
{
place = "{10, 26}";
type = Stem;
},
{
place = "{223, 25}";
type = Stem;
}
);
layerId = "8AA200AC-43EB-4C51-877F-34011B5AD0E7";
paths = (
{
closed = 1;
nodes = (
"196 618 OFFCURVE",
"249 675 OFFCURVE",
"249 745 CURVE SMOOTH",
"249 750 LINE",
"224 750 LINE",
"223 746 LINE",
"223 746 OFFCURVE",
"219 725 OFFCURVE",
"205 703 CURVE SMOOTH",
"186 676 OFFCURVE",
"161 661 OFFCURVE",
"130 661 CURVE SMOOTH",
"98 661 OFFCURVE",
"73 675 OFFCURVE",
"55 703 CURVE SMOOTH",
"41 724 OFFCURVE",
"37 746 OFFCURVE",
"37 746 CURVE",
"36 750 LINE",
"10 750 LINE",
"10 745 LINE SMOOTH",
"10 675 OFFCURVE",
"64 618 OFFCURVE",
"130 618 CURVE SMOOTH"
);
}
);
width = 259;
}
);
note = breve;
unicode = 02D8;
},
{
glyphname = quotedbl;
layers = (
{
hints = (
{
horizontal = 1;
place = "{484, 142}";
type = Stem;
},
{
place = "{10, 48}";
type = Stem;
},
{
place = "{85, 48}";
type = Stem;
}
);
layerId = "8AA200AC-43EB-4C51-877F-34011B5AD0E7";
paths = (
{
closed = 1;
nodes = (
"133 484 LINE",
"152 626 LINE",
"85 626 LINE",
"85 484 LINE"
);
},
{
closed = 1;
nodes = (
"58 484 LINE",
"77 626 LINE",
"10 626 LINE",
"10 484 LINE"
);
}
);
width = 162;
}
);
note = quotedbl;
unicode = 0022;
},
{
glyphname = thorn;
layers = (
{
hints = (
{
horizontal = 1;
place = "{-165, 31}";
type = Stem;
},
{
horizontal = 1;
place = "{-9, 41}";
type = Stem;
},
{
horizontal = 1;
place = "{412, 33}";
type = Stem;
},
{
horizontal = 1;
place = "{584, 31}";
type = Stem;
},
{
place = "{57, 69}";
type = Stem;
},
{
place = "{230, 66}";
type = Stem;
}
);
layerId = "8AA200AC-43EB-4C51-877F-34011B5AD0E7";
paths = (
{
closed = 1;
nodes = (
"4 -174 LINE",
"10 -173 LINE",
"10 -173 OFFCURVE",
"60 -165 OFFCURVE",
"91 -165 CURVE SMOOTH",
"123 -165 OFFCURVE",
"173 -173 OFFCURVE",
"173 -173 CURVE",
"179 -174 LINE",
"179 -134 LINE",
"174 -134 LINE",
"174 -134 OFFCURVE",
"162 -133 OFFCURVE",
"150 -130 CURVE SMOOTH",
"130 -127 OFFCURVE",
"126 -123 OFFCURVE",
"126 -122 CURVE SMOOTH",
"126 -9 LINE",
"188 -6 OFFCURVE",
"234 19 OFFCURVE",
"263 64 CURVE SMOOTH",
"285 100 OFFCURVE",
"296 147 OFFCURVE",
"296 206 CURVE SMOOTH",
"296 292 OFFCURVE",
"286 344 OFFCURVE",
"263 381 CURVE SMOOTH",
"237 422 OFFCURVE",
"194 443 OFFCURVE",
"126 445 CURVE",
"126 572 LINE",
"127 574 OFFCURVE",
"132 578 OFFCURVE",
"146 581 CURVE SMOOTH",
"157 584 OFFCURVE",
"167 584 OFFCURVE",
"167 584 CURVE",
"172 585 LINE",
"172 624 LINE",
"166 623 LINE",
"166 623 OFFCURVE",
"123 615 OFFCURVE",
"96 615 CURVE SMOOTH",
"68 615 OFFCURVE",
"16 622 OFFCURVE",
"16 622 CURVE",
"10 623 LINE",
"10 585 LINE",
"15 584 LINE",
"15 584 OFFCURVE",
"25 584 OFFCURVE",
"37 581 CURVE SMOOTH",
"53 578 OFFCURVE",
"56 574 OFFCURVE",
"57 573 CURVE",
"57 -122 LINE",
"56 -123 OFFCURVE",
"52 -127 OFFCURVE",
"33 -130 CURVE SMOOTH",
"21 -133 OFFCURVE",
"9 -134 OFFCURVE",
"9 -134 CURVE",
"4 -134 LINE"
);
},
{
closed = 1;
nodes = (
"126 412 LINE",
"172 410 OFFCURVE",
"198 396 OFFCURVE",
"212 364 CURVE SMOOTH",
"227 331 OFFCURVE",
"230 281 OFFCURVE",
"230 206 CURVE SMOOTH",
"230 149 OFFCURVE",
"221 106 OFFCURVE",
"202 77 CURVE SMOOTH",
"185 49 OFFCURVE",
"159 34 OFFCURVE",
"126 32 CURVE"
);
}
);
width = 313;
}
);
note = thorn;
unicode = 00FE;
},
{
glyphname = Thorn;
layers = (
{
hints = (
{
horizontal = 1;
place = "{-4, 39}";
type = Stem;
},
{
horizontal = 1;
place = "{479, 32}";
type = Stem;
},
{
horizontal = 1;
place = "{584, 31}";
type = Stem;
},
{
place = "{57, 69}";
type = Stem;
},
{
place = "{230, 66}";
type = Stem;
},
{
horizontal = 1;
place = "{-4, 152}";
type = Stem;
}
);
layerId = "8AA200AC-43EB-4C51-877F-34011B5AD0E7";
paths = (
{
closed = 1;
nodes = (
"4 -5 LINE",
"10 -4 LINE",
"10 -4 OFFCURVE",
"60 4 OFFCURVE",
"92 4 CURVE SMOOTH",
"123 4 OFFCURVE",
"173 -4 OFFCURVE",
"173 -4 CURVE",
"179 -5 LINE",
"179 34 LINE",
"174 35 LINE",
"174 35 OFFCURVE",
"162 36 OFFCURVE",
"150 38 CURVE SMOOTH",
"130 42 OFFCURVE",
"127 46 OFFCURVE",
"126 46 CURVE",
"126 108 LINE",
"211 110 OFFCURVE",
"296 135 OFFCURVE",
"296 296 CURVE SMOOTH",
"296 442 OFFCURVE",
"271 508 OFFCURVE",
"126 511 CURVE",
"126 572 LINE",
"127 574 OFFCURVE",
"132 577 OFFCURVE",
"147 581 CURVE SMOOTH",
"158 583 OFFCURVE",
"168 584 OFFCURVE",
"168 584 CURVE",
"173 584 LINE",
"173 624 LINE",
"167 623 LINE",
"167 622 OFFCURVE",
"124 615 OFFCURVE",
"96 615 CURVE SMOOTH",
"68 615 OFFCURVE",
"16 622 OFFCURVE",
"16 622 CURVE",
"10 622 LINE",
"10 584 LINE",
"15 584 LINE",
"15 584 OFFCURVE",
"25 583 OFFCURVE",
"37 581 CURVE SMOOTH",
"53 577 OFFCURVE",
"56 574 OFFCURVE",
"57 573 CURVE",
"57 46 LINE",
"56 45 OFFCURVE",
"51 41 OFFCURVE",
"33 38 CURVE SMOOTH",
"20 36 OFFCURVE",
"9 35 OFFCURVE",
"9 35 CURVE",
"4 34 LINE"
);
},
{
closed = 1;
nodes = (
"126 479 LINE",
"174 477 OFFCURVE",
"198 466 OFFCURVE",
"212 442 CURVE SMOOTH",
"223 421 OFFCURVE",
"230 390 OFFCURVE",
"230 296 CURVE SMOOTH",
"230 208 OFFCURVE",
"212 153 OFFCURVE",
"126 148 CURVE"
);
}
);
width = 317;
}
);
note = Thorn;
unicode = 00DE;
},
{
glyphname = odieresis;
layers = (
{
hints = (
{
horizontal = 1;
place = "{-26, 44}";
type = Stem;
},
{
horizontal = 1;
place = "{399, 45}";
type = Stem;
},
{
horizontal = 1;
place = "{477, 98}";
type = Stem;
},
{
place = "{10, 67}";
type = Stem;
},
{
place = "{172, 67}";
type = Stem;
},
{
place = "{128, 79}";
type = Stem;
},
{
place = "{34, 79}";
type = Stem;
}
);
layerId = "8AA200AC-43EB-4C51-877F-34011B5AD0E7";
paths = (
{
closed = 1;
nodes = (
"197 -26 OFFCURVE",
"239 58 OFFCURVE",
"239 205 CURVE SMOOTH",
"239 359 OFFCURVE",
"198 444 OFFCURVE",
"125 444 CURVE SMOOTH",
"51 444 OFFCURVE",
"10 359 OFFCURVE",
"10 205 CURVE SMOOTH",
"10 56 OFFCURVE",
"51 -26 OFFCURVE",
"125 -26 CURVE SMOOTH"
);
},
{
closed = 1;
nodes = (
"135 399 OFFCURVE",
"147 384 OFFCURVE",
"155 358 CURVE SMOOTH",
"167 323 OFFCURVE",
"172 271 OFFCURVE",
"172 205 CURVE SMOOTH",
"172 132 OFFCURVE",
"161 86 OFFCURVE",
"152 60 CURVE SMOOTH",
"140 28 OFFCURVE",
"128 18 OFFCURVE",
"125 18 CURVE SMOOTH",
"114 18 OFFCURVE",
"103 33 OFFCURVE",
"95 57 CURVE SMOOTH",
"83 91 OFFCURVE",
"77 142 OFFCURVE",
"77 205 CURVE SMOOTH",
"77 274 OFFCURVE",
"82 324 OFFCURVE",
"90 356 CURVE SMOOTH",
"98 385 OFFCURVE",
"109 399 OFFCURVE",
"125 399 CURVE SMOOTH"
);
},
{
closed = 1;
nodes = (
"190 477 OFFCURVE",
"207 499 OFFCURVE",
"207 526 CURVE SMOOTH",
"207 553 OFFCURVE",
"190 575 OFFCURVE",
"169 575 CURVE SMOOTH",
"147 575 OFFCURVE",
"128 552 OFFCURVE",
"128 526 CURVE SMOOTH",
"128 499 OFFCURVE",
"147 477 OFFCURVE",
"169 477 CURVE SMOOTH"
);
},
{
closed = 1;
nodes = (
"96 477 OFFCURVE",
"113 499 OFFCURVE",
"113 526 CURVE SMOOTH",
"113 553 OFFCURVE",
"96 575 OFFCURVE",
"74 575 CURVE SMOOTH",
"53 575 OFFCURVE",
"34 552 OFFCURVE",
"34 526 CURVE SMOOTH",
"34 499 OFFCURVE",
"53 477 OFFCURVE",
"74 477 CURVE SMOOTH"
);
}
);
width = 242;
}
);
leftKerningGroup = o;
note = odieresis;
rightKerningGroup = o;
unicode = 00F6;
},
{
glyphname = a_a;
layers = (
{
hints = (
{
horizontal = 1;
place = "{-5, 40}";
type = Stem;
},
{
horizontal = 1;
place = "{287, 40}";
type = Stem;
},
{
horizontal = 1;
place = "{429, 41}";
type = Stem;
},
{
place = "{0, 61}";
type = Stem;
},
{
place = "{158, 72}";
type = Stem;
},
{
place = "{281, 32}";
type = Stem;
},
{
place = "{398, 72}";
type = Stem;
},
{
horizontal = 1;
place = "{-38, 31}";
type = Stem;
},
{
place = "{244, 7}";
type = Stem;
},
{
horizontal = 1;
place = "{377, 41}";
type = Stem;
},
{
place = "{41, 32}";
type = Stem;
},
{
horizontal = 1;
place = "{300, 123}";
type = Stem;
},
{
horizontal = 1;
place = "{235, 40}";
type = Stem;
},
{
horizontal = 1;
place = "{14, 31}";
type = Stem;
},
{
place = "{484, 7}";
type = Stem;
},
{
horizontal = 1;
place = "{352, 123}";
type = Stem;
},
{
horizontal = 1;
place = "{47, 40}";
type = Stem;
},
{
place = "{240, 61}";
type = Stem;
}
);
layerId = "8AA200AC-43EB-4C51-877F-34011B5AD0E7";
paths = (
{
closed = 1;
nodes = (
"251 -47 LINE",
"251 -12 LINE",
"251 -7 LINE",
"246 -7 LINE SMOOTH",
"245 -7 OFFCURVE",
"233 -7 OFFCURVE",
"230 4 CURVE",
"230 228 LINE SMOOTH",
"230 286 OFFCURVE",
"229 333 OFFCURVE",
"217 366 CURVE SMOOTH",
"203 401 OFFCURVE",
"176 418 OFFCURVE",
"131 418 CURVE SMOOTH",
"108 418 OFFCURVE",
"89 410 OFFCURVE",
"73 395 CURVE",
"73 423 LINE",
"33 423 LINE",
"35 417 LINE",
"35 417 OFFCURVE",
"41 382 OFFCURVE",
"41 362 CURVE SMOOTH",
"41 342 OFFCURVE",
"35 306 OFFCURVE",
"35 306 CURVE",
"33 300 LINE",
"84 300 LINE",
"84 305 LINE SMOOTH",
"84 306 OFFCURVE",
"82 345 OFFCURVE",
"102 365 CURVE SMOOTH",
"109 373 OFFCURVE",
"119 377 OFFCURVE",
"131 377 CURVE SMOOTH",
"138 377 OFFCURVE",
"144 375 OFFCURVE",
"148 369 CURVE",
"168 347 OFFCURVE",
"165 286 OFFCURVE",
"163 266 CURVE",
"149 272 OFFCURVE",
"133 275 OFFCURVE",
"115 275 CURVE SMOOTH",
"77 275 OFFCURVE",
"48 262 OFFCURVE",
"29 236 CURVE SMOOTH",
"10 210 OFFCURVE",
"0 171 OFFCURVE",
"0 121 CURVE SMOOTH",
"0 88 OFFCURVE",
"9 57 OFFCURVE",
"25 36 CURVE SMOOTH",
"45 9 OFFCURVE",
"75 -5 OFFCURVE",
"112 -5 CURVE SMOOTH",
"130 -5 OFFCURVE",
"148 -2 OFFCURVE",
"162 4 CURVE",
"162 -45 LINE",
"169 -44 LINE",
"169 -44 OFFCURVE",
"190 -38 OFFCURVE",
"206 -38 CURVE SMOOTH",
"223 -38 OFFCURVE",
"244 -45 OFFCURVE",
"244 -45 CURVE"
);
},
{
closed = 1;
nodes = (
"129 235 OFFCURVE",
"158 235 OFFCURVE",
"158 121 CURVE SMOOTH",
"158 63 OFFCURVE",
"143 35 OFFCURVE",
"112 35 CURVE SMOOTH",
"87 35 OFFCURVE",
"61 65 OFFCURVE",
"61 121 CURVE SMOOTH",
"61 195 OFFCURVE",
"80 235 OFFCURVE",
"115 235 CURVE SMOOTH"
);
},
{
closed = 1;
nodes = (
"491 5 LINE",
"491 40 LINE",
"491 45 LINE",
"486 45 LINE SMOOTH",
"485 45 OFFCURVE",
"473 45 OFFCURVE",
"470 56 CURVE",
"470 280 LINE SMOOTH",
"470 338 OFFCURVE",
"469 385 OFFCURVE",
"457 418 CURVE SMOOTH",
"443 453 OFFCURVE",
"416 470 OFFCURVE",
"371 470 CURVE SMOOTH",
"348 470 OFFCURVE",
"329 462 OFFCURVE",
"313 447 CURVE",
"313 475 LINE",
"273 475 LINE",
"275 469 LINE",
"275 469 OFFCURVE",
"281 434 OFFCURVE",
"281 414 CURVE SMOOTH",
"281 394 OFFCURVE",
"275 358 OFFCURVE",
"275 358 CURVE",
"273 352 LINE",
"324 352 LINE",
"324 357 LINE SMOOTH",
"324 358 OFFCURVE",
"322 397 OFFCURVE",
"342 417 CURVE SMOOTH",
"349 425 OFFCURVE",
"359 429 OFFCURVE",
"371 429 CURVE SMOOTH",
"378 429 OFFCURVE",
"384 427 OFFCURVE",
"388 421 CURVE",
"408 399 OFFCURVE",
"405 338 OFFCURVE",
"403 318 CURVE",
"389 324 OFFCURVE",
"373 327 OFFCURVE",
"355 327 CURVE SMOOTH",
"317 327 OFFCURVE",
"288 314 OFFCURVE",
"269 288 CURVE SMOOTH",
"250 262 OFFCURVE",
"240 223 OFFCURVE",
"240 173 CURVE SMOOTH",
"240 140 OFFCURVE",
"249 109 OFFCURVE",
"265 88 CURVE SMOOTH",
"285 61 OFFCURVE",
"315 47 OFFCURVE",
"352 47 CURVE SMOOTH",
"370 47 OFFCURVE",
"388 50 OFFCURVE",
"402 56 CURVE",
"402 7 LINE",
"409 8 LINE",
"409 8 OFFCURVE",
"430 14 OFFCURVE",
"446 14 CURVE SMOOTH",
"463 14 OFFCURVE",
"484 7 OFFCURVE",
"484 7 CURVE"
);
},
{
closed = 1;
nodes = (
"369 287 OFFCURVE",
"398 287 OFFCURVE",
"398 173 CURVE SMOOTH",
"398 115 OFFCURVE",
"383 87 OFFCURVE",
"352 87 CURVE SMOOTH",
"327 87 OFFCURVE",
"301 117 OFFCURVE",
"301 173 CURVE SMOOTH",
"301 247 OFFCURVE",
"320 287 OFFCURVE",
"355 287 CURVE SMOOTH"
);
}
);
width = 480;
}
);
leftKerningGroup = a;
note = a_a;
rightKerningGroup = a;
unicode = E000;
},
{
glyphname = b_b;
layers = (
{
hints = (
{
horizontal = 1;
place = "{-7, 45}";
type = Stem;
},
{
horizontal = 1;
place = "{419, 43}";
type = Stem;
},
{
horizontal = 1;
place = "{622, 41}";
type = Stem;
},
{
place = "{37, 70}";
type = Stem;
},
{
place = "{199, 70}";
type = Stem;
},
{
place = "{300, 70}";
type = Stem;
},
{
place = "{462, 70}";
type = Stem;
},
{
horizontal = 1;
place = "{-15, 21}";
target = up;
type = BottomGhost;
},
{
horizontal = 1;
place = "{378, 43}";
type = Stem;
},
{
horizontal = 1;
place = "{581, 30}";
type = Stem;
},
{
place = "{127, 7}";
type = Stem;
},
{
horizontal = 1;
place = "{-11, 21}";
target = up;
type = BottomGhost;
},
{
horizontal = 1;
place = "{1, 21}";
target = up;
type = BottomGhost;
},
{
horizontal = 1;
place = "{34, 45}";
type = Stem;
},
{
place = "{390, 7}";
type = Stem;
},
{
horizontal = 1;
place = "{622, 30}";
type = Stem;
}
);
layerId = "8AA200AC-43EB-4C51-877F-34011B5AD0E7";
paths = (
{
closed = 1;
nodes = (
"107 -15 LINE",
"107 5 LINE",
"120 -4 OFFCURVE",
"135 -7 OFFCURVE",
"154 -7 CURVE SMOOTH",
"193 -7 OFFCURVE",
"222 11 OFFCURVE",
"241 48 CURVE SMOOTH",
"260 84 OFFCURVE",
"269 137 OFFCURVE",
"269 210 CURVE SMOOTH",
"269 279 OFFCURVE",
"259 332 OFFCURVE",
"240 367 CURVE SMOOTH",
"221 403 OFFCURVE",
"192 421 OFFCURVE",
"154 421 CURVE SMOOTH",
"136 421 OFFCURVE",
"120 418 OFFCURVE",
"107 410 CURVE",
"107 569 LINE",
"109 579 OFFCURVE",
"129 581 OFFCURVE",
"129 581 CURVE",
"134 581 LINE",
"134 622 LINE",
"127 620 LINE",
"127 620 OFFCURVE",
"96 611 OFFCURVE",
"72 611 CURVE SMOOTH",
"49 611 OFFCURVE",
"17 620 OFFCURVE",
"17 620 CURVE",
"10 622 LINE",
"10 581 LINE",
"15 581 LINE",
"15 581 OFFCURVE",
"35 579 OFFCURVE",
"37 569 CURVE",
"37 42 LINE",
"35 32 OFFCURVE",
"15 30 OFFCURVE",
"15 30 CURVE",
"10 30 LINE",
"10 -12 LINE",
"17 -9 LINE",
"18 -9 OFFCURVE",
"45 1 OFFCURVE",
"62 1 CURVE SMOOTH",
"78 1 OFFCURVE",
"99 -11 OFFCURVE",
"99 -11 CURVE"
);
},
{
closed = 1;
nodes = (
"159 378 OFFCURVE",
"171 368 OFFCURVE",
"180 343 CURVE SMOOTH",
"189 321 OFFCURVE",
"199 280 OFFCURVE",
"199 210 CURVE SMOOTH",
"199 99 OFFCURVE",
"184 38 OFFCURVE",
"154 38 CURVE SMOOTH",
"143 38 OFFCURVE",
"129 42 OFFCURVE",
"120 73 CURVE SMOOTH",
"113 100 OFFCURVE",
"109 143 OFFCURVE",
"109 210 CURVE SMOOTH",
"109 265 OFFCURVE",
"114 308 OFFCURVE",
"122 337 CURVE SMOOTH",
"128 355 OFFCURVE",
"138 378 OFFCURVE",
"154 378 CURVE SMOOTH"
);
},
{
closed = 1;
nodes = (
"370 26 LINE",
"370 46 LINE",
"383 37 OFFCURVE",
"398 34 OFFCURVE",
"417 34 CURVE SMOOTH",
"456 34 OFFCURVE",
"485 52 OFFCURVE",
"504 89 CURVE SMOOTH",
"523 125 OFFCURVE",
"532 178 OFFCURVE",
"532 251 CURVE SMOOTH",
"532 320 OFFCURVE",
"522 373 OFFCURVE",
"503 408 CURVE SMOOTH",
"484 444 OFFCURVE",
"455 462 OFFCURVE",
"417 462 CURVE SMOOTH",
"399 462 OFFCURVE",
"383 459 OFFCURVE",
"370 451 CURVE",
"370 610 LINE",
"372 620 OFFCURVE",
"392 622 OFFCURVE",
"392 622 CURVE",
"397 622 LINE",
"397 663 LINE",
"390 661 LINE",
"390 661 OFFCURVE",
"359 652 OFFCURVE",
"335 652 CURVE SMOOTH",
"312 652 OFFCURVE",
"280 661 OFFCURVE",
"280 661 CURVE",
"273 663 LINE",
"273 622 LINE",
"278 622 LINE",
"278 622 OFFCURVE",
"298 620 OFFCURVE",
"300 610 CURVE",
"300 83 LINE",
"298 73 OFFCURVE",
"278 71 OFFCURVE",
"278 71 CURVE",
"273 71 LINE",
"273 29 LINE",
"280 32 LINE",
"281 32 OFFCURVE",
"308 42 OFFCURVE",
"325 42 CURVE SMOOTH",
"341 42 OFFCURVE",
"362 30 OFFCURVE",
"362 30 CURVE"
);
},
{
closed = 1;
nodes = (
"422 419 OFFCURVE",
"434 409 OFFCURVE",
"443 384 CURVE SMOOTH",
"452 362 OFFCURVE",
"462 321 OFFCURVE",
"462 251 CURVE SMOOTH",
"462 140 OFFCURVE",
"447 79 OFFCURVE",
"417 79 CURVE SMOOTH",
"406 79 OFFCURVE",
"392 83 OFFCURVE",
"383 114 CURVE SMOOTH",
"376 141 OFFCURVE",
"372 184 OFFCURVE",
"372 251 CURVE SMOOTH",
"372 306 OFFCURVE",
"377 349 OFFCURVE",
"385 378 CURVE SMOOTH",
"391 396 OFFCURVE",
"401 419 OFFCURVE",
"417 419 CURVE SMOOTH"
);
}
);
width = 547;
}
);
leftKerningGroup = b;
note = b_b;
rightKerningGroup = b;
unicode = E001;
},
{
glyphname = c_c;
layers = (
{
hints = (
{
horizontal = 1;
place = "{17, 45}";
type = Stem;
},
{
horizontal = 1;
place = "{459, -20}";
target = down;
type = TopGhost;
},
{
place = "{10, 70}";
type = Stem;
},
{
place = "{233, 70}";
type = Stem;
},
{
place = "{410, 33}";
type = Stem;
},
{
horizontal = 1;
place = "{-28, 45}";
type = Stem;
},
{
horizontal = 1;
place = "{398, 45}";
type = Stem;
},
{
place = "{190, 42}";
type = Stem;
},
{
place = "{187, 33}";
type = Stem;
},
{
horizontal = 1;
place = "{274, 168}";
type = Stem;
},
{
horizontal = 1;
place = "{443, 45}";
type = Stem;
},
{
place = "{413, 42}";
type = Stem;
},
{
horizontal = 1;
place = "{319, 168}";
type = Stem;
}
);
layerId = "8AA200AC-43EB-4C51-877F-34011B5AD0E7";
paths = (
{
closed = 1;
nodes = (
"164 -28 OFFCURVE",
"195 -7 OFFCURVE",
"215 34 CURVE SMOOTH",
"229 65 OFFCURVE",
"232 94 OFFCURVE",
"232 96 CURVE SMOOTH",
"233 101 LINE",
"191 101 LINE",
"190 97 LINE SMOOTH",
"190 96 OFFCURVE",
"176 17 OFFCURVE",
"124 17 CURVE SMOOTH",
"96 17 OFFCURVE",
"80 78 OFFCURVE",
"80 185 CURVE SMOOTH",
"80 271 OFFCURVE",
"89 322 OFFCURVE",
"96 349 CURVE SMOOTH",
"108 396 OFFCURVE",
"121 398 OFFCURVE",
"124 398 CURVE SMOOTH",
"133 398 OFFCURVE",
"140 395 OFFCURVE",
"146 388 CURVE SMOOTH",
"173 360 OFFCURVE",
"168 280 OFFCURVE",
"168 279 CURVE SMOOTH",
"168 274 LINE",
"227 274 LINE",
"226 280 LINE",
"226 280 OFFCURVE",
"220 328 OFFCURVE",
"220 358 CURVE SMOOTH",
"220 388 OFFCURVE",
"226 436 OFFCURVE",
"226 436 CURVE",
"227 442 LINE",
"187 442 LINE",
"187 414 LINE",
"173 433 OFFCURVE",
"152 443 OFFCURVE",
"124 443 CURVE SMOOTH",
"52 443 OFFCURVE",
"10 349 OFFCURVE",
"10 185 CURVE SMOOTH",
"10 116 OFFCURVE",
"19 62 OFFCURVE",
"38 27 CURVE SMOOTH",
"57 -10 OFFCURVE",
"86 -28 OFFCURVE",
"124 -28 CURVE SMOOTH"
);
},
{
closed = 1;
nodes = (
"387 17 OFFCURVE",
"418 38 OFFCURVE",
"438 79 CURVE SMOOTH",
"452 110 OFFCURVE",
"455 139 OFFCURVE",
"455 141 CURVE SMOOTH",
"456 146 LINE",
"414 146 LINE",
"413 142 LINE SMOOTH",
"413 141 OFFCURVE",
"399 62 OFFCURVE",
"347 62 CURVE SMOOTH",
"319 62 OFFCURVE",
"303 123 OFFCURVE",
"303 230 CURVE SMOOTH",
"303 316 OFFCURVE",
"312 367 OFFCURVE",
"319 394 CURVE SMOOTH",
"331 441 OFFCURVE",
"344 443 OFFCURVE",
"347 443 CURVE SMOOTH",
"356 443 OFFCURVE",
"363 440 OFFCURVE",
"369 433 CURVE SMOOTH",
"396 405 OFFCURVE",
"391 325 OFFCURVE",
"391 324 CURVE SMOOTH",
"391 319 LINE",
"450 319 LINE",
"449 325 LINE",
"449 325 OFFCURVE",
"443 373 OFFCURVE",
"443 403 CURVE SMOOTH",
"443 433 OFFCURVE",
"449 481 OFFCURVE",
"449 481 CURVE",
"450 487 LINE",
"410 487 LINE",
"410 459 LINE",
"396 478 OFFCURVE",
"375 488 OFFCURVE",
"347 488 CURVE SMOOTH",
"275 488 OFFCURVE",
"233 394 OFFCURVE",
"233 230 CURVE SMOOTH",
"233 161 OFFCURVE",
"242 107 OFFCURVE",
"261 72 CURVE SMOOTH",
"280 35 OFFCURVE",
"309 17 OFFCURVE",
"347 17 CURVE SMOOTH"
);
}
);
width = 462;
}
);
leftKerningGroup = c;
note = c_c;
rightKerningGroup = c;
unicode = E002;
},
